SplineFontDB: 3.0
FontName: Oswald-Heavy
FullName: Oswald-HeavyPole
FamilyName: Oswald
Weight: Heavy
Copyright: 
Version: 1
ItalicAngle: 0
UnderlinePosition: -240
UnderlineWidth: 125
Ascent: 1658
Descent: 390
UFOAscent: 1658
UFODescent: -390
LayerCount: 2
Layer: 0 0 "Back"  1
Layer: 1 0 "Fore"  0
OS2Version: 0
OS2_WeightWidthSlopeOnly: 0
OS2_UseTypoMetrics: 0
CreationTime: 1372441999
ModificationTime: 1372442751
PfmFamily: 0
TTFWeight: 800
TTFWidth: 5
LineGap: 0
VLineGap: 0
OS2TypoAscent: 1638
OS2TypoAOffset: 0
OS2TypoDescent: -410
OS2TypoDOffset: 0
OS2TypoLinegap: 0
OS2WinAscent: 1638
OS2WinAOffset: 0
OS2WinDescent: 410
OS2WinDOffset: 0
HheadAscent: 1638
HheadAOffset: 0
HheadDescent: -410
HheadDOffset: 0
OS2Vendor: 'newt'
Lookup: 258 0 0 "'kern' Horizontal Kerning in Cyrillic lookup 0"  {"'kern' Horizontal Kerning in Cyrillic lookup 0 subtable"  "'kern' Horizontal Kerning lookup 2 kerning class 1"  } ['kern' ('cyrl' <'dflt' > ) ]
Lookup: 260 0 0 "markMarkPositioninglookup2"  {"markMarkPositioninglookup2 subtable"  } ['mark' ('latn' <'dflt' > 'grek' <'dflt' > 'cyrl' <'dflt' > 'DFLT' <'dflt' > ) ]
MarkAttachClasses: 1
DEI: 91125
KernClass2: 43 55 "'kern' Horizontal Kerning lookup 2 kerning class 1" 
 89 A Aacute Abreve Acircumflex Adieresis Agrave Amacron Aogonek Aring Atilde uni0200 uni0202
 9 B uni1E02
 16 D Dcaron uni1E0A
 9 F uni1E1E
 52 G Gbreve Gcircumflex Gcommaaccent Gdotaccent uni01F4
 14 K Kcommaaccent
 28 L Lacute Lcaron Lcommaaccent
 9 P uni1E56
 44 R Racute Rcaron Rcommaaccent uni0210 uni0212
 37 T Tcaron Tcommaaccent uni021A uni1E6A
 1 V
 37 W Wacute Wcircumflex Wdieresis Wgrave
 37 Y Yacute Ycircumflex Ydieresis Ygrave
 9 afii10017
 9 afii10018
 19 afii10020 afii10052
 19 afii10037 afii10062
 9 afii10059
 19 afii10068 afii10100
 27 afii10070 afii10071 uni0450
 19 afii10076 afii10109
 9 afii10084
 19 afii10085 afii10110
 9 afii10092
 9 afii10094
 9 b uni1E03
 47 c cacute ccaron ccedilla ccircumflex cdotaccent
 16 d dcaron uni1E0B

StartChar: A
Encoding: 65 65 0
Width: 1170
VWidth: 0
Flags: HW
AnchorPoint: "ogonek" 901 0 basechar 0
LayerCount: 2
UndoRedoHistory
Layer: 1
Undoes
EndUndoes
Redoes
EndRedoes
EndUndoRedoHistory
Fore
SplineSet
525 564 m 1
 662 1179 l 1
 670 564 l 1
 525 564 l 1
-3 0 m 1
 386 0 l 1
 468 328 l 1
 679 328 l 1
 696 0 l 1
 1073 0 l 1
 951 1658 l 1
 469 1658 l 1
 -3 0 l 1
EndSplineSet
EndChar

StartChar: AE
Encoding: 198 198 1
Width: 1501
VWidth: 0
Flags: HW
LayerCount: 2
UndoRedoHistory
Layer: 1
Undoes
EndUndoes
Redoes
EndRedoes
EndUndoRedoHistory
Fore
SplineSet
636 572 m 1
 860 1044 l 1
 810 572 l 1
 636 572 l 1
-50 0 m 1
 368 0 l 1
 530 321 l 1
 784 321 l 1
 750 0 l 1
 1420 0 l 1
 1449 275 l 1
 1125 275 l 1
 1171 713 l 1
 1399 713 l 1
 1429 999 l 1
 1201 999 l 1
 1238 1349 l 1
 1562 1349 l 1
 1591 1626 l 1
 851 1626 l 1
 -50 0 l 1
EndSplineSet
EndChar

StartChar: B
Encoding: 66 66 11
Width: 1251
VWidth: 0
Flags: HW
HStem: 0 287<512 512 512 564 512 604 512 767> 742 262<588 588 588 615 615 640 588 689> 1388 270<628 695 244 697 244 748.5>
VStem: 695 360 711 398
LayerCount: 2
UndoRedoHistory
Layer: 1
Undoes
EndUndoes
Redoes
EndRedoes
EndUndoRedoHistory
Fore
SplineSet
588 1004 m 1
 628 1388 l 1
 697 1388 l 2
 800 1388 854 1302 844 1206 c 0
 831 1086 795 1004 640 1004 c 2
 588 1004 l 1
512 287 m 1
 560 742 l 1
 615 742 l 2
 763 742 805 684 786 506 c 0
 771 365 713 287 564 287 c 2
 512 287 l 1
70 0 m 1
 604 0 l 2
 930 0 1151 136 1183 499 c 0
 1204 733 1114 874 928 890 c 1
 1076 920 1179 1019 1205 1217 c 0
 1257 1615 973 1658 695 1658 c 2
 244 1658 l 1
 70 0 l 1
EndSplineSet
EndChar

StartChar: C
Encoding: 67 67 12
Width: 1186
VWidth: 0
Flags: HW
HStem: -26 284<548 638 548 756.5> 1400 284<668 758>
VStem: 28 420 636 406
AnchorPoint: "cedilla" 480 0 basechar 0
LayerCount: 2
UndoRedoHistory
Layer: 1
Undoes
EndUndoes
Redoes
EndRedoes
EndUndoRedoHistory
Fore
SplineSet
563 -26 m 0
 950 -26 1084 187 1113 462 c 1
 1128 610 l 1
 722 610 l 1
 702 418 l 2
 695 352 683 258 593 258 c 0
 503 258 507 352 514 418 c 2
 600 1241 l 2
 607 1307 623 1400 713 1400 c 0
 803 1400 795 1307 788 1241 c 2
 769 1056 l 1
 1175 1056 l 1
 1191 1205 l 2
 1220 1480 1130 1684 743 1684 c 0
 356 1684 205 1476 169 1129 c 2
 106 529 l 2
 69 182 176 -26 563 -26 c 0
EndSplineSet
EndChar

StartChar: D
Encoding: 68 68 18
Width: 1240
VWidth: 0
Flags: HW
HStem: 0 284<70 512 512 512 512 547 512 738> 1374 284<626 661 661 684 244 728.5>
VStem: 644 424
LayerCount: 2
UndoRedoHistory
Layer: 1
Undoes
EndUndoes
Redoes
EndRedoes
EndUndoRedoHistory
Fore
SplineSet
70 0 m 1
 510 0 l 2
 966 0 1106 149 1146 530 c 2
 1209 1128 l 2
 1249 1509 1140 1658 684 1658 c 2
 244 1658 l 1
 70 0 l 1
512 284 m 1
 626 1374 l 1
 661 1374 l 2
 796 1374 806 1332 795 1224 c 2
 712 435 l 2
 700 327 682 284 547 284 c 2
 512 284 l 1
EndSplineSet
EndChar

StartChar: Dcroat
Encoding: 264 272 20
Width: 1251
VWidth: 0
Flags: HW
HStem: 0 284<511 511 511 521 521 568 511 749> 1374 284<625 682 682 695 255 749.5>
VStem: 644 424
LayerCount: 2
UndoRedoHistory
Layer: 1
Undoes
EndUndoes
Redoes
EndRedoes
EndUndoRedoHistory
Fore
SplineSet
81 0 m 1
 521 0 l 2
 977 0 1117 149 1157 530 c 2
 1220 1128 l 2
 1260 1509 1151 1658 695 1658 c 2
 255 1658 l 1
 179 936 l 1
 71 936 l 1
 52 756 l 1
 160 756 l 1
 81 0 l 1
511 284 m 1
 560 756 l 1
 653 756 l 1
 672 936 l 1
 579 936 l 1
 625 1374 l 1
 682 1374 l 2
 817 1374 827 1332 816 1224 c 2
 733 435 l 2
 721 327 703 284 568 284 c 2
 511 284 l 1
EndSplineSet
EndChar

StartChar: Delta
Encoding: 265 916 21
Width: 1103
VWidth: 0
Flags: HW
LayerCount: 2
UndoRedoHistory
Layer: 1
Undoes
EndUndoes
Redoes
EndRedoes
EndUndoRedoHistory
Fore
SplineSet
426 243 m 1
 496 537 563 834 630 1131 c 1
 632 834 635 537 642 243 c 1
 426 243 l 1
4 0 m 1
 999 0 l 1
 912 1658 l 1
 462 1658 l 1
 4 0 l 1
EndSplineSet
EndChar

StartChar: E
Encoding: 69 69 22
Width: 945
VWidth: 0
Flags: HW
AnchorPoint: "ogonek" 611 0 basechar 0
LayerCount: 2
UndoRedoHistory
Layer: 1
Undoes
EndUndoes
Redoes
EndRedoes
EndUndoRedoHistory
Fore
SplineSet
70 0 m 1
 855 0 l 1
 884 275 l 1
 511 275 l 1
 559 733 l 1
 833 733 l 1
 863 1019 l 1
 589 1019 l 1
 627 1382 l 1
 996 1382 l 1
 1025 1658 l 1
 244 1658 l 1
 70 0 l 1
EndSplineSet
EndChar

StartChar: Eng
Encoding: 269 330 30
Width: 1190
VWidth: 0
Flags: HW
HStem: -444 237<415 415 415 567 415 727>
LayerCount: 2
UndoRedoHistory
Layer: 1
Undoes
EndUndoes
Redoes
EndRedoes
EndUndoRedoHistory
Fore
SplineSet
390 -444 m 1
 567 -444 l 2
 887 -444 979 -291 1010 0 c 2
 1184 1658 l 1
 843 1658 l 1
 770 962 l 1
 547 1658 l 1
 254 1658 l 1
 80 0 l 1
 434 0 l 1
 515 767 l 1
 709 180 l 1
 685 -48 l 2
 672 -167 590 -210 415 -207 c 1
 390 -444 l 1
EndSplineSet
EndChar

StartChar: Eth
Encoding: 208 208 32
Width: 1185
VWidth: 0
Flags: HW
HStem: 0 284<48 490 490 490 490 525 490 716> 1374 284<604 639 639 662 222 706.5>
VStem: 644 424
LayerCount: 2
UndoRedoHistory
Layer: 1
Undoes
EndUndoes
Redoes
EndRedoes
EndUndoRedoHistory
Fore
SplineSet
48 0 m 1
 488 0 l 2
 944 0 1084 149 1124 530 c 2
 1187 1128 l 2
 1227 1509 1118 1658 662 1658 c 2
 222 1658 l 1
 147 946 l 1
 59 946 l 1
 38 746 l 1
 126 746 l 1
 48 0 l 1
490 284 m 1
 538 746 l 1
 609 746 l 1
 630 946 l 1
 559 946 l 1
 604 1374 l 1
 639 1374 l 2
 774 1374 784 1332 773 1224 c 2
 690 435 l 2
 678 327 660 284 525 284 c 2
 490 284 l 1
EndSplineSet
EndChar

StartChar: Euro
Encoding: 271 8364 33
Width: 1191
VWidth: 0
Flags: HW
HStem: -26 284<574 664 574 782.5> 1400 284<694 784>
VStem: 76 420 684 406
LayerCount: 2
UndoRedoHistory
Layer: 1
Undoes
EndUndoes
Redoes
EndRedoes
EndUndoRedoHistory
Fore
SplineSet
589 -26 m 0
 976 -26 1110 187 1139 462 c 1
 1143 507 l 1
 737 507 l 1
 728 418 l 2
 721 352 709 258 619 258 c 0
 529 258 533 352 540 418 c 2
 565 657 l 1
 781 657 l 1
 793 771 l 1
 577 771 l 1
 587 865 l 1
 803 865 l 1
 815 979 l 1
 599 979 l 1
 626 1241 l 2
 633 1307 649 1400 739 1400 c 0
 829 1400 821 1307 814 1241 c 2
 800 1099 l 1
 1206 1099 l 1
 1217 1205 l 2
 1246 1480 1156 1684 769 1684 c 0
 382 1684 231 1476 195 1129 c 1
 179 979 l 1
 81 979 l 1
 69 865 l 1
 167 865 l 1
 157 771 l 1
 59 771 l 1
 47 657 l 1
 145 657 l 1
 132 529 l 1
 95 182 202 -26 589 -26 c 0
EndSplineSet
EndChar

StartChar: F
Encoding: 70 70 34
Width: 920
VWidth: 0
Flags: HW
LayerCount: 2
UndoRedoHistory
Layer: 1
Undoes
EndUndoes
Redoes
EndRedoes
EndUndoRedoHistory
Fore
SplineSet
70 0 m 1
 482 0 l 1
 558 723 l 1
 860 723 l 1
 890 1009 l 1
 588 1009 l 1
 627 1382 l 1
 960 1382 l 1
 989 1658 l 1
 244 1658 l 1
 70 0 l 1
EndSplineSet
EndChar

StartChar: G
Encoding: 71 71 35
Width: 1224
VWidth: 0
Flags: HW
HStem: -26 285<565 583> 1400 284<674 764>
VStem: 30 424
LayerCount: 2
UndoRedoHistory
Layer: 1
Undoes
EndUndoes
Redoes
EndRedoes
EndUndoRedoHistory
Fore
SplineSet
513 -26 m 0
 653 -26 736 36 786 118 c 1
 793 0 l 1
 1069 0 l 1
 1161 875 l 1
 660 875 l 1
 635 640 l 1
 765 640 l 1
 742 419 l 2
 735 353 700 259 610 259 c 0
 520 259 511 353 518 419 c 2
 604 1241 l 2
 611 1307 629 1400 719 1400 c 0
 809 1400 800 1307 793 1241 c 2
 776 1077 l 1
 1182 1077 l 1
 1195 1198 l 2
 1224 1473 1131 1684 744 1684 c 0
 357 1684 203 1456 167 1109 c 2
 108 550 l 2
 73 215 158 -26 513 -26 c 0
EndSplineSet
EndChar

StartChar: H
Encoding: 72 72 40
Width: 1283
VWidth: 0
Flags: HW
LayerCount: 2
UndoRedoHistory
Layer: 1
Undoes
EndUndoes
Redoes
EndRedoes
EndUndoRedoHistory
Fore
SplineSet
80 0 m 5
 492 0 l 5
 567 709 l 5
 766 709 l 5
 691 0 l 5
 1103 0 l 5
 1277 1658 l 5
 865 1658 l 5
 797 1004 l 5
 598 1004 l 5
 666 1658 l 5
 254 1658 l 5
 80 0 l 5
EndSplineSet
EndChar

StartChar: Hbar
Encoding: 276 294 41
Width: 1092
VWidth: 0
Flags: HW
LayerCount: 2
UndoRedoHistory
Layer: 1
Undoes
EndUndoes
Redoes
EndRedoes
EndUndoRedoHistory
Fore
SplineSet
528 1004 m 1
 554 1257 l 1
 733 1257 l 1
 707 1004 l 1
 528 1004 l 1
10 0 m 1
 422 0 l 1
 497 709 l 1
 676 709 l 1
 601 0 l 1
 1013 0 l 1
 1145 1257 l 1
 1220 1257 l 1
 1231 1369 l 1
 1157 1369 l 1
 1187 1658 l 1
 775 1658 l 1
 745 1369 l 1
 566 1369 l 1
 596 1658 l 1
 184 1658 l 1
 154 1369 l 1
 48 1369 l 1
 37 1257 l 1
 142 1257 l 1
 10 0 l 1
EndSplineSet
EndChar

StartChar: I
Encoding: 73 73 43
Width: 652
VWidth: 0
Flags: HW
VStem: 48 412
AnchorPoint: "ogonek" 290 0 basechar 0
LayerCount: 2
UndoRedoHistory
Layer: 1
Undoes
EndUndoes
Redoes
EndRedoes
EndUndoRedoHistory
Fore
SplineSet
70 0 m 1
 482 0 l 1
 656 1658 l 1
 244 1658 l 1
 70 0 l 1
EndSplineSet
EndChar

StartChar: IJ
Encoding: 278 306 44
Width: 1269
VWidth: 0
Flags: HW
HStem: -44 286<570 570 570 741 570 894>
LayerCount: 2
UndoRedoHistory
Layer: 1
Undoes
EndUndoes
Redoes
EndRedoes
EndUndoRedoHistory
Fore
SplineSet
48 0 m 1
 460 0 l 1
 634 1658 l 1
 222 1658 l 1
 48 0 l 1
540 -44 m 1
 741 -44 l 2
 1047 -44 1145 95 1180 362 c 1
 1316 1658 l 1
 904 1658 l 1
 770 381 l 2
 758 262 702 239 570 242 c 1
 540 -44 l 1
EndSplineSet
EndChar

StartChar: J
Encoding: 74 74 54
Width: 748
VWidth: 0
Flags: HW
HStem: -44 286<6 6 6 177 6 330>
LayerCount: 2
UndoRedoHistory
Layer: 1
Undoes
EndUndoes
Redoes
EndRedoes
EndUndoRedoHistory
Fore
SplineSet
-24 -44 m 1
 177 -44 l 2
 483 -44 581 95 616 362 c 1
 752 1658 l 1
 340 1658 l 1
 206 381 l 2
 194 262 138 239 6 242 c 1
 -24 -44 l 1
EndSplineSet
EndChar

StartChar: K
Encoding: 75 75 56
Width: 1213
VWidth: 0
Flags: HW
LayerCount: 2
UndoRedoHistory
Layer: 1
Undoes
EndUndoes
Redoes
EndRedoes
EndUndoRedoHistory
Fore
SplineSet
70 0 m 1
 482 0 l 1
 555 693 l 1
 576 714 l 1
 712 0 l 1
 1137 0 l 1
 930 904 l 1
 1309 1658 l 1
 903 1658 l 1
 589 1017 l 1
 656 1658 l 1
 244 1658 l 1
 70 0 l 1
EndSplineSet
EndChar

StartChar: L
Encoding: 76 76 58
Width: 939
VWidth: 0
Flags: W
LayerCount: 2
UndoRedoHistory
Layer: 1
Undoes
EndUndoes
Redoes
EndRedoes
EndUndoRedoHistory
Fore
SplineSet
70 0 m 1
 849 0 l 1
 878 275 l 1
 511 275 l 1
 656 1658 l 1
 244 1658 l 1
 70 0 l 1
EndSplineSet
EndChar

StartChar: Lslash
Encoding: 290 321 63
Width: 960
VWidth: 0
Flags: HW
LayerCount: 2
UndoRedoHistory
Layer: 1
Undoes
EndUndoes
Redoes
EndRedoes
EndUndoRedoHistory
Fore
SplineSet
92 0 m 1
 871 0 l 1
 900 275 l 1
 533 275 l 1
 599 907 l 1
 807 997 l 1
 829 1205 l 1
 621 1115 l 1
 678 1658 l 1
 266 1658 l 1
 190 929 l 1
 68 876 l 1
 46 668 l 1
 168 721 l 1
 92 0 l 1
EndSplineSet
EndChar

StartChar: M
Encoding: 77 77 64
Width: 1472
VWidth: 0
Flags: HW
VStem: 36 290 63 291 962 291 994 286
LayerCount: 2
UndoRedoHistory
Layer: 1
Undoes
EndUndoes
Redoes
EndRedoes
EndUndoRedoHistory
Fore
SplineSet
64 0 m 1
 354 0 l 1
 496 1081 l 1
 561 0 l 1
 825 0 l 1
 1103 1071 l 1
 1022 0 l 1
 1308 0 l 1
 1455 1658 l 1
 1023 1658 l 1
 773 824 l 1
 715 1658 l 1
 265 1658 l 1
 64 0 l 1
EndSplineSet
EndChar

StartChar: N
Encoding: 78 78 65
Width: 1170
VWidth: 0
Flags: HW
LayerCount: 2
UndoRedoHistory
Layer: 1
Undoes
EndUndoes
Redoes
EndRedoes
EndUndoRedoHistory
Fore
SplineSet
70 0 m 1
 424 0 l 1
 505 767 l 1
 718 0 l 1
 1000 0 l 1
 1174 1658 l 1
 833 1658 l 1
 760 962 l 1
 537 1658 l 1
 244 1658 l 1
 70 0 l 1
EndSplineSet
EndChar

StartChar: O
Encoding: 79 79 70
Width: 1232
VWidth: 0
Flags: HW
HStem: -26 284<546 636 546 754.5> 1400 284<666 756>
VStem: 30 424 638 424
AnchorPoint: "ogonek" 581 0 basechar 0
LayerCount: 2
UndoRedoHistory
Layer: 1
Undoes
EndUndoes
Redoes
EndRedoes
EndUndoRedoHistory
Fore
SplineSet
561 -26 m 0
 948 -26 1100 176 1137 523 c 2
 1201 1135 l 2
 1238 1482 1128 1684 741 1684 c 0
 354 1684 206 1482 169 1135 c 2
 105 523 l 2
 68 176 174 -26 561 -26 c 0
591 258 m 0
 501 258 511 352 518 418 c 2
 604 1241 l 2
 611 1307 621 1400 711 1400 c 0
 801 1400 795 1307 788 1241 c 2
 702 418 l 2
 695 352 681 258 591 258 c 0
EndSplineSet
EndChar

StartChar: OE
Encoding: 294 338 71
Width: 1493
VWidth: 0
Flags: HW
VStem: 30 412
LayerCount: 2
UndoRedoHistory
Layer: 1
Undoes
EndUndoes
Redoes
EndRedoes
EndUndoRedoHistory
Fore
SplineSet
588 280 m 1
 496 279 505 413 513 487 c 2
 583 1150 l 2
 590 1221 611 1359 702 1359 c 2
 799 1359 l 1
 685 280 l 1
 588 280 l 1
559 0 m 2
 1391 0 l 1
 1420 275 l 1
 1096 275 l 1
 1142 713 l 1
 1371 713 l 1
 1401 999 l 1
 1172 999 l 1
 1212 1375 l 1
 1536 1375 l 1
 1564 1650 l 1
 732 1650 l 1
 344 1649 195 1376 160 1046 c 2
 112 591 l 2
 75 242 179 0 559 0 c 2
EndSplineSet
EndChar

StartChar: Oslash
Encoding: 216 216 79
Width: 1192
VWidth: 0
Flags: HW
HStem: -26 284 1400 284
VStem: 30 424 638 424
LayerCount: 2
UndoRedoHistory
Layer: 1
Undoes
EndUndoes
Redoes
EndRedoes
EndUndoRedoHistory
Fore
SplineSet
145 -197 m 1
 1165 1779 l 1
 1090 1814 l 1
 70 -162 l 1
 145 -197 l 1
EndSplineSet
Refer: 70 79 N 1 0 0 1 155 0 2
EndChar

StartChar: P
Encoding: 80 80 81
Width: 1233
VWidth: 0
Flags: HW
VStem: 716 386
LayerCount: 2
UndoRedoHistory
Layer: 1
Undoes
EndUndoes
Redoes
EndRedoes
EndUndoRedoHistory
Fore
SplineSet
584 967 m 1
 626 1370 l 1
 753 1370 l 2
 872 1370 871 1266 862 1179 c 0
 848 1046 830 967 715 967 c 2
 584 967 l 1
70 0 m 1
 482 0 l 1
 554 682 l 1
 690 682 l 2
 959 682 1202 746 1247 1170 c 0
 1280 1484 1149 1658 851 1658 c 2
 244 1658 l 1
 70 0 l 1
EndSplineSet
EndChar

StartChar: Pi
Encoding: 298 928 82
Width: 1289
VWidth: 0
Flags: HW
LayerCount: 2
UndoRedoHistory
Layer: 1
Undoes
EndUndoes
Redoes
EndRedoes
EndUndoRedoHistory
Fore
SplineSet
48 0 m 1
 407 0 l 1
 550 1362 l 1
 925 1362 l 1
 782 0 l 1
 1141 0 l 1
 1315 1658 l 1
 222 1658 l 1
 48 0 l 1
EndSplineSet
EndChar

StartChar: Q
Encoding: 81 81 83
Width: 1232
VWidth: 0
Flags: HW
HStem: -26 284<546 567> 1400 284<666 756>
VStem: 30 424 638 424
LayerCount: 2
UndoRedoHistory
Layer: 1
Undoes
EndUndoes
Redoes
EndRedoes
EndUndoRedoHistory
Fore
SplineSet
591 258 m 0
 501 258 511 352 518 418 c 2
 604 1241 l 2
 611 1307 621 1400 711 1400 c 0
 801 1400 795 1307 788 1241 c 2
 702 418 l 2
 695 352 681 258 591 258 c 0
918 -322 m 1
 1032 -94 l 1
 978 -66 923 -13 876 40 c 1
 1037 126 1113 293 1137 523 c 2
 1201 1135 l 2
 1238 1482 1128 1684 741 1684 c 0
 354 1684 206 1482 169 1135 c 2
 105 523 l 2
 68 176 174 -26 561 -26 c 0
 573 -26 584 -26 594 -25 c 1
 670 -164 837 -290 918 -322 c 1
EndSplineSet
EndChar

StartChar: R
Encoding: 82 82 84
Width: 1286
VWidth: 0
Flags: HW
VStem: 697 399
LayerCount: 2
UndoRedoHistory
Layer: 1
Undoes
EndUndoes
Redoes
EndRedoes
EndUndoRedoHistory
Fore
SplineSet
582 956 m 1
 628 1386 l 1
 756 1386 l 2
 871 1386 900 1301 886 1175 c 1
 874 1053 831 956 690 956 c 2
 582 956 l 1
70 0 m 1
 482 0 l 1
 559 731 l 1
 640 731 l 1
 734 0 l 1
 1166 0 l 1
 1023 793 l 1
 1202 881 1251 1014 1272 1221 c 0
 1310 1580 1079 1658 746 1658 c 2
 244 1658 l 1
 70 0 l 1
EndSplineSet
EndChar

StartChar: S
Encoding: 83 83 88
Width: 1081
VWidth: 0
Flags: HW
HStem: -26 310<500.5 562 500.5 662> 1387 297<634 695>
VStem: -18 404 -18 350 508 409 526 358
AnchorPoint: "cedilla" 470 0 basechar 0
LayerCount: 2
UndoRedoHistory
Layer: 1
Undoes
EndUndoes
Redoes
EndRedoes
EndUndoRedoHistory
Fore
SplineSet
524 -26 m 0
 800 -26 991 166 1016 398 c 0
 1041 634 939 776 805 907 c 2
 725 986 l 2
 651 1058 562 1131 577 1274 c 0
 581 1311 607 1387 661 1387 c 0
 729 1387 720 1307 705 1164 c 1
 1067 1198 l 1
 1084 1358 1093 1684 707 1684 c 0
 405 1684 199 1525 169 1233 c 0
 145 1004 247 889 366 778 c 2
 454 695 l 2
 561 595 619 515 605 379 c 0
 601 347 593 284 531 284 c 0
 470 284 424 330 448 558 c 1
 93 514 l 1
 61 115 202 -26 524 -26 c 0
EndSplineSet
EndChar

StartChar: T
Encoding: 84 84 94
Width: 948
VWidth: 0
Flags: HW
AnchorPoint: "cedilla" 380 0 basechar 0
LayerCount: 2
UndoRedoHistory
Layer: 1
Undoes
EndUndoes
Redoes
EndRedoes
EndUndoRedoHistory
Fore
SplineSet
218 0 m 1
 630 0 l 1
 772 1353 l 1
 1012 1353 l 1
 1044 1658 l 1
 152 1658 l 1
 120 1353 l 1
 360 1353 l 1
 218 0 l 1
EndSplineSet
EndChar

StartChar: Tbar
Encoding: 307 358 95
Width: 948
VWidth: 0
Flags: HW
LayerCount: 2
UndoRedoHistory
Layer: 1
Undoes
EndUndoes
Redoes
EndRedoes
EndUndoRedoHistory
Fore
SplineSet
126 741 m 1
 891 741 l 1
 911 933 l 1
 146 933 l 1
 126 741 l 1
EndSplineSet
Refer: 94 84 S 1 0 0 1 -41 0 2
EndChar

StartChar: Thorn
Encoding: 222 222 98
Width: 1192
VWidth: 0
Flags: HW
VStem: 742 372
LayerCount: 2
UndoRedoHistory
Layer: 1
Undoes
EndUndoes
Redoes
EndRedoes
EndUndoRedoHistory
Fore
SplineSet
540 765 m 1
 581 1148 l 1
 694 1148 l 2
 819 1148 856 1084 843 959 c 0
 829 823 778 765 649 765 c 2
 540 765 l 1
48 0 m 1
 460 0 l 1
 510 479 l 1
 631 480 l 2
 994 483 1173 563 1217 982 c 0
 1253 1326 1090 1436 742 1436 c 2
 611 1436 l 1
 634 1658 l 1
 222 1658 l 1
 48 0 l 1
EndSplineSet
EndChar

StartChar: U
Encoding: 85 85 99
Width: 1235
VWidth: 0
Flags: HW
HStem: -26 293<550 640 550 757.5>
AnchorPoint: "ogonek" 581 0 basechar 0
LayerCount: 2
UndoRedoHistory
Layer: 1
Undoes
EndUndoes
Redoes
EndRedoes
EndUndoRedoHistory
Fore
SplineSet
564 -26 m 0
 951 -26 1091 150 1127 497 c 2
 1249 1658 l 1
 837 1658 l 1
 708 427 l 2
 701 361 685 267 595 267 c 0
 505 267 509 361 516 427 c 2
 645 1658 l 1
 234 1658 l 1
 112 497 l 2
 76 150 177 -26 564 -26 c 0
EndSplineSet
EndChar

StartChar: V
Encoding: 86 86 110
Width: 1092
VWidth: 0
Flags: HW
LayerCount: 2
UndoRedoHistory
Layer: 1
Undoes
EndUndoes
Redoes
EndRedoes
EndUndoRedoHistory
Fore
SplineSet
270 0 m 1
 720 0 l 1
 1174 1658 l 1
 801 1658 l 1
 549 565 l 1
 514 1658 l 1
 169 1658 l 1
 270 0 l 1
EndSplineSet
EndChar

StartChar: W
Encoding: 87 87 111
Width: 1406
VWidth: 0
Flags: HW
LayerCount: 2
UndoRedoHistory
Layer: 1
Undoes
EndUndoes
Redoes
EndRedoes
EndUndoRedoHistory
Fore
SplineSet
174 0 m 1
 548 0 l 1
 745 925 l 1
 758 0 l 1
 1130 0 l 1
 1479 1658 l 1
 1132 1658 l 1
 966 778 l 1
 958 1658 l 1
 688 1658 l 1
 504 769 l 1
 525 1658 l 1
 175 1658 l 1
 174 0 l 1
EndSplineSet
EndChar

StartChar: X
Encoding: 88 88 116
Width: 1077
VWidth: 0
Flags: HW
LayerCount: 2
UndoRedoHistory
Layer: 1
Undoes
EndUndoes
Redoes
EndRedoes
EndUndoRedoHistory
Fore
SplineSet
-41 0 m 1
 292 0 l 1
 501 451 l 1
 632 0 l 1
 1018 0 l 1
 794 779 l 1
 1156 1658 l 1
 819 1658 l 1
 658 1255 l 1
 542 1658 l 1
 150 1658 l 1
 370 903 l 1
 -41 0 l 1
EndSplineSet
EndChar

StartChar: Y
Encoding: 89 89 117
AltUni2: 0004ae.ffffffff.0
Width: 1019
VWidth: 0
Flags: HW
LayerCount: 2
UndoRedoHistory
Layer: 1
Undoes
EndUndoes
Redoes
EndRedoes
EndUndoRedoHistory
Fore
SplineSet
264 0 m 1
 660 0 l 1
 735 710 l 1
 1129 1658 l 1
 757 1658 l 1
 608 1227 l 1
 527 1658 l 1
 138 1658 l 1
 339 710 l 1
 264 0 l 1
EndSplineSet
EndChar

StartChar: Z
Encoding: 90 90 122
Width: 896
VWidth: 0
Flags: HW
LayerCount: 2
UndoRedoHistory
Layer: 1
Undoes
EndUndoes
Redoes
EndRedoes
EndUndoRedoHistory
Fore
SplineSet
5 0 m 1
 786 0 l 1
 815 275 l 1
 431 275 l 1
 930 1417 l 1
 955 1658 l 1
 191 1658 l 1
 162 1382 l 1
 526 1382 l 1
 30 239 l 1
 5 0 l 1
EndSplineSet
EndChar

StartChar: a
Encoding: 97 97 126
Width: 1011
VWidth: 0
Flags: HW
HStem: -22 239<208.5 473> 930 276<502.199 744.5>
VStem: 558 329<0 164>
AnchorPoint: "ogonek" 722 0 basechar 0
LayerCount: 2
UndoRedoHistory
Layer: 1
Undoes
EndUndoes
Redoes
EndRedoes
EndUndoRedoHistory
Fore
SplineSet
460 217 m 0
 413 217 375 261 383 335 c 0
 391 405 458 531 574 583 c 1
 540 261 l 1
 515 231 486 217 460 217 c 0
306 -22 m 1
 426 -22 509 64 548 164 c 1
 558 0 l 1
 887 0 l 1
 886 52 881 138 897 298 c 2
 956 856 l 2
 977 1052 865 1206 624 1206 c 0
 351 1206 189 1084 139 815 c 1
 132 779 l 1
 473 765 l 1
 494 861 l 2
 501 897 514 930 558 930 c 0
 598 930 607 896 603 861 c 2
 590 731 l 1
 419 663 80 593 46 271 c 0
 32 133 111 -18 306 -22 c 1
EndSplineSet
EndChar

StartChar: acute
Encoding: 180 180 130
Width: 650
VWidth: 0
Flags: HW
HStem: 1243 415<360 432 432 432>
LayerCount: 2
UndoRedoHistory
Layer: 1
Undoes
EndUndoes
Redoes
EndRedoes
EndUndoRedoHistory
Fore
SplineSet
189 1243 m 1
 432 1243 l 1
 743 1658 l 1
 360 1658 l 1
 189 1243 l 1
EndSplineSet
EndChar

StartChar: acutecomb
Encoding: 327 769 131
Width: 650
VWidth: 0
Flags: HW
HStem: 1243 415<360 432 432 432>
LayerCount: 2
UndoRedoHistory
Layer: 1
Undoes
EndUndoes
Redoes
EndRedoes
EndUndoRedoHistory
Fore
SplineSet
189 1243 m 1
 432 1243 l 1
 743 1658 l 1
 360 1658 l 1
 189 1243 l 1
EndSplineSet
EndChar

StartChar: ae
Encoding: 230 230 133
Width: 1375
VWidth: 0
Flags: HW
HStem: -27 245<240 444.5> 603 161<890 906> 1016 229<993 1027.5>
VStem: 0 318 479 347 964 303
LayerCount: 2
UndoRedoHistory
Layer: 1
Undoes
EndUndoes
Redoes
EndRedoes
EndUndoRedoHistory
Fore
SplineSet
906 764 m 1
 921 902 l 2
 928 973 974 1016 1012 1016 c 0
 1043 1016 1068 987 1061 921 c 0
 1055 868 1038 831 1011 807 c 0
 984 783 948 770 906 764 c 1
421 218 m 0
 357 218 348 289 351 318 c 0
 355 351 381 459 479 520 c 0
 496 531 516 540 537 547 c 1
 515 317 l 2
 506 231 468 218 421 218 c 0
328 -27 m 0
 441 -27 586 25 646 135 c 1
 664 22 810 -27 905 -27 c 0
 1123 -26 1260 92 1282 302 c 2
 1294 414 l 1
 957 414 l 1
 949 345 l 2
 942 277 943 232 897 232 c 0
 857 232 855 266 863 346 c 2
 890 603 l 1
 925 609 961 616 996 625 c 0
 1174 667 1346 749 1367 949 c 0
 1380 1079 1283 1245 1042 1245 c 0
 913 1245 794 1176 752 1084 c 1
 739 1174 650 1246 520 1246 c 0
 250 1246 111 1078 87 787 c 1
 445 787 l 1
 458 913 491 926 520 926 c 0
 549 926 575 914 568 844 c 2
 552 699 l 1
 506 691 451 683 395 670 c 0
 232 631 57 547 30 283 c 1
 7 71 152 -27 328 -27 c 0
EndSplineSet
EndChar

StartChar: afii00208
Encoding: 328 8213 134
Width: 4096
VWidth: 0
Flags: HW
HStem: 713 249<53 4119 4119 4119>
LayerCount: 2
UndoRedoHistory
Layer: 1
Undoes
EndUndoes
Redoes
EndRedoes
EndUndoRedoHistory
Fore
SplineSet
27 713 m 1
 4119 713 l 1
 4145 962 l 1
 53 962 l 1
 27 713 l 1
EndSplineSet
EndChar

StartChar: afii10018
Encoding: 330 1041 136
Width: 1175
VWidth: 0
Flags: HW
VStem: 633 380
LayerCount: 2
UndoRedoHistory
Layer: 1
Undoes
EndUndoes
Redoes
EndRedoes
EndUndoRedoHistory
Fore
SplineSet
520 267 m 1
 563 671 l 1
 601 671 l 2
 720 671 731 574 726 487 c 0
 718 354 677 267 562 267 c 2
 520 267 l 1
80 0 m 1
 531 0 l 2
 800 0 1061 54 1105 478 c 0
 1138 792 978 954 680 954 c 2
 592 954 l 1
 633 1342 l 1
 1081 1342 l 1
 1115 1658 l 1
 254 1658 l 1
 80 0 l 1
EndSplineSet
EndChar

StartChar: afii10019
Encoding: 331 1042 137
Width: 1253
VWidth: 0
Flags: HW
HStem: 0 287<522 522 522 574 522 614 522 777> 742 262<598 598 598 625 625 650 598 699> 1388 270<638 705 254 707 254 758.5>
VStem: 695 360 711 398
LayerCount: 2
UndoRedoHistory
Layer: 1
Undoes
EndUndoes
Redoes
EndRedoes
EndUndoRedoHistory
Fore
SplineSet
598 1004 m 1
 638 1388 l 1
 707 1388 l 2
 810 1388 864 1302 854 1206 c 0
 841 1086 805 1004 650 1004 c 2
 598 1004 l 1
522 287 m 1
 570 742 l 1
 625 742 l 2
 773 742 815 684 796 506 c 0
 781 365 723 287 574 287 c 2
 522 287 l 1
80 0 m 1
 614 0 l 2
 940 0 1161 136 1193 499 c 0
 1214 733 1124 874 938 890 c 1
 1086 920 1189 1019 1215 1217 c 0
 1267 1615 983 1658 705 1658 c 2
 254 1658 l 1
 80 0 l 1
EndSplineSet
EndChar

StartChar: afii10020
Encoding: 332 1043 138
Width: 1002
VWidth: 0
Flags: HW
LayerCount: 2
UndoRedoHistory
Layer: 1
Undoes
EndUndoes
Redoes
EndRedoes
EndUndoRedoHistory
Fore
SplineSet
80 0 m 1
 492 0 l 1
 634 1353 l 1
 1034 1353 l 1
 1066 1658 l 1
 254 1658 l 1
 80 0 l 1
EndSplineSet
EndChar

StartChar: afii10021
Encoding: 333 1044 139
Width: 1465
VWidth: 0
Flags: HW
HStem: -20 20<290 1098 1098 1098>
VStem: -36 279 1264 303
LayerCount: 2
UndoRedoHistory
Layer: 1
Undoes
EndUndoes
Redoes
EndRedoes
EndUndoRedoHistory
Fore
SplineSet
449 294 m 1
 558 380 683 480 777 1018 c 1
 836 1369 l 1
 949 1369 l 1
 836 294 l 1
 449 294 l 1
-49 -378 m 1
 230 -378 l 1
 290 0 l 1
 1098 0 l 1
 1078 -378 l 1
 1341 -378 l 1
 1412 294 l 1
 1214 294 l 1
 1357 1658 l 1
 562 1658 l 1
 447 1048 l 2
 354 554 232 328 60 294 c 1
 22 294 l 1
 -49 -378 l 1
EndSplineSet
EndChar

StartChar: afii10024
Encoding: 336 1046 142
Width: 1710
VWidth: 0
Flags: HW
LayerCount: 2
UndoRedoHistory
Layer: 1
Undoes
EndUndoes
Redoes
EndRedoes
EndUndoRedoHistory
Fore
SplineSet
-37 0 m 1
 325 0 l 1
 709 797 l 1
 729 797 l 1
 645 0 l 1
 965 0 l 1
 1049 797 l 1
 1069 797 l 1
 1285 0 l 1
 1647 0 l 1
 1397 829 l 1
 1822 1658 l 1
 1441 1658 l 1
 1079 891 l 1
 1059 891 l 1
 1139 1658 l 1
 819 1658 l 1
 739 891 l 1
 719 891 l 1
 517 1658 l 1
 136 1658 l 1
 387 829 l 1
 -37 0 l 1
EndSplineSet
EndChar

StartChar: afii10025
Encoding: 337 1047 143
Width: 1108
VWidth: 0
Flags: HW
HStem: -35 324<514.5 586 514.5 683> 718 240<444 520 520 539 444 588> 1382 306<613.5 685>
VStem: 35 384 601 378
LayerCount: 2
UndoRedoHistory
Layer: 1
Undoes
EndUndoes
Redoes
EndRedoes
EndUndoRedoHistory
Fore
SplineSet
511 -35 m 0
 855 -35 1004 187 1036 494 c 0
 1061 735 983 824 884 865 c 1
 990 891 1093 1038 1113 1230 c 0
 1145 1536 978 1688 685 1688 c 0
 399 1688 188 1521 155 1211 c 2
 143 1095 l 1
 527 1095 l 1
 538 1200 l 2
 550 1309 578 1382 649 1382 c 0
 721 1382 745 1322 732 1200 c 0
 715 1037 681 958 539 958 c 2
 444 958 l 1
 418 718 l 1
 520 718 l 2
 656 718 674 643 657 481 c 0
 642 343 621 289 551 289 c 0
 478 289 460 339 478 511 c 2
 485 577 l 1
 101 577 l 1
 94 518 l 1
 60 192 136 -35 511 -35 c 0
EndSplineSet
EndChar

StartChar: afii10026
Encoding: 338 1048 144
Width: 1239
VWidth: 0
Flags: HW
LayerCount: 2
UndoRedoHistory
Layer: 1
Undoes
EndUndoes
Redoes
EndRedoes
EndUndoRedoHistory
Fore
SplineSet
80 0 m 1
 318 0 l 1
 830 900 l 1
 735 0 l 1
 1059 0 l 1
 1233 1658 l 1
 972 1658 l 1
 478 774 l 1
 571 1658 l 1
 254 1658 l 1
 80 0 l 1
EndSplineSet
EndChar

StartChar: afii10028
Encoding: 340 1050 146
Width: 1218
VWidth: 0
Flags: HW
LayerCount: 2
UndoRedoHistory
Layer: 1
Undoes
EndUndoes
Redoes
EndRedoes
EndUndoRedoHistory
Fore
SplineSet
80 0 m 1
 492 0 l 1
 565 694 l 1
 584 694 l 1
 722 0 l 1
 1147 0 l 1
 945 883 l 1
 1319 1658 l 1
 913 1658 l 1
 619 1027 l 1
 600 1027 l 1
 666 1658 l 1
 254 1658 l 1
 80 0 l 1
EndSplineSet
EndChar

StartChar: afii10029
Encoding: 341 1051 147
Width: 1396
VWidth: 0
Flags: HW
LayerCount: 2
UndoRedoHistory
Layer: 1
Undoes
EndUndoes
Redoes
EndRedoes
EndUndoRedoHistory
Fore
SplineSet
-31 0 m 1
 592 -30 595 138 722 874 c 2
 803 1342 l 1
 945 1342 l 1
 804 0 l 1
 1216 0 l 1
 1390 1658 l 1
 461 1658 l 1
 336 968 l 2
 220 333 253 286 -1 286 c 1
 -31 0 l 1
EndSplineSet
EndChar

StartChar: afii10030
Encoding: 342 1052 148
Width: 1472
VWidth: 0
Flags: HW
VStem: 36 290 63 291 962 291 994 286
LayerCount: 2
UndoRedoHistory
Layer: 1
Undoes
EndUndoes
Redoes
EndRedoes
EndUndoRedoHistory
Fore
SplineSet
64 0 m 1
 354 0 l 1
 496 1081 l 1
 591 0 l 1
 795 0 l 1
 1103 1071 l 1
 1022 0 l 1
 1308 0 l 1
 1455 1658 l 1
 1023 1658 l 1
 773 824 l 1
 715 1658 l 1
 265 1658 l 1
 64 0 l 1
EndSplineSet
EndChar

StartChar: afii10033
Encoding: 345 1055 151
Width: 1261
VWidth: 0
Flags: HW
LayerCount: 2
UndoRedoHistory
Layer: 1
Undoes
EndUndoes
Redoes
EndRedoes
EndUndoRedoHistory
Fore
SplineSet
70 0 m 1
 474 0 l 1
 617 1363 l 1
 830 1363 l 1
 687 0 l 1
 1091 0 l 1
 1265 1658 l 1
 244 1658 l 1
 70 0 l 1
EndSplineSet
EndChar

StartChar: afii10034
Encoding: 346 1056 152
Width: 1226
VWidth: 0
Flags: HW
VStem: 716 386
LayerCount: 2
UndoRedoHistory
Layer: 1
Undoes
EndUndoes
Redoes
EndRedoes
EndUndoRedoHistory
Fore
SplineSet
584 967 m 1
 626 1370 l 1
 753 1370 l 2
 872 1370 871 1266 862 1179 c 0
 848 1046 830 967 715 967 c 2
 584 967 l 1
70 0 m 1
 482 0 l 1
 554 682 l 1
 690 682 l 2
 959 682 1202 746 1247 1170 c 0
 1280 1484 1149 1658 851 1658 c 2
 244 1658 l 1
 70 0 l 1
EndSplineSet
EndChar

StartChar: afii10037
Encoding: 349 1059 155
Width: 1205
VWidth: 0
Flags: HW
LayerCount: 2
UndoRedoHistory
Layer: 1
Undoes
EndUndoes
Redoes
EndRedoes
EndUndoRedoHistory
Fore
SplineSet
22 -353 m 1
 462 -353 650 -296 781 92 c 2
 1306 1658 l 1
 919 1658 l 1
 731 989 l 1
 644 569 l 1
 627 987 l 1
 552 1658 l 1
 172 1658 l 1
 402 162 l 2
 433 -39 265 -90 50 -90 c 1
 22 -353 l 1
EndSplineSet
EndChar

StartChar: afii10038
Encoding: 350 1060 156
Width: 1621
VWidth: 0
Flags: HW
HStem: 178 258<598 649> 1229 243
VStem: 30 360
LayerCount: 2
UndoRedoHistory
Layer: 1
Undoes
EndUndoes
Redoes
EndRedoes
EndUndoRedoHistory
Fore
SplineSet
998 435 m 0
 987 435 976 436 964 437 c 1
 1050 1253 l 1
 1060 1253 1070 1253 1079 1253 c 0
 1194 1246 1238 1159 1232 1107 c 2
 1175 565 l 2
 1169 509 1106 436 998 435 c 0
618 434 m 0
 503 435 459 514 464 566 c 2
 521 1108 l 2
 527 1161 589 1248 700 1253 c 0
 711 1254 723 1253 735 1252 c 1
 649 436 l 1
 638 435 628 434 618 434 c 0
597 -55 m 1
 912 -55 l 1
 937 180 l 1
 977 178 l 1
 1272 154 1513 349 1536 571 c 2
 1592 1101 l 2
 1615 1323 1416 1519 1099 1495 c 1
 1075 1494 l 1
 1101 1738 l 1
 786 1738 l 1
 760 1493 l 1
 720 1495 l 1
 426 1519 184 1324 161 1102 c 2
 105 572 l 2
 82 350 280 154 598 178 c 1
 622 179 l 1
 597 -55 l 1
EndSplineSet
EndChar

StartChar: afii10040
Encoding: 352 1062 158
Width: 1448
VWidth: 0
Flags: HW
VStem: 1036 298
LayerCount: 2
UndoRedoHistory
Layer: 1
Undoes
EndUndoes
Redoes
EndRedoes
EndUndoRedoHistory
Fore
SplineSet
1028 -378 m 1
 1326 -378 l 1
 1395 275 l 1
 1146 275 l 1
 1291 1658 l 1
 879 1658 l 1
 734 275 l 1
 521 275 l 1
 666 1658 l 1
 254 1658 l 1
 80 0 l 1
 1010 0 l 1
 1028 -378 l 1
EndSplineSet
EndChar

StartChar: afii10041
Encoding: 353 1063 159
Width: 1289
VWidth: 0
Flags: HW
HStem: 684 250
LayerCount: 2
UndoRedoHistory
Layer: 1
Undoes
EndUndoes
Redoes
EndRedoes
EndUndoRedoHistory
Fore
SplineSet
697 0 m 1
 1109 0 l 1
 1283 1658 l 1
 871 1658 l 1
 791 897 l 1
 770 895 749 894 728 894 c 0
 544 894 550 966 558 1051 c 2
 622 1658 l 1
 210 1658 l 1
 146 1050 l 2
 119 790 344 644 593 644 c 0
 632 644 697 647 766 654 c 1
 697 0 l 1
EndSplineSet
EndChar

StartChar: afii10042
Encoding: 354 1064 160
Width: 1743
VWidth: 0
Flags: HW
LayerCount: 2
UndoRedoHistory
Layer: 1
Undoes
EndUndoes
Redoes
EndRedoes
EndUndoRedoHistory
Fore
SplineSet
80 0 m 1
 1563 0 l 1
 1737 1658 l 1
 1354 1658 l 1
 1211 294 l 1
 1046 294 l 1
 1189 1658 l 1
 806 1658 l 1
 663 294 l 1
 495 294 l 1
 638 1658 l 1
 254 1658 l 1
 80 0 l 1
EndSplineSet
EndChar

StartChar: afii10043
Encoding: 355 1065 161
Width: 1965
VWidth: 0
Flags: HW
VStem: 1553 298
LayerCount: 2
UndoRedoHistory
Layer: 1
Undoes
EndUndoes
Redoes
EndRedoes
EndUndoRedoHistory
Fore
SplineSet
1475 -378 m 1
 1773 -378 l 1
 1842 275 l 1
 1593 275 l 1
 1738 1658 l 1
 1355 1658 l 1
 1209 275 l 1
 1045 275 l 1
 1190 1658 l 1
 806 1658 l 1
 661 275 l 1
 493 275 l 1
 638 1658 l 1
 254 1658 l 1
 80 0 l 1
 1464 0 l 1
 1475 -378 l 1
EndSplineSet
EndChar

StartChar: afii10044
Encoding: 356 1066 162
Width: 1340
VWidth: 0
Flags: HW
VStem: 828 380
LayerCount: 2
UndoRedoHistory
Layer: 1
Undoes
EndUndoes
Redoes
EndRedoes
EndUndoRedoHistory
Fore
SplineSet
663 267 m 1
 706 671 l 1
 762 671 l 2
 881 671 892 574 887 487 c 0
 879 354 838 267 723 267 c 2
 663 267 l 1
223 0 m 1
 692 0 l 2
 961 0 1222 54 1266 478 c 0
 1299 792 1139 954 841 954 c 2
 735 954 l 1
 809 1658 l 1
 88 1658 l 1
 59 1383 l 1
 368 1383 l 1
 223 0 l 1
EndSplineSet
EndChar

StartChar: afii10045
Encoding: 357 1067 163
Width: 1774
VWidth: 0
Flags: HW
VStem: 644 380
LayerCount: 2
UndoRedoHistory
Layer: 1
Undoes
EndUndoes
Redoes
EndRedoes
EndUndoRedoHistory
Fore
SplineSet
1182 0 m 1
 1594 0 l 1
 1768 1658 l 1
 1356 1658 l 1
 1182 0 l 1
520 267 m 1
 563 671 l 1
 602 671 l 2
 721 671 732 574 727 487 c 0
 719 354 678 267 563 267 c 2
 520 267 l 1
80 0 m 1
 532 0 l 2
 801 0 1062 54 1106 478 c 0
 1139 792 979 954 681 954 c 2
 592 954 l 1
 666 1658 l 1
 254 1658 l 1
 80 0 l 1
EndSplineSet
EndChar

StartChar: afii10046
Encoding: 358 1068 164
Width: 1181
VWidth: 0
Flags: HW
VStem: 641 380
LayerCount: 2
UndoRedoHistory
Layer: 1
Undoes
EndUndoes
Redoes
EndRedoes
EndUndoRedoHistory
Fore
SplineSet
520 267 m 1
 563 671 l 1
 599 671 l 2
 718 671 729 574 724 487 c 0
 716 354 675 267 560 267 c 2
 520 267 l 1
80 0 m 1
 529 0 l 2
 798 0 1059 54 1103 478 c 0
 1136 792 976 954 678 954 c 2
 592 954 l 1
 666 1658 l 1
 254 1658 l 1
 80 0 l 1
EndSplineSet
EndChar

StartChar: afii10047
Encoding: 359 1069 165
Width: 1216
VWidth: 0
Flags: HW
HStem: -27 284<532 622 532 740.5> 1399 284<652 742>
VStem: 43 406 637 420
LayerCount: 2
UndoRedoHistory
Layer: 1
Undoes
EndUndoes
Redoes
EndRedoes
EndUndoRedoHistory
Fore
SplineSet
547 -27 m 0
 934 -27 1085 181 1121 528 c 1
 1185 1128 l 1
 1221 1475 1114 1683 727 1683 c 0
 340 1683 207 1470 178 1195 c 2
 169 1111 l 1
 575 1111 l 1
 588 1239 l 2
 595 1305 607 1399 697 1399 c 0
 787 1399 783 1305 776 1239 c 2
 742 914 l 1
 471 914 l 1
 451 720 l 1
 722 720 l 1
 690 416 l 2
 683 350 667 257 577 257 c 0
 487 257 495 350 502 416 c 2
 515 541 l 1
 109 541 l 1
 100 452 l 1
 71 177 160 -27 547 -27 c 0
EndSplineSet
EndChar

StartChar: afii10048
Encoding: 360 1070 166
Width: 1764
VWidth: 0
Flags: HW
HStem: -26 284<1124.5 1209.5 1124.5 1320> 1400 284<1244.5 1329.5>
VStem: 635 388 1193 389
LayerCount: 2
UndoRedoHistory
Layer: 1
Undoes
EndUndoes
Redoes
EndRedoes
EndUndoRedoHistory
Fore
SplineSet
1167 258 m 0
 1082 258 1092 352 1099 418 c 2
 1185 1241 l 2
 1192 1307 1202 1400 1287 1400 c 0
 1372 1400 1362 1307 1355 1241 c 2
 1269 418 l 2
 1262 352 1252 258 1167 258 c 0
1137 -26 m 0
 1503 -26 1635 202 1672 549 c 2
 1731 1109 l 2
 1767 1456 1683 1684 1317 1684 c 0
 952 1684 820 1456 784 1109 c 2
 771 987 l 1
 596 987 l 1
 666 1658 l 1
 254 1658 l 1
 80 0 l 1
 492 0 l 1
 564 685 l 1
 739 685 l 1
 725 549 l 1
 688 202 772 -26 1137 -26 c 0
EndSplineSet
EndChar

StartChar: afii10049
Encoding: 361 1071 167
Width: 1283
VWidth: 0
Flags: HW
HStem: 1378 280<790 817 817 836 836 836>
VStem: -7 381
LayerCount: 2
UndoRedoHistory
Layer: 1
Undoes
EndUndoes
Redoes
EndRedoes
EndUndoRedoHistory
Fore
SplineSet
747 935 m 2
 592 935 559 1040 570 1146 c 0
 586 1295 661 1378 790 1378 c 2
 836 1378 l 1
 789 935 l 1
 747 935 l 2
-32 0 m 1
 410 0 l 1
 705 644 l 1
 717 644 l 1
 759 644 l 1
 691 0 l 1
 1103 0 l 1
 1277 1658 l 1
 817 1658 l 2
 478 1658 234 1574 190 1150 c 0
 171 967 237 813 348 735 c 1
 -32 0 l 1
EndSplineSet
EndChar

StartChar: afii10051
Encoding: 362 1026 168
Width: 1346
VWidth: 0
Flags: HW
HStem: -406 224
LayerCount: 2
UndoRedoHistory
Layer: 1
Undoes
EndUndoes
Redoes
EndRedoes
EndUndoRedoHistory
Fore
SplineSet
662 0 m 1
 753 0 l 2
 1113 0 1229 102 1259 394 c 1
 1295 733 l 2
 1313 902 1162 1017 971 1017 c 0
 872 1017 763 987 660 918 c 1
 708 1374 l 1
 1003 1374 l 1
 1033 1658 l 1
 95 1658 l 1
 65 1374 l 1
 301 1374 l 1
 157 0 l 1
 564 0 l 1
 640 720 l 1
 715 771 773 790 815 790 c 0
 895 790 922 725 918 686 c 2
 888 396 l 2
 873 255 800 224 686 224 c 1
 662 0 l 1
EndSplineSet
EndChar

StartChar: afii10053
Encoding: 364 1028 170
Width: 1169
VWidth: 0
Flags: HW
HStem: -26 284<548 638 548 756.5> 1400 284<668 758>
VStem: 28 420 636 406
LayerCount: 2
UndoRedoHistory
Layer: 1
Undoes
EndUndoes
Redoes
EndRedoes
EndUndoRedoHistory
Fore
SplineSet
563 -26 m 0
 950 -26 1084 187 1113 462 c 2
 1122 548 l 1
 716 548 l 1
 702 418 l 2
 695 352 683 258 593 258 c 0
 503 258 507 352 514 418 c 2
 546 723 l 1
 760 723 l 1
 782 932 l 1
 568 932 l 1
 600 1241 l 2
 607 1307 623 1400 713 1400 c 0
 803 1400 795 1307 788 1241 c 2
 773 1092 l 1
 1179 1092 l 1
 1191 1205 l 2
 1220 1480 1130 1684 743 1684 c 0
 356 1684 205 1476 169 1129 c 2
 106 529 l 2
 69 182 176 -26 563 -26 c 0
EndSplineSet
EndChar

StartChar: afii10055
Encoding: 366 1030 172
Width: 588
VWidth: 0
Flags: HW
VStem: 48 412<0 0>
LayerCount: 2
UndoRedoHistory
Layer: 1
Undoes
EndUndoes
Redoes
EndRedoes
EndUndoRedoHistory
Fore
SplineSet
48 0 m 1
 460 0 l 1
 634 1658 l 1
 222 1658 l 1
 48 0 l 1
EndSplineSet
EndChar

StartChar: afii10057
Encoding: 368 1032 174
Width: 681
VWidth: 0
Flags: HW
HStem: -44 286<-18 -18 -18 153 -18 306>
LayerCount: 2
UndoRedoHistory
Layer: 1
Undoes
EndUndoes
Redoes
EndRedoes
EndUndoRedoHistory
Fore
SplineSet
-48 -44 m 1
 153 -44 l 2
 459 -44 557 95 592 362 c 1
 728 1658 l 1
 316 1658 l 1
 182 381 l 2
 170 262 114 239 -18 242 c 1
 -48 -44 l 1
EndSplineSet
EndChar

StartChar: afii10058
Encoding: 369 1033 175
Width: 1855
VWidth: 0
Flags: HW
HStem: 0 286<-1 85 -1 128 -1 288>
VStem: 1333 380
LayerCount: 2
UndoRedoHistory
Layer: 1
Undoes
EndUndoes
Redoes
EndRedoes
EndUndoRedoHistory
Fore
SplineSet
1243 267 m 1
 1286 671 l 1
 1316 671 l 2
 1435 671 1446 574 1441 487 c 0
 1433 354 1392 267 1277 267 c 2
 1243 267 l 1
-31 0 m 1
 128 0 l 2
 448 0 587 94 663 536 c 2
 802 1342 l 1
 944 1342 l 1
 803 0 l 1
 1246 0 l 2
 1515 0 1776 54 1820 478 c 0
 1853 792 1693 954 1395 954 c 2
 1315 954 l 1
 1389 1658 l 1
 460 1658 l 1
 260 545 l 2
 217 304 171 286 -1 286 c 1
 -31 0 l 1
EndSplineSet
EndChar

StartChar: afii10059
Encoding: 370 1034 176
Width: 1746
VWidth: 0
Flags: HW
VStem: 1219 380
LayerCount: 2
UndoRedoHistory
Layer: 1
Undoes
EndUndoes
Redoes
EndRedoes
EndUndoRedoHistory
Fore
SplineSet
1112 267 m 1
 1155 671 l 1
 1177 671 l 2
 1296 671 1307 574 1302 487 c 0
 1294 354 1253 267 1138 267 c 2
 1112 267 l 1
1107 0 m 1
 1376 0 1637 54 1681 478 c 0
 1714 792 1554 954 1256 954 c 2
 1184 954 l 1
 1258 1660 l 1
 846 1660 l 1
 776 985 l 1
 596 985 l 1
 666 1660 l 1
 254 1660 l 1
 80 2 l 1
 492 2 l 1
 562 669 l 1
 742 669 l 1
 672 2 l 1
 1107 0 l 1
EndSplineSet
EndChar

StartChar: afii10060
Encoding: 371 1035 177
Width: 1274
VWidth: 0
Flags: HW
LayerCount: 2
UndoRedoHistory
Layer: 1
Undoes
EndUndoes
Redoes
EndRedoes
EndUndoRedoHistory
Fore
SplineSet
186 0 m 1
 598 0 l 1
 677 753 l 1
 714 771 747 778 769 779 c 0
 812 780 823 759 819 719 c 2
 743 0 l 1
 1115 0 l 1
 1194 753 l 2
 1209 896 1128 991 963 991 c 0
 833 991 697 938 697 938 c 1
 740 1353 l 1
 963 1353 l 1
 995 1658 l 1
 140 1658 l 1
 108 1353 l 1
 328 1353 l 1
 186 0 l 1
EndSplineSet
EndChar

StartChar: afii10066
Encoding: 375 1073 181
Width: 1020
VWidth: 0
Flags: HW
HStem: -20 50 1122 50
VStem: 98 64 592 64
LayerCount: 2
UndoRedoHistory
Layer: 1
Undoes
EndUndoes
Redoes
EndRedoes
EndUndoRedoHistory
Fore
SplineSet
493 210 m 0
 419 210 421 252 446 488 c 2
 480 806 l 2
 493 934 517 974 571 974 c 0
 635 974 640 932 627 804 c 2
 594 490 l 2
 568 248 563 210 493 210 c 0
456 -20 m 0
 714 -24 894 57 932 420 c 2
 965 732 l 2
 999 1056 934 1182 694 1182 c 0
 628 1182 545 1161 489 1135 c 1
 496 1191 l 1
 532 1498 636 1345 953 1488 c 1
 983 1768 l 1
 584 1604 219 1723 156 1127 c 1
 88 471 l 2
 56 167 86 -15 456 -20 c 0
EndSplineSet
EndChar

StartChar: afii10067
Encoding: 376 1074 182
Width: 1096
VWidth: 0
Flags: HW
HStem: 0 191<444 444 444 475 475 491 444 665.5> 533 187<500 500 500 526 526 572.5> 1007 177<530 581 581 625 176 637.5>
VStem: 608 363 638 362
LayerCount: 2
UndoRedoHistory
Layer: 1
Undoes
EndUndoes
Redoes
EndRedoes
EndUndoRedoHistory
Fore
SplineSet
500 720 m 1
 530 1007 l 1
 581 1007 l 2
 694 1007 692 936 684 856 c 0
 676 778 653 720 574 720 c 2
 500 720 l 1
444 191 m 1
 480 533 l 1
 526 533 l 2
 619 533 680 533 661 353 c 0
 644 191 580 191 491 191 c 2
 444 191 l 1
52 0 m 1
 475 0 l 2
 856 0 997 100 1022 343 c 0
 1039 502 1006 593 831 642 c 1
 939 667 1032 715 1050 884 c 0
 1069 1068 1023 1184 625 1184 c 2
 176 1184 l 1
 52 0 l 1
EndSplineSet
EndChar

StartChar: afii10068
Encoding: 377 1075 183
Width: 764
VWidth: 0
Flags: HW
VStem: 35 628
LayerCount: 2
UndoRedoHistory
Layer: 1
Undoes
EndUndoes
Redoes
EndRedoes
EndUndoRedoHistory
Fore
SplineSet
52 0 m 1
 424 0 l 1
 523 938 l 1
 779 938 l 1
 804 1184 l 1
 176 1184 l 1
 52 0 l 1
EndSplineSet
EndChar

StartChar: afii10069
Encoding: 378 1076 184
Width: 1321
VWidth: 0
Flags: HW
HStem: -20 20<327 948 948 948>
VStem: -5 269 987 257
LayerCount: 2
UndoRedoHistory
Layer: 1
Undoes
EndUndoes
Redoes
EndRedoes
EndUndoRedoHistory
Fore
SplineSet
472 222 m 1
 562 298 632 424 672 629 c 2
 739 970 l 1
 822 970 l 1
 743 222 l 1
 472 222 l 1
4 -328 m 1
 273 -328 l 1
 327 0 l 1
 948 0 l 1
 937 -328 l 1
 1203 -328 l 1
 1260 222 l 1
 1079 222 l 1
 1180 1184 l 1
 489 1184 l 1
 395 717 l 2
 343 460 251 292 61 222 c 1
 4 -328 l 1
EndSplineSet
EndChar

StartChar: afii10072
Encoding: 381 1078 187
Width: 1408
VWidth: 0
Flags: HW
LayerCount: 2
UndoRedoHistory
Layer: 1
Undoes
EndUndoes
Redoes
EndRedoes
EndUndoRedoHistory
Fore
SplineSet
-34 0 m 1
 268 0 l 1
 524 569 l 1
 549 569 l 1
 489 0 l 1
 801 0 l 1
 861 569 l 1
 885 569 l 1
 1040 0 l 1
 1342 0 l 1
 1172 593 l 1
 1454 1184 l 1
 1135 1184 l 1
 891 625 l 1
 867 625 l 1
 925 1184 l 1
 613 1184 l 1
 555 625 l 1
 530 625 l 1
 421 1184 l 1
 102 1184 l 1
 242 593 l 1
 -34 0 l 1
EndSplineSet
EndChar

StartChar: afii10073
Encoding: 382 1079 188
Width: 975
VWidth: 0
Flags: HW
HStem: -22 252<421.5 507 421.5 584.5> 525 178<411 471.5> 953 253<483.5 565>
VStem: 22 293 558 318 588 296
LayerCount: 2
UndoRedoHistory
Layer: 1
Undoes
EndUndoes
Redoes
EndRedoes
EndUndoRedoHistory
Fore
SplineSet
426 -22 m 0
 743 -22 885 134 905 325 c 0
 923 498 864 570 764 615 c 1
 861 649 939 727 954 868 c 0
 975 1063 868 1206 571 1206 c 0
 217 1206 133 998 113 804 c 1
 402 804 l 1
 413 911 441 953 526 953 c 0
 604 953 620 905 613 836 c 0
 603 738 569 703 411 703 c 1
 392 525 l 1
 551 525 605 475 594 371 c 0
 585 290 550 230 464 230 c 0
 379 230 351 288 363 402 c 1
 70 402 l 1
 49 200 63 -22 426 -22 c 0
EndSplineSet
EndChar

StartChar: afii10074
Encoding: 383 1080 189
Width: 1077
VWidth: 0
Flags: HW
LayerCount: 2
UndoRedoHistory
Layer: 1
Undoes
EndUndoes
Redoes
EndRedoes
EndUndoRedoHistory
Fore
SplineSet
52 0 m 1
 343 0 l 1
 687 567 l 1
 627 0 l 1
 925 0 l 1
 1050 1184 l 1
 761 1184 l 1
 406 604 l 1
 467 1184 l 1
 176 1184 l 1
 52 0 l 1
EndSplineSet
EndChar

StartChar: afii10076
Encoding: 385 1082 191
Width: 1119
VWidth: 0
Flags: HW
LayerCount: 2
UndoRedoHistory
Layer: 1
Undoes
EndUndoes
Redoes
EndRedoes
EndUndoRedoHistory
Fore
SplineSet
52 0 m 1
 424 0 l 1
 478 516 l 1
 524 516 l 1
 652 0 l 1
 1048 0 l 1
 875 630 l 1
 1165 1184 l 1
 759 1184 l 1
 547 729 l 1
 501 729 l 1
 548 1184 l 1
 176 1184 l 1
 52 0 l 1
EndSplineSet
EndChar

StartChar: afii10077
Encoding: 386 1083 192
Width: 1218
VWidth: 0
Flags: HW
HStem: 0 246<-27 -1>
LayerCount: 2
UndoRedoHistory
Layer: 1
Undoes
EndUndoes
Redoes
EndRedoes
EndUndoRedoHistory
Fore
SplineSet
-27 0 m 1
 49 -9 110 -14 167 -14 c 0
 400 -14 513 69 594 487 c 2
 682 938 l 1
 793 938 l 1
 694 0 l 1
 1066 0 l 1
 1190 1184 l 1
 393 1184 l 1
 267 533 l 2
 223 307 195 216 -1 246 c 1
 -27 0 l 1
EndSplineSet
EndChar

StartChar: afii10078
Encoding: 387 1084 193
Width: 1227
VWidth: 0
Flags: HW
LayerCount: 2
UndoRedoHistory
Layer: 1
Undoes
EndUndoes
Redoes
EndRedoes
EndUndoRedoHistory
Fore
SplineSet
52 0 m 1
 338 0 l 1
 401 599 l 1
 532 208 l 1
 640 208 l 1
 852 596 l 1
 789 0 l 1
 1075 0 l 1
 1199 1184 l 1
 923 1184 l 1
 635 672 l 1
 452 1184 l 1
 176 1184 l 1
 52 0 l 1
EndSplineSet
EndChar

StartChar: afii10079
Encoding: 388 1085 194
Width: 1122
VWidth: 0
Flags: HW
LayerCount: 2
UndoRedoHistory
Layer: 1
Undoes
EndUndoes
Redoes
EndRedoes
EndUndoRedoHistory
Fore
SplineSet
52 0 m 1
 424 0 l 1
 475 487 l 1
 649 487 l 1
 598 0 l 1
 970 0 l 1
 1094 1184 l 1
 722 1184 l 1
 676 739 l 1
 502 739 l 1
 548 1184 l 1
 176 1184 l 1
 52 0 l 1
EndSplineSet
EndChar

StartChar: afii10081
Encoding: 390 1087 196
Width: 1095
VWidth: 0
Flags: HW
LayerCount: 2
UndoRedoHistory
Layer: 1
Undoes
EndUndoes
Redoes
EndRedoes
EndUndoRedoHistory
Fore
SplineSet
52 0 m 1
 424 0 l 1
 522 936 l 1
 669 936 l 1
 571 0 l 1
 943 0 l 1
 1067 1184 l 1
 176 1184 l 1
 52 0 l 1
EndSplineSet
EndChar

StartChar: afii10084
Encoding: 393 1090 199
Width: 870
VWidth: 0
Flags: HW
LayerCount: 2
UndoRedoHistory
Layer: 1
Undoes
EndUndoes
Redoes
EndRedoes
EndUndoRedoHistory
Fore
SplineSet
199 0 m 1
 571 0 l 1
 670 938 l 1
 882 938 l 1
 907 1184 l 1
 111 1184 l 1
 86 938 l 1
 298 938 l 1
 199 0 l 1
EndSplineSet
EndChar

StartChar: afii10085
Encoding: 394 1091 200
Width: 1014
VWidth: 0
Flags: HW
HStem: -426 289
LayerCount: 2
UndoRedoHistory
Layer: 1
Undoes
EndUndoes
Redoes
EndRedoes
EndUndoRedoHistory
Fore
SplineSet
41 -406 m 1
 487 -406 509 -337 623 -30 c 2
 1074 1184 l 1
 752 1184 l 1
 631 817 l 1
 509 450 l 1
 459 817 l 1
 409 1184 l 1
 97 1184 l 1
 284 53 l 1
 306 -119 304 -151 33 -151 c 1
 41 -406 l 1
EndSplineSet
EndChar

StartChar: afii10086
Encoding: 395 1092 201
Width: 1489
VWidth: 0
Flags: HW
HStem: -2 211 985 204 990 200
LayerCount: 2
UndoRedoHistory
Layer: 1
Undoes
EndUndoes
Redoes
EndRedoes
EndUndoRedoHistory
Fore
SplineSet
901 212 m 2
 873 212 l 1
 955 985 l 1
 983 985 l 2
 1048 985 1102 914 1091 810 c 2
 1046 376 l 2
 1036 285 960 212 901 212 c 2
525 212 m 2
 456 212 413 285 423 376 c 2
 468 810 l 2
 479 914 542 985 607 985 c 2
 638 985 l 1
 556 212 l 1
 525 212 l 2
498 -340 m 1
 815 -340 l 1
 851 0 l 1
 897 0 l 2
 1063 0 1366 102 1398 408 c 2
 1438 785 l 2
 1467 1066 1229 1184 1018 1184 c 2
 975 1184 l 1
 1025 1657 l 1
 708 1657 l 1
 658 1184 l 1
 620 1184 l 2
 413 1184 146 1066 117 785 c 2
 77 408 l 2
 45 102 321 0 493 0 c 2
 534 0 l 1
 498 -340 l 1
EndSplineSet
EndChar

StartChar: afii10088
Encoding: 397 1094 203
Width: 1219
VWidth: 0
Flags: HW
VStem: 872 260
LayerCount: 2
UndoRedoHistory
Layer: 1
Undoes
EndUndoes
Redoes
EndRedoes
EndUndoRedoHistory
Fore
SplineSet
819 -328 m 1
 1085 -328 l 1
 1142 222 l 1
 961 222 l 1
 1062 1184 l 1
 690 1184 l 1
 589 222 l 1
 446 222 l 1
 547 1184 l 1
 175 1184 l 1
 51 0 l 1
 830 0 l 1
 819 -328 l 1
EndSplineSet
EndChar

StartChar: afii10089
Encoding: 398 1095 204
Width: 1059
VWidth: 0
Flags: HW
HStem: 477 199<319 606>
LayerCount: 2
UndoRedoHistory
Layer: 1
Undoes
EndUndoes
Redoes
EndRedoes
EndUndoRedoHistory
Fore
SplineSet
535 0 m 1
 907 0 l 1
 1031 1184 l 1
 659 1184 l 1
 606 676 l 1
 600 676 593 676 588 676 c 0
 493 680 478 714 487 800 c 2
 527 1184 l 1
 155 1184 l 1
 112 773 l 2
 95 608 144 477 494 477 c 0
 523 477 553 478 586 481 c 1
 535 0 l 1
EndSplineSet
EndChar

StartChar: afii10090
Encoding: 399 1096 205
Width: 1517
VWidth: 0
Flags: HW
LayerCount: 2
UndoRedoHistory
Layer: 1
Undoes
EndUndoes
Redoes
EndRedoes
EndUndoRedoHistory
Fore
SplineSet
52 0 m 1
 1366 0 l 1
 1490 1184 l 1
 1144 1184 l 1
 1046 248 l 1
 908 248 l 1
 1006 1184 l 1
 660 1184 l 1
 562 248 l 1
 424 248 l 1
 522 1184 l 1
 176 1184 l 1
 52 0 l 1
EndSplineSet
EndChar

StartChar: afii10091
Encoding: 400 1097 206
Width: 1666
VWidth: 0
Flags: HW
VStem: 1300 280
LayerCount: 2
UndoRedoHistory
Layer: 1
Undoes
EndUndoes
Redoes
EndRedoes
EndUndoRedoHistory
Fore
SplineSet
1248 -328 m 1
 1514 -328 l 1
 1571 222 l 1
 1390 222 l 1
 1491 1184 l 1
 1142 1184 l 1
 1041 222 l 1
 906 222 l 1
 1007 1184 l 1
 658 1184 l 1
 557 222 l 1
 424 222 l 1
 525 1184 l 1
 176 1184 l 1
 52 0 l 1
 1259 0 l 1
 1248 -328 l 1
EndSplineSet
EndChar

StartChar: afii10092
Encoding: 401 1098 207
Width: 1195
VWidth: 0
Flags: HW
HStem: 0 211<187 581 581 581 581 589 581 752> 493 220<611 638 619 638>
VStem: 748 338
LayerCount: 2
UndoRedoHistory
Layer: 1
Undoes
EndUndoes
Redoes
EndRedoes
EndUndoRedoHistory
Fore
SplineSet
581 211 m 1
 611 493 l 1
 619 493 l 1
 738 491 794 462 781 343 c 0
 771 249 717 214 589 211 c 1
 581 211 l 1
187 0 m 1
 572 0 l 2
 932 0 1094 102 1119 346 c 1
 1149 627 966 713 638 713 c 2
 634 713 l 1
 683 1184 l 1
 93 1184 l 1
 68 938 l 1
 286 938 l 1
 187 0 l 1
EndSplineSet
EndChar

StartChar: afii10093
Encoding: 402 1099 208
Width: 1597
VWidth: 0
Flags: HW
HStem: 0 211<52 447.5 446 447.5 447.5 454 446 617> 493 220<476 503 482.5 503>
VStem: 593 338
LayerCount: 2
UndoRedoHistory
Layer: 1
Undoes
EndUndoes
Redoes
EndRedoes
EndUndoRedoHistory
Fore
SplineSet
1073 0 m 1
 1445 0 l 1
 1569 1184 l 1
 1197 1184 l 1
 1073 0 l 1
446 211 m 1
 476 493 l 1
 479 493 481 493 484 493 c 0
 603 491 659 462 646 343 c 0
 636 249 582 214 454 211 c 0
 451 211 449 211 446 211 c 1
52 0 m 1
 437 0 l 2
 797 0 959 102 984 346 c 1
 1014 627 831 713 503 713 c 2
 499 713 l 1
 548 1184 l 1
 176 1184 l 1
 52 0 l 1
EndSplineSet
EndChar

StartChar: afii10094
Encoding: 403 1100 209
Width: 1060
VWidth: 0
Flags: HW
HStem: 0 211<52 447.5 446 447.5 447.5 454 446 617> 493 220<476 503 482.5 503>
VStem: 584 338
LayerCount: 2
UndoRedoHistory
Layer: 1
Undoes
EndUndoes
Redoes
EndRedoes
EndUndoRedoHistory
Fore
SplineSet
446 211 m 1
 476 493 l 1
 479 493 481 493 484 493 c 0
 603 491 659 462 646 343 c 0
 636 249 582 214 454 211 c 0
 451 211 449 211 446 211 c 1
52 0 m 1
 437 0 l 2
 797 0 959 102 984 346 c 1
 1014 627 831 713 503 713 c 2
 499 713 l 1
 548 1184 l 1
 176 1184 l 1
 52 0 l 1
EndSplineSet
EndChar

StartChar: afii10095
Encoding: 404 1101 210
Width: 1021
VWidth: 0
Flags: HW
HStem: -22 261<471 502 471 584> 943 263<545 576>
VStem: 519 374
LayerCount: 2
UndoRedoHistory
Layer: 1
Undoes
EndUndoes
Redoes
EndRedoes
EndUndoRedoHistory
Fore
SplineSet
460 -22 m 0
 708 -22 905 111 929 347 c 1
 981 835 l 2
 1006 1071 837 1206 589 1206 c 0
 341 1206 151 1090 126 853 c 2
 116 761 l 1
 480 761 l 1
 490 855 l 2
 498 932 529 943 561 943 c 0
 591 943 616 921 608 847 c 2
 588 655 l 1
 321 655 l 1
 305 508 l 1
 572 508 l 1
 554 335 l 2
 546 261 517 239 487 239 c 0
 455 239 426 250 434 327 c 2
 442 399 l 1
 78 399 l 1
 71 329 l 1
 46 92 212 -22 460 -22 c 0
EndSplineSet
EndChar

StartChar: afii10096
Encoding: 405 1102 211
Width: 1525
VWidth: 0
Flags: HW
HStem: -22 263<982 1025.5 982 1093.5> 943 263<1055.5 1099.5>
VStem: 543 352 1029 352
LayerCount: 2
UndoRedoHistory
Layer: 1
Undoes
EndUndoes
Redoes
EndRedoes
EndUndoRedoHistory
Fore
SplineSet
1003 241 m 0
 961 241 940 269 948 343 c 2
 1001 841 l 2
 1008 915 1034 943 1077 943 c 0
 1122 943 1142 918 1134 841 c 2
 1082 343 l 2
 1074 266 1048 241 1003 241 c 0
974 -22 m 0
 1213 -22 1408 94 1435 349 c 2
 1486 835 l 2
 1512 1090 1342 1206 1103 1206 c 0
 865 1206 675 1089 648 835 c 1
 637 727 l 1
 500 727 l 1
 548 1184 l 1
 176 1184 l 1
 52 0 l 1
 424 0 l 1
 473 462 l 1
 609 461 l 1
 597 349 l 2
 570 95 736 -22 974 -22 c 0
EndSplineSet
EndChar

StartChar: afii10097
Encoding: 406 1103 212
Width: 1116
VWidth: 0
Flags: HW
HStem: 973 211<685 694 694 694>
VStem: 3 338
LayerCount: 2
UndoRedoHistory
Layer: 1
Undoes
EndUndoes
Redoes
EndRedoes
EndUndoRedoHistory
Fore
SplineSet
649 628 m 2
 520 628 432 687 445 811 c 0
 456 909 546 973 685 973 c 2
 694 973 l 1
 658 628 l 1
 649 628 l 2
-11 0 m 1
 383 0 l 1
 537 409 l 1
 560 408 635 408 635 408 c 1
 592 0 l 1
 964 0 l 1
 1088 1184 l 1
 575 1184 l 2
 265 1184 128 1012 107 808 c 0
 92 667 127 543 210 486 c 1
 -11 0 l 1
EndSplineSet
EndChar

StartChar: afii10098
Encoding: 407 1169 213
Width: 764
VWidth: 0
Flags: HW
VStem: 35 628
LayerCount: 2
UndoRedoHistory
Layer: 1
Undoes
EndUndoes
Redoes
EndRedoes
EndUndoRedoHistory
Fore
SplineSet
52 0 m 1
 424 0 l 1
 523 938 l 1
 793 938 l 1
 847 1454 l 1
 659 1454 l 1
 630 1184 l 1
 176 1184 l 1
 52 0 l 1
EndSplineSet
EndChar

StartChar: afii10099
Encoding: 408 1106 214
Width: 1083
VWidth: 0
Flags: HW
HStem: -338 172<324 346 346 366 324 557.5>
VStem: 552 372
LayerCount: 2
UndoRedoHistory
Layer: 1
Undoes
EndUndoes
Redoes
EndRedoes
EndUndoRedoHistory
Fore
SplineSet
305 -338 m 1
 346 -338 l 2
 769 -338 933 -246 981 210 c 2
 1018 559 l 2
 1040 775 1015 979 781 979 c 0
 715 979 632 963 529 926 c 1
 557 1196 l 1
 806 1196 l 1
 824 1373 l 1
 576 1373 l 1
 606 1658 l 1
 234 1658 l 1
 204 1373 l 1
 79 1373 l 1
 61 1196 l 1
 186 1196 l 1
 60 0 l 1
 432 0 l 1
 506 706 l 1
 542 722 570 729 592 729 c 0
 647 729 658 680 650 596 c 2
 609 210 l 2
 587 0 563 -166 366 -166 c 2
 324 -166 l 1
 305 -338 l 1
EndSplineSet
EndChar

StartChar: afii10101
Encoding: 410 1108 216
Width: 989
VWidth: 0
Flags: HW
HStem: -22 263<469 500 469 581> 945 261<543 574>
VStem: 28 374
LayerCount: 2
UndoRedoHistory
Layer: 1
Undoes
EndUndoes
Redoes
EndRedoes
EndUndoRedoHistory
Fore
SplineSet
457 -22 m 0
 705 -22 895 94 920 331 c 2
 933 453 l 1
 569 453 l 1
 556 329 l 2
 547 252 516 241 484 241 c 0
 454 241 430 263 437 337 c 1
 458 529 l 1
 725 529 l 1
 740 676 l 1
 473 676 l 1
 491 849 l 2
 499 923 528 945 558 945 c 0
 590 945 619 934 611 857 c 2
 600 755 l 1
 964 755 l 1
 975 855 l 1
 1000 1092 834 1206 586 1206 c 0
 338 1206 141 1073 116 837 c 2
 65 349 l 2
 40 113 209 -22 457 -22 c 0
EndSplineSet
EndChar

StartChar: afii10103
Encoding: 412 1110 218
Width: 534
VWidth: 0
Flags: HW
LayerCount: 2
UndoRedoHistory
Layer: 1
Undoes
EndUndoes
Redoes
EndRedoes
EndUndoRedoHistory
Fore
SplineSet
181 1391 m 1
 555 1391 l 1
 580 1626 l 1
 206 1626 l 1
 181 1391 l 1
37 0 m 1
 409 0 l 1
 533 1184 l 1
 161 1184 l 1
 37 0 l 1
EndSplineSet
EndChar

StartChar: afii10105
Encoding: 414 1112 220
Width: 549
VWidth: 0
Flags: HW
HStem: -393 289<-28.5 196.5>
LayerCount: 2
UndoRedoHistory
Layer: 1
Undoes
EndUndoes
Redoes
EndRedoes
EndUndoRedoHistory
Fore
SplineSet
216 1391 m 1
 590 1391 l 1
 615 1626 l 1
 241 1626 l 1
 216 1391 l 1
-105 -362 m 1
 -44 -379 20 -393 92 -393 c 0
 301 -393 417 -253 437 -65 c 2
 568 1184 l 1
 196 1184 l 1
 70 -19 l 2
 63 -86 24 -104 -19 -104 c 0
 -38 -104 -57 -99 -77 -95 c 1
 -105 -362 l 1
EndSplineSet
EndChar

StartChar: afii10106
Encoding: 415 1113 221
Width: 1765
VWidth: 0
Flags: HW
HStem: 0 236 0 211<762 1157.5 1156 1157.5 1157.5 1165 1156 1330> 493 220<1186 1216 1191 1216>
VStem: 1304 338
LayerCount: 2
UndoRedoHistory
Layer: 1
Undoes
EndUndoes
Redoes
EndRedoes
EndUndoRedoHistory
Fore
SplineSet
1156 211 m 1
 1186 493 l 1
 1188 493 1190 493 1192 493 c 0
 1314 492 1372 464 1359 343 c 0
 1349 248 1295 213 1165 211 c 0
 1162 211 1159 211 1156 211 c 1
42 0 m 1
 84 -6 123 -10 160 -13 c 0
 497 -37 590 80 682 587 c 1
 750 938 l 1
 861 938 l 1
 762 0 l 1
 1150 0 l 2
 1510 0 1672 102 1697 346 c 1
 1727 627 1544 713 1216 713 c 2
 1209 713 l 1
 1258 1184 l 1
 461 1184 l 1
 363 673 l 1
 285 248 255 227 68 246 c 1
 42 0 l 1
EndSplineSet
EndChar

StartChar: afii10107
Encoding: 416 1114 222
Width: 1552
VWidth: 0
Flags: HW
HStem: 2 211<570 964 942 964> 495 220
VStem: 1093 338
LayerCount: 2
UndoRedoHistory
Layer: 1
Undoes
EndUndoes
Redoes
EndRedoes
EndUndoRedoHistory
Fore
SplineSet
964 213 m 1
 994 495 l 1
 997 495 999 494 1002 494 c 0
 1108 490 1158 458 1146 345 c 0
 1137 255 1088 219 973 214 c 0
 970 214 967 214 964 213 c 1
52 0 m 1
 424 0 l 1
 466 399 l 1
 612 399 l 1
 570 2 l 1
 942 2 l 1
 1299 3 1459 105 1485 348 c 0
 1513 619 1344 708 1039 715 c 0
 1031 715 1024 715 1017 715 c 1
 1067 1186 l 1
 695 1186 l 1
 645 715 l 1
 499 715 l 1
 548 1184 l 1
 176 1184 l 1
 52 0 l 1
EndSplineSet
EndChar

StartChar: afii10108
Encoding: 417 1115 223
Width: 1103
VWidth: 0
Flags: HW
HStem: 0 211 493 220
VStem: 575 338
LayerCount: 2
UndoRedoHistory
Layer: 1
Undoes
EndUndoes
Redoes
EndRedoes
EndUndoRedoHistory
Fore
SplineSet
60 0 m 1
 432 0 l 1
 506 706 l 1
 542 722 570 729 592 729 c 0
 647 729 658 680 650 596 c 2
 587 0 l 1
 959 0 l 1
 1018 559 l 2
 1040 775 1015 979 781 979 c 0
 715 979 632 963 529 926 c 1
 557 1196 l 1
 806 1196 l 1
 824 1373 l 1
 576 1373 l 1
 606 1658 l 1
 234 1658 l 1
 204 1373 l 1
 79 1373 l 1
 61 1196 l 1
 186 1196 l 1
 60 0 l 1
EndSplineSet
EndChar

StartChar: afii10145
Encoding: 420 1039 226
Width: 1263
VWidth: 0
Flags: HW
LayerCount: 2
UndoRedoHistory
Layer: 1
Undoes
EndUndoes
Redoes
EndRedoes
EndUndoRedoHistory
Fore
SplineSet
399 -378 m 1
 693 -378 l 1
 747 0 l 1
 1093 0 l 1
 1267 1658 l 1
 855 1658 l 1
 714 316 l 1
 515 316 l 1
 656 1658 l 1
 244 1658 l 1
 70 0 l 1
 425 0 l 1
 399 -378 l 1
EndSplineSet
EndChar

StartChar: afii10193
Encoding: 421 1119 227
Width: 1110
VWidth: 0
Flags: HW
VStem: 343 309 361 275
LayerCount: 2
UndoRedoHistory
Layer: 1
Undoes
EndUndoes
Redoes
EndRedoes
EndUndoRedoHistory
Fore
SplineSet
349 -329 m 1
 614 -329 l 1
 670 0 l 1
 958 0 l 1
 1082 1184 l 1
 710 1184 l 1
 609 220 l 1
 447 220 l 1
 548 1184 l 1
 176 1184 l 1
 52 0 l 1
 361 0 l 1
 349 -329 l 1
EndSplineSet
EndChar

StartChar: afii61289
Encoding: 422 8467 228
Width: 1339
VWidth: 0
Flags: HW
LayerCount: 2
UndoRedoHistory
Layer: 1
Undoes
EndUndoes
Redoes
EndRedoes
EndUndoRedoHistory
Fore
SplineSet
881 1139 m 1
 1002 1592 l 2
 1064 1826 1433 1744 881 1139 c 1
477 483 m 1
 445 359 l 2
 331 -90 763 -133 1047 148 c 1
 960 289 l 1
 777 107 611 123 674 360 c 2
 789 792 l 1
 961 962 l 2
 2031 2018 914 2200 759 1593 c 2
 559 805 l 1
 188 425 l 1
 283 292 l 1
 477 483 l 1
EndSplineSet
EndChar

StartChar: ampersand
Encoding: 38 38 232
Width: 1141
VWidth: 0
Flags: HW
HStem: -29 238<411.5 455 411.5 458> 1433 253<588 630>
VStem: -2 278 67 288 524 271 755 227
LayerCount: 2
UndoRedoHistory
Layer: 1
Undoes
EndUndoes
Redoes
EndRedoes
EndUndoRedoHistory
Fore
SplineSet
554 1033 m 1
 552 1083 506 1250 516 1337 c 1
 522 1402 567 1433 609 1433 c 0
 651 1433 691 1400 685 1340 c 0
 676 1255 582 1094 554 1033 c 1
435 209 m 0
 388 209 325 275 338 399 c 0
 345 467 375 552 444 653 c 1
 461 594 568 265 568 265 c 1
 522 210 475 209 435 209 c 0
402 -29 m 0
 514 -29 628 15 709 104 c 1
 768 47 847 -35 943 -35 c 0
 968 -35 990 -30 1013 -24 c 1
 1039 222 l 1
 990 228 941 253 920 283 c 1
 1010 436 1061 564 1090 834 c 1
 863 834 l 1
 852 728 810 537 771 483 c 1
 632 838 l 1
 757 965 929 1083 954 1318 c 0
 978 1548 830 1686 616 1686 c 0
 397 1686 246 1515 225 1316 c 0
 210 1175 286 1058 345 900 c 1
 207 774 77 560 56 366 c 0
 32 134 179 -29 402 -29 c 0
EndSplineSet
EndChar

StartChar: approxequal
Encoding: 426 8776 234
Width: 1009
VWidth: 0
Flags: HW
HStem: 372 252<658 709.5 658 731.5> 494 250<324.5 374.5> 836 252<706 757.5 706 780.5> 958 250<373.5 423.5>
LayerCount: 2
UndoRedoHistory
Layer: 1
Undoes
EndUndoes
Redoes
EndRedoes
EndUndoRedoHistory
Fore
SplineSet
730 836 m 0
 831 836 949 953 1002 1067 c 1
 887 1191 l 1
 838 1136 775 1088 740 1088 c 0
 672 1088 523 1208 402 1208 c 0
 307 1208 201 1100 141 1002 c 1
 240 852 l 1
 292 925 360 958 387 958 c 0
 460 958 609 836 730 836 c 0
681 372 m 0
 782 372 900 489 953 603 c 1
 838 727 l 1
 790 672 727 624 692 624 c 0
 624 624 474 744 353 744 c 0
 258 744 152 636 93 538 c 1
 191 388 l 1
 243 461 311 494 338 494 c 0
 411 494 560 372 681 372 c 0
EndSplineSet
EndChar

StartChar: asciicircum
Encoding: 94 94 236
Width: 996
VWidth: 0
Flags: HW
LayerCount: 2
UndoRedoHistory
Layer: 1
Undoes
EndUndoes
Redoes
EndRedoes
EndUndoRedoHistory
Fore
SplineSet
109 965 m 1
 414 965 l 1
 586 1332 l 1
 682 965 l 1
 989 965 l 1
 760 1658 l 1
 482 1658 l 1
 109 965 l 1
EndSplineSet
EndChar

StartChar: asciitilde
Encoding: 126 126 237
Width: 1009
VWidth: 0
Flags: HW
HStem: 660 252<688 739.5 688 761.5> 782 250<354.5 404.5>
LayerCount: 2
UndoRedoHistory
Layer: 1
Undoes
EndUndoes
Redoes
EndRedoes
EndUndoRedoHistory
Fore
SplineSet
711 660 m 0
 812 660 931 777 984 891 c 1
 869 1015 l 1
 820 960 757 912 722 912 c 0
 654 912 504 1032 383 1032 c 0
 288 1032 182 924 123 826 c 1
 221 676 l 1
 274 749 341 782 368 782 c 0
 441 782 590 660 711 660 c 0
EndSplineSet
EndChar

StartChar: asterisk
Encoding: 42 42 238
Width: 882
VWidth: 0
Flags: HW
LayerCount: 2
UndoRedoHistory
Layer: 1
Undoes
EndUndoes
Redoes
EndRedoes
EndUndoRedoHistory
Fore
SplineSet
411 909 m 1
 525 1113 l 1
 598 909 l 1
 832 1039 l 1
 708 1238 l 1
 931 1320 l 1
 872 1542 l 1
 673 1434 l 1
 721 1658 l 1
 444 1658 l 1
 448 1436 l 1
 270 1541 l 1
 165 1322 l 1
 368 1240 l 1
 206 1038 l 1
 411 909 l 1
EndSplineSet
EndChar

StartChar: at
Encoding: 64 64 239
Width: 1977
VWidth: 0
Flags: HW
HStem: -253 214<667 971.5> 990 271<1048.5 1138.5> 1451 208<965.5 1439.5>
LayerCount: 2
UndoRedoHistory
Layer: 1
Undoes
EndUndoes
Redoes
EndRedoes
EndUndoRedoHistory
Fore
SplineSet
985 466 m 1
 883 466 859 559 871 666 c 0
 887 800 967 990 1130 990 c 0
 1147 990 1194 982 1187 954 c 2
 1077 470 l 1
 1057 456 985 466 985 466 c 1
891 -253 m 0
 1052 -253 1231 -221 1388 -188 c 1
 1374 32 l 1
 1254 -9 1050 -39 949 -39 c 0
 385 -39 274 282 402 769 c 1
 496 1121 723 1451 1208 1451 c 0
 1671 1451 1796 1194 1697 761 c 0
 1645 533 1490 375 1404 415 c 1
 1365 432 1402 573 1411 611 c 2
 1558 1251 l 1
 1256 1251 l 1
 1218 1088 l 1
 1211 1133 1199 1261 1078 1261 c 0
 741 1261 592 883 557 667 c 0
 516 407 640 207 879 227 c 0
 959 234 1044 277 1088 345 c 1
 1122 243 1250 206 1361 206 c 0
 1721 206 1898 538 1948 757 c 0
 2069 1290 1859 1659 1257 1659 c 0
 667 1659 274 1269 148 767 c 1
 -9 151 227 -253 891 -253 c 0
EndSplineSet
EndChar

StartChar: b
Encoding: 98 98 241
Width: 1077
VWidth: 0
Flags: HW
LayerCount: 2
UndoRedoHistory
Layer: 1
Undoes
EndUndoes
Redoes
EndRedoes
EndUndoRedoHistory
Fore
SplineSet
517 207 m 0
 497 208 471 217 448 232 c 1
 525 962 l 1
 553 981 582 993 600 996 c 0
 645 1003 670 966 665 925 c 2
 597 279 l 2
 593 238 562 206 517 207 c 0
693 -22 m 0
 838 -22 951 93 973 303 c 2
 1035 890 l 2
 1057 1100 975 1199 822 1206 c 0
 743 1210 641 1177 540 1099 c 1
 598 1658 l 1
 226 1658 l 1
 52 0 l 1
 424 0 l 1
 433 90 l 1
 513 19 606 -22 693 -22 c 0
EndSplineSet
EndChar

StartChar: backslash
Encoding: 92 92 242
Width: 902
VWidth: 0
Flags: HW
LayerCount: 2
UndoRedoHistory
Layer: 1
Undoes
EndUndoes
Redoes
EndRedoes
EndUndoRedoHistory
Fore
SplineSet
579 0 m 1
 753 0 l 1
 398 1658 l 1
 223 1658 l 1
 579 0 l 1
EndSplineSet
EndChar

StartChar: bar
Encoding: 124 124 243
Width: 553
VWidth: 0
Flags: HW
VStem: 78 297
LayerCount: 2
UndoRedoHistory
Layer: 1
Undoes
EndUndoes
Redoes
EndRedoes
EndUndoRedoHistory
Fore
SplineSet
37 -390 m 1
 334 -390 l 1
 549 1658 l 1
 252 1658 l 1
 37 -390 l 1
EndSplineSet
EndChar

StartChar: braceleft
Encoding: 123 123 244
Width: 817
VWidth: 0
Flags: HW
HStem: -396 243<609 656> 1459 243<778 851>
VStem: 191 334
LayerCount: 2
UndoRedoHistory
Layer: 1
Undoes
EndUndoes
Redoes
EndRedoes
EndUndoRedoHistory
Fore
SplineSet
656 -396 m 1
 682 -153 l 1
 536 -153 512 -124 533 77 c 2
 547 214 l 1
 573 456 561 615 402 653 c 1
 569 691 614 850 640 1092 c 1
 654 1229 l 2
 675 1430 705 1459 851 1459 c 1
 877 1702 l 1
 416 1702 355 1564 323 1254 c 1
 310 1134 l 1
 277 818 273 788 136 788 c 1
 107 518 l 1
 244 518 242 488 209 172 c 1
 196 52 l 1
 164 -258 195 -396 656 -396 c 1
EndSplineSet
EndChar

StartChar: braceright
Encoding: 125 125 245
Width: 817
VWidth: 0
Flags: HW
HStem: -396 243<4 77 4 208.5> 1459 243<199 246>
VStem: 193 334
LayerCount: 2
UndoRedoHistory
Layer: 1
Undoes
EndUndoes
Redoes
EndRedoes
EndUndoRedoHistory
Fore
SplineSet
-22 -396 m 1
 439 -396 500 -258 532 52 c 1
 545 172 l 1
 578 488 582 518 719 518 c 1
 748 788 l 1
 611 788 613 818 646 1134 c 1
 659 1254 l 1
 691 1564 660 1702 199 1702 c 1
 173 1459 l 1
 319 1459 343 1430 322 1229 c 2
 308 1092 l 1
 282 850 295 691 454 653 c 1
 287 615 241 456 215 214 c 1
 201 77 l 2
 180 -124 150 -153 4 -153 c 1
 -22 -396 l 1
EndSplineSet
EndChar

StartChar: bracketleft
Encoding: 91 91 246
Width: 673
VWidth: 0
Flags: HW
LayerCount: 2
UndoRedoHistory
Layer: 1
Undoes
EndUndoes
Redoes
EndRedoes
EndUndoRedoHistory
Fore
SplineSet
8 -378 m 1
 541 -378 l 1
 555 -244 l 1
 294 -244 l 1
 482 1524 l 1
 743 1524 l 1
 757 1658 l 1
 224 1658 l 1
 8 -378 l 1
EndSplineSet
EndChar

StartChar: bracketright
Encoding: 93 93 247
Width: 673
VWidth: 0
Flags: HW
LayerCount: 2
UndoRedoHistory
Layer: 1
Undoes
EndUndoes
Redoes
EndRedoes
EndUndoRedoHistory
Fore
SplineSet
-48 -378 m 1
 485 -378 l 1
 697 1658 l 1
 164 1658 l 1
 150 1524 l 1
 411 1524 l 1
 227 -244 l 1
 -34 -244 l 1
 -48 -378 l 1
EndSplineSet
EndChar

StartChar: breve
Encoding: 427 728 248
Width: 650
VWidth: 0
Flags: HW
HStem: 1423 138<379 459 379 478>
VStem: -4 150 365 149
LayerCount: 2
UndoRedoHistory
Layer: 1
Undoes
EndUndoes
Redoes
EndRedoes
EndUndoRedoHistory
Fore
SplineSet
405 1423 m 0
 551 1423 672 1501 688 1658 c 1
 539 1658 l 1
 533 1594 499 1561 419 1561 c 0
 339 1561 313 1593 320 1658 c 1
 170 1658 l 1
 154 1500 259 1423 405 1423 c 0
EndSplineSet
EndChar

StartChar: brevecomb
Encoding: 428 -1 249
Width: 650
VWidth: 0
Flags: HW
HStem: 1423 138<379 459 379 478>
VStem: -4 150 365 149
LayerCount: 2
UndoRedoHistory
Layer: 1
Undoes
EndUndoes
Redoes
EndRedoes
EndUndoRedoHistory
Fore
SplineSet
405 1423 m 0
 551 1423 672 1501 688 1658 c 1
 539 1658 l 1
 533 1594 499 1561 419 1561 c 0
 339 1561 313 1593 320 1658 c 1
 170 1658 l 1
 154 1500 259 1423 405 1423 c 0
EndSplineSet
EndChar

StartChar: brokenbar
Encoding: 166 166 250
Width: 447
VWidth: 0
Flags: HW
VStem: 48 251
LayerCount: 2
UndoRedoHistory
Layer: 1
Undoes
EndUndoes
Redoes
EndRedoes
EndUndoRedoHistory
Fore
SplineSet
135 824 m 1
 386 824 l 1
 473 1658 l 1
 222 1658 l 1
 135 824 l 1
7 -390 m 1
 258 -390 l 1
 346 444 l 1
 95 444 l 1
 7 -390 l 1
EndSplineSet
EndChar

StartChar: bullet
Encoding: 429 8226 251
Width: 1059
VWidth: 0
Flags: HW
HStem: 324 855<501.5 609>
VStem: 65 825
LayerCount: 2
UndoRedoHistory
Layer: 1
Undoes
EndUndoes
Redoes
EndRedoes
EndUndoRedoHistory
Fore
SplineSet
510 324 m 0
 708 324 939 464 969 748 c 0
 999 1035 799 1179 600 1179 c 0
 403 1179 174 1040 144 748 c 0
 114 463 312 324 510 324 c 0
EndSplineSet
EndChar

StartChar: c
Encoding: 99 99 252
Width: 1000
VWidth: 0
Flags: HW
HStem: -22 263 945 261
VStem: 22 374
AnchorPoint: "cedilla" 380 0 basechar 0
LayerCount: 2
UndoRedoHistory
Layer: 1
Undoes
EndUndoes
Redoes
EndRedoes
EndUndoRedoHistory
Fore
SplineSet
457 -22 m 0
 705 -22 895 94 920 331 c 2
 937 496 l 1
 573 496 l 1
 555 319 l 1
 546 242 515 231 483 231 c 0
 453 231 429 253 436 327 c 2
 492 859 l 2
 500 933 529 955 559 955 c 0
 591 955 620 944 612 867 c 2
 596 710 l 1
 960 710 l 1
 975 855 l 2
 1000 1092 834 1206 586 1206 c 0
 338 1206 141 1073 116 837 c 2
 65 349 l 2
 40 113 209 -22 457 -22 c 0
EndSplineSet
EndChar

StartChar: caron
Encoding: 431 711 254
Width: 868
VWidth: 0
Flags: HW
HStem: 1269 389<335 458 654 689 689 689>
LayerCount: 2
UndoRedoHistory
Layer: 1
Undoes
EndUndoes
Redoes
EndRedoes
EndUndoRedoHistory
Fore
SplineSet
335 1269 m 1
 689 1269 l 1
 914 1658 l 1
 654 1658 l 1
 531 1441 l 1
 458 1658 l 1
 199 1658 l 1
 335 1269 l 1
EndSplineSet
EndChar

StartChar: cedilla
Encoding: 184 184 259
Width: 580
VWidth: 0
Flags: HW
HStem: -571 155<17 33>
VStem: 326 232
AnchorPoint: "cedilla" 120 0 mark 0
LayerCount: 2
UndoRedoHistory
Layer: 1
Undoes
EndUndoes
Redoes
EndRedoes
EndUndoRedoHistory
Fore
SplineSet
17 -571 m 1
 213 -632 496 -589 520 -359 c 0
 534 -230 413 -142 244 -142 c 1
 259 0 l 1
 133 0 l 1
 106 -260 l 1
 181 -260 295 -292 286 -378 c 0
 279 -451 94 -434 33 -416 c 1
 17 -571 l 1
EndSplineSet
EndChar

StartChar: cent
Encoding: 162 162 260
Width: 984
VWidth: 0
Flags: HW
VStem: 22 374
LayerCount: 2
UndoRedoHistory
Layer: 1
Undoes
EndUndoes
Redoes
EndRedoes
EndUndoRedoHistory
Fore
SplineSet
376 -308 m 1
 467 -308 l 1
 497 -21 l 1
 722 -7 890 109 914 331 c 1
 931 496 l 1
 567 496 l 1
 550 329 l 1
 541 252 510 241 478 241 c 0
 448 241 424 263 431 337 c 2
 485 849 l 2
 493 923 522 945 552 945 c 0
 584 945 613 934 605 857 c 2
 590 710 l 1
 954 710 l 1
 969 855 l 2
 992 1077 848 1191 626 1205 c 1
 655 1488 l 1
 564 1488 l 1
 535 1205 l 1
 308 1189 133 1058 110 837 c 2
 59 349 l 2
 35 128 183 -5 406 -20 c 1
 376 -308 l 1
EndSplineSet
EndChar

StartChar: circumflex
Encoding: 435 710 261
Width: 876
VWidth: 0
Flags: HW
HStem: 1253 405<425 454 454 454 609 715 425 880 425 880>
LayerCount: 2
UndoRedoHistory
Layer: 1
Undoes
EndUndoes
Redoes
EndRedoes
EndUndoRedoHistory
Fore
SplineSet
184 1253 m 1
 454 1253 l 1
 556 1497 l 1
 609 1253 l 1
 880 1253 l 1
 715 1658 l 1
 425 1658 l 1
 184 1253 l 1
EndSplineSet
EndChar

StartChar: colon
Encoding: 58 58 262
Width: 626
VWidth: 0
Flags: HW
VStem: 29 342
LayerCount: 2
UndoRedoHistory
Layer: 1
Undoes
EndUndoes
Redoes
EndRedoes
EndUndoRedoHistory
Fore
SplineSet
180 841 m 1
 522 841 l 1
 558 1179 l 1
 216 1179 l 1
 180 841 l 1
101 86 m 1
 443 86 l 1
 479 424 l 1
 137 424 l 1
 101 86 l 1
EndSplineSet
EndChar

StartChar: comma
Encoding: 44 44 263
Width: 525
VWidth: 0
Flags: HW
HStem: -291 111<62 65>
VStem: 191 151
LayerCount: 2
UndoRedoHistory
Layer: 1
Undoes
EndUndoes
Redoes
EndRedoes
EndUndoRedoHistory
Fore
SplineSet
65 -291 m 1
 259 -289 368 -167 392 55 c 2
 423 341 l 1
 78 341 l 1
 42 0 l 1
 236 0 l 1
 222 -130 136 -164 62 -180 c 1
 65 -291 l 1
EndSplineSet
EndChar

StartChar: copyright
Encoding: 169 169 264
Width: 1824
VWidth: 0
Flags: HW
HStem: -28 79<618 1120.5 618 1150> 252 248<896 929.5 896 1019.5> 1164 246<966 999> 1597 87<781 1283.5>
VStem: 48 94 1586 90
LayerCount: 2
UndoRedoHistory
Layer: 1
Undoes
EndUndoes
Redoes
EndRedoes
EndUndoRedoHistory
Fore
SplineSet
860 -28 m 0
 1440 -28 1720 415 1763 828 c 0
 1806 1241 1618 1684 1040 1684 c 0
 460 1684 178 1241 135 828 c 0
 92 417 280 -28 860 -28 c 0
870 51 m 0
 366 51 188 435 229 826 c 0
 270 1219 529 1597 1033 1597 c 0
 1534 1597 1714 1219 1673 826 c 0
 1632 435 1371 51 870 51 c 0
886 252 m 0
 1153 252 1355 362 1379 585 c 1
 1395 741 l 1
 1004 741 l 1
 988 583 l 2
 980 511 947 500 912 500 c 0
 880 500 853 521 860 591 c 2
 911 1074 l 2
 918 1143 950 1164 982 1164 c 0
 1016 1164 1047 1154 1040 1081 c 2
 1025 943 l 1
 1416 943 l 1
 1431 1079 l 1
 1454 1303 1274 1410 1008 1410 c 0
 741 1410 531 1285 508 1062 c 2
 460 602 l 2
 436 380 620 252 886 252 c 0
EndSplineSet
EndChar

StartChar: currency
Encoding: 164 164 265
Width: 1138
VWidth: 0
Flags: HW
HStem: 428 93 1211 93
VStem: 86 99 854 98
LayerCount: 2
UndoRedoHistory
Layer: 1
Undoes
EndUndoes
Redoes
EndRedoes
EndUndoRedoHistory
Fore
SplineSet
574 521 m 0
 385 521 256 677 276 866 c 0
 296 1056 457 1211 646 1211 c 0
 836 1211 965 1056 945 866 c 0
 925 677 764 521 574 521 c 0
104 381 m 1
 283 543 l 1
 352 471 450 427 564 428 c 1
 678 427 786 471 869 543 c 1
 1014 381 l 1
 1047 411 l 1
 901 573 l 1
 978 650 1031 754 1043 866 c 0
 1055 979 1024 1082 964 1159 c 1
 1143 1321 l 1
 1116 1351 l 1
 937 1189 l 1
 869 1261 770 1305 656 1304 c 1
 542 1305 435 1261 351 1189 c 1
 206 1351 l 1
 173 1321 l 1
 319 1159 l 1
 242 1082 189 979 177 866 c 0
 165 754 196 650 257 573 c 1
 77 411 l 1
 104 381 l 1
EndSplineSet
EndChar

StartChar: d
Encoding: 100 100 266
Width: 1074
VWidth: 0
Flags: HW
HStem: -22 226<216.5 508> 986 220<351 595.5>
LayerCount: 2
UndoRedoHistory
Layer: 1
Undoes
EndUndoes
Redoes
EndRedoes
EndUndoRedoHistory
Fore
SplineSet
499 204 m 0
 457 204 435 240 440 281 c 2
 504 896 l 2
 510 950 538 986 586 986 c 0
 605 986 631 979 652 968 c 1
 574 230 l 1
 546 214 517 204 499 204 c 0
300 -22 m 0
 382 -22 473 20 560 97 c 1
 550 0 l 1
 922 0 l 1
 1096 1658 l 1
 724 1658 l 1
 667 1111 l 1
 602 1170 521 1206 432 1206 c 0
 270 1206 150 1082 129 881 c 2
 68 303 l 2
 46 97 133 -22 300 -22 c 0
EndSplineSet
EndChar

StartChar: dagger
Encoding: 436 8224 267
Width: 862
VWidth: 0
Flags: HW
LayerCount: 2
UndoRedoHistory
Layer: 1
Undoes
EndUndoes
Redoes
EndRedoes
EndUndoRedoHistory
Fore
SplineSet
242 0 m 1
 527 0 l 1
 630 977 l 1
 859 977 l 1
 881 1185 l 1
 652 1185 l 1
 701 1658 l 1
 416 1658 l 1
 367 1185 l 1
 131 1185 l 1
 109 977 l 1
 345 977 l 1
 242 0 l 1
EndSplineSet
EndChar

StartChar: daggerdbl
Encoding: 437 8225 268
Width: 862
VWidth: 0
Flags: HW
LayerCount: 2
UndoRedoHistory
Layer: 1
Undoes
EndUndoes
Redoes
EndRedoes
EndUndoRedoHistory
Fore
SplineSet
242 0 m 1
 527 0 l 1
 578 481 l 1
 807 481 l 1
 827 674 l 1
 598 674 l 1
 630 977 l 1
 859 977 l 1
 881 1185 l 1
 652 1185 l 1
 701 1658 l 1
 416 1658 l 1
 367 1185 l 1
 131 1185 l 1
 109 977 l 1
 345 977 l 1
 313 674 l 1
 77 674 l 1
 57 481 l 1
 293 481 l 1
 242 0 l 1
EndSplineSet
EndChar

StartChar: dcroat
Encoding: 439 273 270
Width: 1055
VWidth: 0
Flags: HW
HStem: -22 226<208.5 500> 986 220<343 587.5>
LayerCount: 2
UndoRedoHistory
Layer: 1
Undoes
EndUndoes
Redoes
EndRedoes
EndUndoRedoHistory
Fore
SplineSet
491 204 m 0
 449 204 427 240 432 281 c 2
 496 896 l 2
 502 950 530 986 578 986 c 0
 597 986 617 979 639 968 c 1
 561 230 l 1
 533 214 509 204 491 204 c 0
292 -22 m 0
 374 -22 460 20 547 97 c 1
 537 0 l 1
 909 0 l 1
 1056 1395 l 1
 1148 1395 l 1
 1162 1534 l 1
 1070 1534 l 1
 1083 1658 l 1
 711 1658 l 1
 698 1534 l 1
 410 1534 l 1
 396 1395 l 1
 684 1395 l 1
 654 1111 l 1
 589 1170 513 1206 424 1206 c 0
 262 1206 142 1082 121 881 c 2
 60 303 l 2
 38 97 125 -22 292 -22 c 0
EndSplineSet
EndChar

StartChar: degree
Encoding: 176 176 271
Width: 1167
VWidth: 0
Flags: HW
HStem: 831 192<573.5 707.5 573.5 750> 1489 194<622.5 757>
VStem: 98 224 743 226
LayerCount: 2
UndoRedoHistory
Layer: 1
Undoes
EndUndoes
Redoes
EndRedoes
EndUndoRedoHistory
Fore
SplineSet
619 831 m 0
 881 831 1074 1002 1101 1258 c 0
 1128 1515 968 1683 709 1683 c 0
 451 1683 257 1515 230 1258 c 0
 203 1003 360 831 619 831 c 0
640 1023 m 0
 507 1023 440 1122 454 1258 c 0
 469 1395 556 1489 689 1489 c 0
 825 1489 889 1393 875 1257 c 0
 861 1121 775 1023 640 1023 c 0
EndSplineSet
EndChar

StartChar: dieresis
Encoding: 168 168 272
Width: 886
VWidth: 0
Flags: HW
HStem: 1330 328<189 436 436 436 189 664 664 911 911 911>
LayerCount: 2
UndoRedoHistory
Layer: 1
Undoes
EndUndoes
Redoes
EndRedoes
EndUndoRedoHistory
Fore
SplineSet
630 1330 m 1
 911 1330 l 1
 945 1658 l 1
 664 1658 l 1
 630 1330 l 1
155 1330 m 1
 436 1330 l 1
 470 1658 l 1
 189 1658 l 1
 155 1330 l 1
EndSplineSet
EndChar

StartChar: divide
Encoding: 247 247 273
Width: 1012
VWidth: 0
Flags: HW
LayerCount: 2
UndoRedoHistory
Layer: 1
Undoes
EndUndoes
Redoes
EndRedoes
EndUndoRedoHistory
Fore
SplineSet
478 1090 m 1
 693 1090 l 1
 720 1352 l 1
 505 1352 l 1
 478 1090 l 1
115 772 m 1
 959 772 l 1
 978 956 l 1
 134 956 l 1
 115 772 l 1
401 365 m 1
 616 365 l 1
 644 627 l 1
 429 627 l 1
 401 365 l 1
EndSplineSet
EndChar

StartChar: dollar
Encoding: 36 36 274
Width: 989
VWidth: 0
Flags: HW
VStem: -18 404 -18 350 508 409
LayerCount: 2
UndoRedoHistory
Layer: 1
Undoes
EndUndoes
Redoes
EndRedoes
EndUndoRedoHistory
Fore
SplineSet
388 -248 m 1
 503 -248 l 1
 527 -23 l 1
 770 2 936 183 959 398 c 0
 984 634 882 776 748 907 c 2
 668 986 l 2
 594 1058 505 1131 520 1274 c 0
 524 1311 550 1387 604 1387 c 0
 672 1387 663 1307 648 1164 c 1
 1010 1198 l 1
 1026 1352 1045 1660 701 1683 c 1
 723 1895 l 1
 606 1895 l 1
 584 1680 l 1
 322 1656 140 1500 112 1233 c 0
 88 1004 190 889 309 778 c 2
 397 695 l 2
 504 595 562 515 548 379 c 0
 544 347 536 284 474 284 c 0
 413 284 367 330 391 558 c 1
 36 514 l 1
 6 139 129 -8 411 -24 c 1
 388 -248 l 1
EndSplineSet
EndChar

StartChar: dotlessi
Encoding: 441 305 276
Width: 612
VWidth: 0
Flags: W
LayerCount: 2
UndoRedoHistory
Layer: 1
Undoes
EndUndoes
Redoes
EndRedoes
EndUndoRedoHistory
Fore
SplineSet
70 0 m 1
 442 0 l 1
 566 1184 l 1
 194 1184 l 1
 70 0 l 1
EndSplineSet
EndChar

StartChar: e
Encoding: 101 101 277
Width: 996
VWidth: 0
Flags: HW
HStem: -22 263<469 500 469 581> 943 263<543 574>
VStem: 22 368
AnchorPoint: "ogonek" 531 0 basechar 0
LayerCount: 2
UndoRedoHistory
Layer: 1
Undoes
EndUndoes
Redoes
EndRedoes
EndUndoRedoHistory
Fore
SplineSet
473 734 m 1
 485 847 l 2
 493 921 528 943 558 943 c 0
 590 943 631 932 623 855 c 2
 610 734 l 1
 473 734 l 1
457 -22 m 0
 705 -22 883 94 908 331 c 2
 923 474 l 1
 583 474 l 1
 568 329 l 1
 559 252 516 241 484 241 c 0
 454 241 424 263 431 337 c 2
 455 566 l 1
 932 566 l 1
 963 853 l 2
 988 1090 834 1206 586 1206 c 0
 338 1206 141 1071 116 835 c 2
 65 349 l 2
 40 113 209 -22 457 -22 c 0
EndSplineSet
EndChar

StartChar: eight
Encoding: 56 56 284
Width: 1127
VWidth: 0
Flags: HW
HStem: -30 278<493 585.5 493 686.5> 710 292<592 635.5> 1399 284<634 684>
VStem: 36 379 64 358 584 358 595 380
LayerCount: 2
UndoRedoHistory
Layer: 1
Undoes
EndUndoes
Redoes
EndRedoes
EndUndoRedoHistory
Fore
SplineSet
618 1002 m 0
 566 1002 542 1064 560 1240 c 0
 571 1343 608 1399 660 1399 c 0
 708 1399 733 1343 722 1239 c 0
 704 1064 664 1002 618 1002 c 0
539 248 m 0
 447 248 465 400 472 469 c 0
 485 586 494 710 588 710 c 0
 683 710 666 586 652 469 c 1
 645 402 632 248 539 248 c 0
510 -30 m 0
 863 -30 1012 193 1036 503 c 0
 1047 650 1012 813 886 873 c 1
 970 927 1055 1045 1079 1229 c 0
 1117 1512 981 1683 690 1683 c 0
 401 1683 223 1515 201 1229 c 0
 187 1045 251 929 322 873 c 1
 183 813 115 649 97 503 c 0
 60 195 161 -30 510 -30 c 0
EndSplineSet
EndChar

StartChar: ellipsis
Encoding: 444 8230 285
Width: 1438
VWidth: 0
Flags: HW
LayerCount: 2
UndoRedoHistory
Layer: 1
Undoes
EndUndoes
Redoes
EndRedoes
EndUndoRedoHistory
Fore
SplineSet
984 1 m 1
 1332 1 l 1
 1368 341 l 1
 1020 341 l 1
 984 1 l 1
490 0 m 1
 838 0 l 1
 874 340 l 1
 526 340 l 1
 490 0 l 1
6 0 m 1
 354 0 l 1
 390 340 l 1
 42 340 l 1
 6 0 l 1
EndSplineSet
EndChar

StartChar: emdash
Encoding: 446 8212 287
Width: 2048
VWidth: 0
Flags: HW
HStem: 713 249<53 2071 2071 2071>
LayerCount: 2
UndoRedoHistory
Layer: 1
Undoes
EndUndoes
Redoes
EndRedoes
EndUndoRedoHistory
Fore
SplineSet
27 713 m 1
 2071 713 l 1
 2097 962 l 1
 53 962 l 1
 27 713 l 1
EndSplineSet
EndChar

StartChar: endash
Encoding: 447 8211 288
Width: 1024
VWidth: 0
Flags: HW
HStem: 713 249<53 1047 1047 1047>
LayerCount: 2
UndoRedoHistory
Layer: 1
Undoes
EndUndoes
Redoes
EndRedoes
EndUndoRedoHistory
Fore
SplineSet
27 713 m 1
 1047 713 l 1
 1073 962 l 1
 53 962 l 1
 27 713 l 1
EndSplineSet
EndChar

StartChar: eng
Encoding: 448 331 289
Width: 1039
VWidth: 0
Flags: HW
HStem: -406 224<313 405 313 430 313 610>
VStem: 554 372
LayerCount: 2
UndoRedoHistory
Layer: 1
Undoes
EndUndoes
Redoes
EndRedoes
EndUndoRedoHistory
Fore
SplineSet
289 -406 m 1
 430 -406 l 2
 790 -406 894 -304 925 -12 c 2
 1022 917 l 2
 1041 1091 964 1206 819 1206 c 0
 718 1206 623 1177 521 1085 c 1
 531 1184 l 1
 159 1184 l 1
 35 0 l 1
 407 0 l 1
 503 916 l 1
 542 938 574 947 597 948 c 0
 640 950 651 924 646 876 c 2
 553 -10 l 2
 538 -151 497 -182 313 -182 c 1
 289 -406 l 1
EndSplineSet
EndChar

StartChar: equal
Encoding: 61 61 291
Width: 927
VWidth: 0
Flags: HW
VStem: 84 659
LayerCount: 2
UndoRedoHistory
Layer: 1
Undoes
EndUndoes
Redoes
EndRedoes
EndUndoRedoHistory
Fore
SplineSet
177 881 m 1
 836 881 l 1
 858 1095 l 1
 199 1095 l 1
 177 881 l 1
135 484 m 1
 794 484 l 1
 816 698 l 1
 157 698 l 1
 135 484 l 1
EndSplineSet
EndChar

StartChar: estimated
Encoding: 450 8494 292
Width: 984
VWidth: 0
Flags: HW
HStem: -22 83<412 535.5 412 579> 1126 80<525.5 637.5>
VStem: 26 304 607 264
LayerCount: 2
UndoRedoHistory
Layer: 1
Undoes
EndUndoes
Redoes
EndRedoes
EndUndoRedoHistory
Fore
SplineSet
400 663 m 1
 436 1007 l 2
 444 1081 470 1126 581 1126 c 0
 694 1126 721 1083 713 1006 c 2
 677 663 l 1
 400 663 l 1
455 -22 m 0
 703 -22 877 54 902 291 c 2
 921 474 l 1
 657 474 l 1
 629 205 l 2
 620 128 598 61 473 61 c 0
 351 61 344 133 352 207 c 2
 389 566 l 1
 930 566 l 1
 965 893 l 2
 990 1130 832 1206 584 1206 c 0
 336 1206 143 1111 118 875 c 2
 57 299 l 2
 33 63 207 -22 455 -22 c 0
EndSplineSet
EndChar

StartChar: eth
Encoding: 240 240 293
Width: 1098
VWidth: 0
Flags: HW
HStem: -34 238<484 550.5 484 610> 986 220 1486 259
VStem: 22 364 538 372
LayerCount: 2
UndoRedoHistory
Layer: 1
Undoes
EndUndoes
Redoes
EndRedoes
EndUndoRedoHistory
Fore
SplineSet
486 594 m 0
 519 907 541 981 628 981 c 0
 643 981 660 979 678 975 c 1
 610 324 l 2
 602 247 578 204 523 204 c 0
 445 204 454 289 486 594 c 0
993 427 m 2
 1048 954 l 2
 1087 1321 1013 1490 970 1559 c 1
 1125 1655 l 1
 1083 1731 l 1
 917 1625 l 1
 843 1700 690 1745 470 1745 c 1
 428 1516 l 1
 541 1516 621 1493 639 1463 c 1
 473 1364 l 1
 517 1291 l 1
 680 1390 l 1
 699 1366 712 1291 701 1185 c 1
 663 1200 615 1209 562 1209 c 0
 392 1209 174 1081 148 841 c 2
 104 423 l 2
 69 82 277 -34 499 -34 c 0
 721 -34 952 35 993 427 c 2
EndSplineSet
EndChar

StartChar: exclam
Encoding: 33 33 294
Width: 561
VWidth: 0
Flags: HW
VStem: 130 129
LayerCount: 2
UndoRedoHistory
Layer: 1
Undoes
EndUndoes
Redoes
EndRedoes
EndUndoRedoHistory
Fore
SplineSet
201 446 m 1
 330 446 l 1
 593 1652 l 1
 224 1652 l 1
 201 446 l 1
42 0 m 1
 388 0 l 1
 424 340 l 1
 78 340 l 1
 42 0 l 1
EndSplineSet
EndChar

StartChar: exclamdown
Encoding: 161 161 295
Width: 507
VWidth: 0
Flags: HW
VStem: 153 129
LayerCount: 2
UndoRedoHistory
Layer: 1
Undoes
EndUndoes
Redoes
EndRedoes
EndUndoRedoHistory
Fore
SplineSet
154 1009 m 1
 500 1009 l 1
 536 1349 l 1
 190 1349 l 1
 154 1009 l 1
-15 -303 m 1
 354 -303 l 1
 377 903 l 1
 248 903 l 1
 -15 -303 l 1
EndSplineSet
EndChar

StartChar: f
Encoding: 102 102 296
Width: 679
VWidth: 0
Flags: HW
HStem: 1348 277<450 685>
VStem: -34 615
LayerCount: 2
UndoRedoHistory
Layer: 1
Undoes
EndUndoes
Redoes
EndRedoes
EndUndoRedoHistory
Fore
SplineSet
86 0 m 1
 458 0 l 1
 557 938 l 1
 697 938 l 1
 722 1184 l 1
 582 1184 l 1
 592 1278 l 2
 598 1334 635 1348 673 1348 c 0
 697 1348 721 1342 739 1339 c 1
 768 1615 l 1
 706 1622 653 1625 605 1625 c 0
 295 1625 242 1486 221 1282 c 1
 210 1184 l 1
 107 1184 l 1
 82 938 l 1
 185 938 l 1
 86 0 l 1
EndSplineSet
EndChar

StartChar: five
Encoding: 53 53 297
Width: 1128
VWidth: 0
Flags: HW
VStem: 59 368 615 356
LayerCount: 2
UndoRedoHistory
Layer: 1
Undoes
EndUndoes
Redoes
EndRedoes
EndUndoRedoHistory
Fore
SplineSet
518 -35 m 0
 928 -35 1013 217 1051 577 c 0
 1091 959 957 1155 706 1120 c 0
 620 1108 532 1077 509 1047 c 1
 562 1351 l 1
 1056 1351 l 1
 1088 1658 l 1
 293 1658 l 1
 151 681 l 1
 485 681 l 1
 510 795 550 837 613 837 c 0
 704 837 709 716 694 574 c 0
 672 361 659 251 577 245 c 0
 493 239 476 286 498 493 c 1
 130 493 l 1
 97 182 133 -35 518 -35 c 0
EndSplineSet
EndChar

StartChar: florin
Encoding: 451 402 298
Width: 1001
VWidth: 0
Flags: HW
HStem: -412 277<105 109 78 284> 1348 277<901 905 726 932>
LayerCount: 2
UndoRedoHistory
Layer: 1
Undoes
EndUndoes
Redoes
EndRedoes
EndUndoRedoHistory
Fore
SplineSet
129 -412 m 0
 439 -412 506 -273 549 -69 c 2
 758 926 l 1
 908 926 l 1
 935 1184 l 1
 812 1184 l 1
 832 1278 l 2
 843 1334 882 1348 920 1348 c 0
 944 1348 967 1342 985 1339 c 1
 1043 1615 l 1
 982 1622 929 1625 881 1625 c 0
 571 1625 503 1486 461 1282 c 1
 440 1184 l 1
 303 1184 l 1
 276 926 l 1
 386 926 l 1
 177 -65 l 2
 166 -121 128 -135 90 -135 c 0
 66 -135 42 -129 25 -126 c 1
 -33 -402 l 1
 27 -409 81 -412 129 -412 c 0
EndSplineSet
EndChar

StartChar: foundryicon
Encoding: 452 -1 299
Width: 1559
VWidth: 0
Flags: HW
LayerCount: 2
UndoRedoHistory
Layer: 1
Undoes
EndUndoes
Redoes
EndRedoes
EndUndoRedoHistory
Fore
SplineSet
337 249 m 1
 781 544 l 1
 1172 249 l 1
 1070 737 l 1
 1518 1051 l 1
 1003 1051 l 1
 886 1539 l 1
 674 1051 l 1
 158 1041 l 1
 539 737 l 1
 337 249 l 1
EndSplineSet
EndChar

StartChar: four
Encoding: 52 52 300
Width: 1128
VWidth: 0
Flags: HW
LayerCount: 2
UndoRedoHistory
Layer: 1
Undoes
EndUndoes
Redoes
EndRedoes
EndUndoRedoHistory
Fore
SplineSet
345 623 m 1
 668 1307 l 1
 596 623 l 1
 345 623 l 1
531 0 m 1
 865 0 l 1
 903 364 l 1
 1052 364 l 1
 1079 623 l 1
 930 623 l 1
 1039 1658 l 1
 623 1658 l 1
 79 618 l 1
 52 364 l 1
 569 364 l 1
 531 0 l 1
EndSplineSet
EndChar

StartChar: fraction
Encoding: 453 8260 301
Width: 719
VWidth: 0
Flags: HW
LayerCount: 2
UndoRedoHistory
Layer: 1
Undoes
EndUndoes
Redoes
EndRedoes
EndUndoRedoHistory
Fore
SplineSet
-10 0 m 1
 246 0 l 1
 803 1658 l 1
 548 1658 l 1
 -10 0 l 1
EndSplineSet
EndChar

StartChar: g
Encoding: 103 103 302
Width: 1072
VWidth: 0
Flags: HW
HStem: -352 217<452.5 561.5 452.5 665> 368 213<515 583 515 688> 992 214<552 628>
VStem: -8 353 23 378 552 358
LayerCount: 2
UndoRedoHistory
Layer: 1
Undoes
EndUndoes
Redoes
EndRedoes
EndUndoRedoHistory
Fore
SplineSet
549 581 m 0
 481 581 482 651 497 787 c 1
 510 916 514 992 590 992 c 0
 666 992 663 937 648 787 c 1
 632 641 617 581 549 581 c 0
510 -135 m 0
 395 -135 347 -106 353 -50 c 0
 356 -16 380 24 403 57 c 1
 572 32 l 2
 661 19 695 -2 675 -74 c 0
 663 -119 613 -135 510 -135 c 0
487 -352 m 0
 843 -352 956 -207 974 -39 c 0
 990 118 931 205 678 243 c 0
 560 261 464 273 397 285 c 0
 329 297 290 310 287 327 c 0
 284 350 304 379 334 411 c 1
 390 385 469 368 550 368 c 0
 826 368 978 523 1004 770 c 0
 1017 899 988 969 961 1007 c 1
 1032 1046 1134 1094 1168 1106 c 1
 1101 1273 l 1
 1051 1249 l 1
 992 1218 930 1166 876 1112 c 1
 823 1174 718 1206 606 1206 c 0
 337 1206 149 1074 116 765 c 0
 102 627 146 545 214 493 c 1
 116 423 25 349 38 246 c 0
 44 194 81 157 187 113 c 1
 107 56 3 -22 -7 -110 c 0
 -30 -335 313 -352 487 -352 c 0
EndSplineSet
EndChar

StartChar: gcommaaccent
Encoding: 456 291 305
Width: 901
VWidth: 0
Flags: HW
HStem: -352 217<439.5 548.5 439.5 652> 368 213<502 570 502 675> 992 214<539 615> 2001 111<843 846>
VStem: -8 353 23 378 330 151 552 358
LayerCount: 2
UndoRedoHistory
Layer: 1
Undoes
EndUndoes
Redoes
EndRedoes
EndUndoRedoHistory
Fore
SplineSet
536 581 m 0
 468 581 469 651 484 787 c 1
 497 916 501 992 577 992 c 0
 653 992 650 937 635 787 c 1
 619 641 604 581 536 581 c 0
497 -135 m 0
 382 -135 334 -106 340 -50 c 0
 343 -16 367 24 390 57 c 1
 559 32 l 2
 648 19 682 -2 662 -74 c 0
 650 -119 600 -135 497 -135 c 0
486 1480 m 1
 831 1480 l 1
 866 1821 l 1
 672 1821 l 1
 686 1951 773 1985 846 2001 c 1
 843 2112 l 1
 649 2110 540 1988 516 1766 c 2
 486 1480 l 1
474 -352 m 0
 830 -352 943 -207 961 -39 c 0
 977 118 918 205 665 243 c 0
 547 261 451 273 384 285 c 0
 316 297 277 310 274 327 c 0
 271 350 291 379 321 411 c 1
 377 385 456 368 537 368 c 0
 813 368 965 523 991 770 c 0
 1004 899 975 969 948 1007 c 1
 1019 1046 1121 1094 1155 1106 c 1
 1088 1273 l 1
 1038 1249 l 1
 979 1218 917 1166 863 1112 c 1
 810 1174 705 1206 593 1206 c 0
 324 1206 136 1074 103 765 c 0
 89 627 133 545 201 493 c 1
 103 423 12 349 25 246 c 0
 31 194 68 157 174 113 c 1
 94 56 -10 -22 -20 -110 c 0
 -43 -335 300 -352 474 -352 c 0
EndSplineSet
EndChar

StartChar: germandbls
Encoding: 223 223 307
Width: 1129
VWidth: 0
Flags: HW
HStem: 1437 249<624.5 698>
VStem: 644 306
LayerCount: 2
UndoRedoHistory
Layer: 1
Undoes
EndUndoes
Redoes
EndRedoes
EndUndoRedoHistory
Fore
SplineSet
487 -35 m 1
 825 -35 1061 92 1099 459 c 1
 1120 652 1004 818 787 883 c 1
 983 954 1064 1084 1079 1232 c 0
 1109 1515 990 1686 662 1686 c 0
 321 1686 186 1438 163 1216 c 2
 35 0 l 1
 407 0 l 1
 535 1216 l 1
 545 1346 583 1437 666 1437 c 0
 730 1437 789 1376 773 1224 c 0
 755 1052 693 986 614 986 c 1
 588 704 l 1
 665 704 737 624 735 514 c 0
 731 303 633 243 517 243 c 1
 487 -35 l 1
EndSplineSet
EndChar

StartChar: grave
Encoding: 96 96 308
Width: 650
VWidth: 0
Flags: HW
HStem: 1243 415<420 579 195 663 195 663>
LayerCount: 2
UndoRedoHistory
Layer: 1
Undoes
EndUndoes
Redoes
EndRedoes
EndUndoRedoHistory
Fore
SplineSet
420 1243 m 1
 663 1243 l 1
 579 1658 l 1
 195 1658 l 1
 420 1243 l 1
EndSplineSet
EndChar

StartChar: gravecomb
Encoding: 458 768 309
Width: 650
VWidth: 0
Flags: HW
HStem: 1243 415<420 579 195 663 195 663>
LayerCount: 2
UndoRedoHistory
Layer: 1
Undoes
EndUndoes
Redoes
EndRedoes
EndUndoRedoHistory
Fore
SplineSet
420 1243 m 1
 663 1243 l 1
 579 1658 l 1
 195 1658 l 1
 420 1243 l 1
EndSplineSet
EndChar

StartChar: greater
Encoding: 62 62 310
Width: 833
VWidth: 0
Flags: HW
LayerCount: 2
UndoRedoHistory
Layer: 1
Undoes
EndUndoes
Redoes
EndRedoes
EndUndoRedoHistory
Fore
SplineSet
85 252 m 1
 784 705 l 1
 812 975 l 1
 209 1430 l 1
 176 1116 l 1
 533 842 l 1
 118 564 l 1
 85 252 l 1
EndSplineSet
EndChar

StartChar: greaterequal
Encoding: 459 8805 311
Width: 883
VWidth: 0
Flags: HW
LayerCount: 2
UndoRedoHistory
Layer: 1
Undoes
EndUndoes
Redoes
EndRedoes
EndUndoRedoHistory
Fore
SplineSet
40 19 m 1
 750 19 l 1
 776 262 l 1
 66 262 l 1
 40 19 l 1
96 353 m 1
 795 806 l 1
 823 1076 l 1
 220 1531 l 1
 187 1217 l 1
 544 943 l 1
 129 665 l 1
 96 353 l 1
EndSplineSet
EndChar

StartChar: guillemotleft
Encoding: 171 171 312
Width: 1020
VWidth: 0
Flags: HW
LayerCount: 2
UndoRedoHistory
Layer: 1
Undoes
EndUndoes
Redoes
EndRedoes
EndUndoRedoHistory
Fore
SplineSet
922 74 m 1
 957 409 l 1
 756 615 l 1
 1001 823 l 1
 1036 1158 l 1
 558 674 l 1
 546 558 l 1
 922 74 l 1
464 74 m 1
 499 409 l 1
 299 615 l 1
 543 823 l 1
 578 1158 l 1
 101 674 l 1
 89 558 l 1
 464 74 l 1
EndSplineSet
EndChar

StartChar: guillemotright
Encoding: 187 187 313
Width: 1020
VWidth: 0
Flags: HW
LayerCount: 2
UndoRedoHistory
Layer: 1
Undoes
EndUndoes
Redoes
EndRedoes
EndUndoRedoHistory
Fore
SplineSet
498 74 m 1
 975 558 l 1
 987 674 l 1
 612 1158 l 1
 577 823 l 1
 777 617 l 1
 533 409 l 1
 498 74 l 1
40 74 m 1
 518 558 l 1
 530 674 l 1
 154 1158 l 1
 119 823 l 1
 320 617 l 1
 75 409 l 1
 40 74 l 1
EndSplineSet
EndChar

StartChar: guilsinglleft
Encoding: 460 8249 314
Width: 600
VWidth: 0
Flags: HW
LayerCount: 2
UndoRedoHistory
Layer: 1
Undoes
EndUndoes
Redoes
EndRedoes
EndUndoRedoHistory
Fore
SplineSet
456 34 m 1
 491 369 l 1
 300 578 l 1
 534 783 l 1
 570 1118 l 1
 95 674 l 1
 74 478 l 1
 456 34 l 1
EndSplineSet
EndChar

StartChar: guilsinglright
Encoding: 461 8250 315
Width: 555
VWidth: 0
Flags: HW
LayerCount: 2
UndoRedoHistory
Layer: 1
Undoes
EndUndoes
Redoes
EndRedoes
EndUndoRedoHistory
Fore
SplineSet
25 34 m 1
 503 518 l 1
 516 634 l 1
 139 1118 l 1
 103 783 l 1
 305 577 l 1
 60 369 l 1
 25 34 l 1
EndSplineSet
EndChar

StartChar: h
Encoding: 104 104 316
Width: 1087
VWidth: 0
Flags: HW
LayerCount: 2
UndoRedoHistory
Layer: 1
Undoes
EndUndoes
Redoes
EndRedoes
EndUndoRedoHistory
Fore
SplineSet
52 0 m 1
 424 0 l 1
 520 916 l 1
 559 938 591 947 614 948 c 0
 657 950 668 924 663 876 c 2
 571 0 l 1
 943 0 l 1
 1039 917 l 2
 1058 1091 981 1206 836 1206 c 0
 735 1206 640 1177 538 1085 c 1
 598 1658 l 1
 226 1658 l 1
 52 0 l 1
EndSplineSet
EndChar

StartChar: hbar
Encoding: 462 295 317
Width: 1089
VWidth: 0
Flags: HW
LayerCount: 2
UndoRedoHistory
Layer: 1
Undoes
EndUndoes
Redoes
EndRedoes
EndUndoRedoHistory
Fore
SplineSet
54 0 m 1
 426 0 l 1
 522 916 l 1
 561 938 593 947 616 948 c 0
 659 950 670 924 665 876 c 2
 573 0 l 1
 945 0 l 1
 1041 917 l 2
 1060 1091 983 1206 838 1206 c 0
 737 1206 642 1177 540 1085 c 1
 569 1361 l 1
 805 1361 l 1
 822 1524 l 1
 586 1524 l 1
 600 1658 l 1
 228 1658 l 1
 214 1524 l 1
 130 1524 l 1
 113 1361 l 1
 197 1361 l 1
 54 0 l 1
EndSplineSet
EndChar

StartChar: hungarumlaut
Encoding: 464 733 319
Width: 1016
VWidth: 0
Flags: HW
HStem: 1184 474<316 322 322 322 529 619 316 715 715 724 724 724>
LayerCount: 2
UndoRedoHistory
Layer: 1
Undoes
EndUndoes
Redoes
EndRedoes
EndUndoRedoHistory
Fore
SplineSet
529 1184 m 1
 724 1184 l 1
 1027 1658 l 1
 715 1658 l 1
 529 1184 l 1
131 1184 m 1
 322 1184 l 1
 619 1658 l 1
 316 1658 l 1
 131 1184 l 1
EndSplineSet
EndChar

StartChar: hyphen
Encoding: 45 45 320
Width: 837
VWidth: 0
Flags: HW
HStem: 713 249
VStem: -48 456
LayerCount: 2
UndoRedoHistory
Layer: 1
Undoes
EndUndoes
Redoes
EndRedoes
EndUndoRedoHistory
Fore
SplineSet
157 640 m 1
 714 640 l 1
 738 869 l 1
 181 869 l 1
 157 640 l 1
EndSplineSet
EndChar

StartChar: i
Encoding: 105 105 321
Width: 570
VWidth: 0
Flags: HW
AnchorPoint: "ogonek" 256 0 basechar 0
LayerCount: 2
UndoRedoHistory
Layer: 1
Undoes
EndUndoes
Redoes
EndRedoes
EndUndoRedoHistory
Fore
SplineSet
194 1391 m 1
 568 1391 l 1
 593 1626 l 1
 219 1626 l 1
 194 1391 l 1
50 0 m 1
 422 0 l 1
 546 1184 l 1
 174 1184 l 1
 50 0 l 1
EndSplineSet
EndChar

StartChar: infinity
Encoding: 468 8734 329
Width: 1346
VWidth: 0
Flags: HW
HStem: 183 283 732 283
VStem: -6 229 979 243
LayerCount: 2
UndoRedoHistory
Layer: 1
Undoes
EndUndoes
Redoes
EndRedoes
EndUndoRedoHistory
Fore
SplineSet
980 473 m 0
 905 467 826 528 753 599 c 1
 841 670 933 731 1006 725 c 0
 1019 724 1068 706 1057 599 c 0
 1046 492 993 474 980 473 c 0
367 466 m 0
 331 465 290 490 301 599 c 0
 312 708 359 733 395 732 c 0
 464 731 545 667 619 599 c 1
 531 531 426 467 367 466 c 0
336 183 m 0
 457 183 574 281 661 368 c 1
 734 290 846 205 940 206 c 1
 1136 206 1279 401 1300 599 c 0
 1321 797 1218 992 1022 992 c 1
 928 993 799 908 709 830 c 1
 640 917 545 1015 424 1015 c 0
 215 1015 93 795 72 599 c 0
 51 403 127 183 336 183 c 0
EndSplineSet
EndChar

StartChar: integral
Encoding: 469 8747 330
Width: 709
VWidth: 0
Flags: HW
HStem: -390 277<26 261> 1403 277<493 727>
VStem: -38 652
LayerCount: 2
UndoRedoHistory
Layer: 1
Undoes
EndUndoes
Redoes
EndRedoes
EndUndoRedoHistory
Fore
SplineSet
106 -390 m 0
 416 -390 469 -251 490 -47 c 2
 635 1333 l 2
 641 1389 677 1403 715 1403 c 0
 739 1403 764 1397 782 1394 c 1
 811 1670 l 1
 749 1677 696 1680 648 1680 c 0
 338 1680 285 1541 264 1337 c 2
 118 -43 l 2
 113 -99 76 -113 38 -113 c 0
 14 -113 -10 -107 -28 -104 c 1
 -57 -380 l 1
 4 -387 58 -390 106 -390 c 0
EndSplineSet
EndChar

StartChar: j
Encoding: 106 106 333
Width: 598
VWidth: 0
Flags: HW
HStem: -393 289<-22.5 202.5>
LayerCount: 2
UndoRedoHistory
Layer: 1
Undoes
EndUndoes
Redoes
EndRedoes
EndUndoRedoHistory
Fore
SplineSet
222 1391 m 1
 596 1391 l 1
 621 1626 l 1
 247 1626 l 1
 222 1391 l 1
-99 -362 m 1
 -38 -379 26 -393 98 -393 c 0
 307 -393 423 -253 443 -65 c 2
 574 1184 l 1
 202 1184 l 1
 76 -19 l 2
 69 -86 30 -104 -13 -104 c 0
 -32 -104 -51 -99 -71 -95 c 1
 -99 -362 l 1
EndSplineSet
EndChar

StartChar: k
Encoding: 107 107 335
Width: 1187
VWidth: 0
Flags: HW
LayerCount: 2
UndoRedoHistory
Layer: 1
Undoes
EndUndoes
Redoes
EndRedoes
EndUndoRedoHistory
Fore
SplineSet
52 0 m 1
 420 0 l 1
 467 449 l 1
 564 548 l 1
 709 0 l 1
 1125 0 l 1
 872 692 l 1
 1250 1184 l 1
 825 1184 l 1
 500 760 l 1
 594 1658 l 1
 226 1658 l 1
 52 0 l 1
EndSplineSet
EndChar

StartChar: kgreenlandic
Encoding: 474 312 337
Width: 1095
VWidth: 0
Flags: HW
LayerCount: 2
UndoRedoHistory
Layer: 1
Undoes
EndUndoes
Redoes
EndRedoes
EndUndoRedoHistory
Fore
SplineSet
45 0 m 1
 417 0 l 1
 469 490 l 1
 508 536 l 1
 635 0 l 1
 1031 0 l 1
 858 630 l 1
 1148 1184 l 1
 742 1184 l 1
 491 699 l 1
 541 1184 l 1
 169 1184 l 1
 45 0 l 1
EndSplineSet
EndChar

StartChar: l
Encoding: 108 108 338
Width: 592
VWidth: 0
Flags: W
LayerCount: 2
UndoRedoHistory
Layer: 1
Undoes
EndUndoes
Redoes
EndRedoes
EndUndoRedoHistory
Fore
SplineSet
63 0 m 1
 435 0 l 1
 609 1658 l 1
 237 1658 l 1
 63 0 l 1
EndSplineSet
EndChar

StartChar: less
Encoding: 60 60 343
Width: 833
VWidth: 0
Flags: HW
LayerCount: 2
UndoRedoHistory
Layer: 1
Undoes
EndUndoes
Redoes
EndRedoes
EndUndoRedoHistory
Fore
SplineSet
692 252 m 1
 725 564 l 1
 368 842 l 1
 783 1116 l 1
 816 1430 l 1
 118 975 l 1
 90 705 l 1
 692 252 l 1
EndSplineSet
EndChar

StartChar: lessequal
Encoding: 479 8804 344
Width: 833
VWidth: 0
Flags: HW
LayerCount: 2
UndoRedoHistory
Layer: 1
Undoes
EndUndoes
Redoes
EndRedoes
EndUndoRedoHistory
Fore
SplineSet
10 0 m 1
 720 0 l 1
 746 243 l 1
 36 243 l 1
 10 0 l 1
734 359 m 1
 767 671 l 1
 410 949 l 1
 825 1223 l 1
 858 1537 l 1
 160 1082 l 1
 131 812 l 1
 734 359 l 1
EndSplineSet
EndChar

StartChar: logicalnot
Encoding: 172 172 345
Width: 1099
VWidth: 0
Flags: HW
HStem: 384 599<795 977 977 977>
LayerCount: 2
UndoRedoHistory
Layer: 1
Undoes
EndUndoes
Redoes
EndRedoes
EndUndoRedoHistory
Fore
SplineSet
795 384 m 1
 977 384 l 1
 1040 983 l 1
 153 983 l 1
 128 740 l 1
 833 740 l 1
 795 384 l 1
EndSplineSet
EndChar

StartChar: lozenge
Encoding: 480 9674 346
Width: 1012
VWidth: 0
Flags: HW
LayerCount: 2
UndoRedoHistory
Layer: 1
Undoes
EndUndoes
Redoes
EndRedoes
EndUndoRedoHistory
Fore
SplineSet
474 240 m 1
 310 594 l 1
 546 932 l 1
 723 594 l 1
 474 240 l 1
384 0 m 1
 510 0 l 1
 952 594 l 1
 634 1184 l 1
 508 1184 l 1
 84 594 l 1
 384 0 l 1
EndSplineSet
EndChar

StartChar: lslash
Encoding: 481 322 347
Width: 730
VWidth: 0
Flags: HW
VStem: -6 673
LayerCount: 2
UndoRedoHistory
Layer: 1
Undoes
EndUndoes
Redoes
EndRedoes
EndUndoRedoHistory
Fore
SplineSet
128 0 m 1
 500 0 l 1
 605 1003 l 1
 780 1073 l 1
 800 1265 l 1
 626 1195 l 1
 674 1658 l 1
 302 1658 l 1
 237 1038 l 1
 97 982 l 1
 77 790 l 1
 217 846 l 1
 128 0 l 1
EndSplineSet
EndChar

StartChar: m
Encoding: 109 109 348
Width: 1593
VWidth: 0
Flags: HW
LayerCount: 2
UndoRedoHistory
Layer: 1
Undoes
EndUndoes
Redoes
EndRedoes
EndUndoRedoHistory
Fore
SplineSet
52 0 m 1
 422 0 l 1
 519 921 l 1
 554 939 588 947 608 948 c 0
 651 950 666 924 661 876 c 2
 569 0 l 1
 936 0 l 1
 1032 917 l 2
 1033 919 1033 921 1033 924 c 1
 1065 940 1101 947 1120 948 c 0
 1163 950 1176 924 1171 876 c 2
 1079 0 l 1
 1449 0 l 1
 1545 917 l 2
 1564 1091 1487 1206 1342 1206 c 0
 1236 1206 1130 1174 1022 1069 c 1
 994 1155 927 1206 831 1206 c 0
 733 1206 635 1179 537 1094 c 1
 546 1184 l 1
 176 1184 l 1
 52 0 l 1
EndSplineSet
EndChar

StartChar: macron
Encoding: 175 175 349
Width: 278
VWidth: 0
Flags: HW
HStem: 1495 163<-14 531 531 531>
VStem: -188 562
LayerCount: 2
UndoRedoHistory
Layer: 1
Undoes
EndUndoes
Redoes
EndRedoes
EndUndoRedoHistory
Fore
SplineSet
-31 1495 m 1
 531 1495 l 1
 548 1658 l 1
 -14 1658 l 1
 -31 1495 l 1
EndSplineSet
EndChar

StartChar: minus
Encoding: 482 8722 350
Width: 1026
VWidth: 0
Flags: HW
HStem: 668 243<204 888 888 888>
LayerCount: 2
UndoRedoHistory
Layer: 1
Undoes
EndUndoes
Redoes
EndRedoes
EndUndoRedoHistory
Fore
SplineSet
178 668 m 1
 888 668 l 1
 914 911 l 1
 204 911 l 1
 178 668 l 1
EndSplineSet
EndChar

StartChar: mu
Encoding: 181 181 351
Width: 1042
VWidth: 0
Flags: HW
LayerCount: 2
UndoRedoHistory
Layer: 1
Undoes
EndUndoes
Redoes
EndRedoes
EndUndoRedoHistory
Fore
SplineSet
-12 -391 m 1
 359 -391 l 1
 400 1 l 1
 408 4 417 7 425 11 c 0
 464 28 504 53 544 88 c 1
 535 0 l 1
 907 0 l 1
 1031 1184 l 1
 659 1184 l 1
 562 261 l 1
 529 244 502 237 482 236 c 0
 439 234 427 260 432 308 c 2
 524 1184 l 1
 152 1184 l 1
 -12 -391 l 1
EndSplineSet
EndChar

StartChar: multiply
Encoding: 215 215 352
Width: 1068
VWidth: 0
Flags: HW
LayerCount: 2
UndoRedoHistory
Layer: 1
Undoes
EndUndoes
Redoes
EndRedoes
EndUndoRedoHistory
Fore
SplineSet
277 445 m 1
 559 701 l 1
 789 445 l 1
 969 610 l 1
 740 866 l 1
 1023 1123 l 1
 875 1286 l 1
 593 1031 l 1
 364 1286 l 1
 182 1120 l 1
 411 866 l 1
 128 610 l 1
 277 445 l 1
EndSplineSet
EndChar

StartChar: n
Encoding: 110 110 353
Width: 1087
VWidth: 0
Flags: HW
LayerCount: 2
UndoRedoHistory
Layer: 1
Undoes
EndUndoes
Redoes
EndRedoes
EndUndoRedoHistory
Fore
SplineSet
52 0 m 1
 424 0 l 1
 520 916 l 1
 559 938 591 947 614 948 c 0
 657 950 668 924 663 876 c 2
 571 0 l 1
 943 0 l 1
 1039 917 l 2
 1058 1091 981 1206 836 1206 c 0
 735 1206 638 1157 536 1065 c 1
 548 1184 l 1
 176 1184 l 1
 52 0 l 1
EndSplineSet
EndChar

StartChar: nine
Encoding: 57 57 358
Width: 1128
VWidth: 0
Flags: HW
HStem: -27 284<498 577.5 498 694> 1408 276<617.5 692>
VStem: 28 393 575 395
LayerCount: 2
UndoRedoHistory
Layer: 1
Undoes
EndUndoes
Redoes
EndRedoes
EndUndoRedoHistory
Fore
SplineSet
606 900 m 0
 527 900 536 987 551 1135 c 1
 572 1329 581 1408 654 1408 c 0
 730 1408 725 1324 715 1229 c 2
 686 951 l 1
 674 932 645 900 606 900 c 0
501 -27 m 0
 887 -27 1002 199 1036 524 c 2
 1103 1164 l 2
 1137 1485 1022 1684 683 1684 c 0
 338 1684 194 1472 156 1109 c 0
 128 843 200 598 463 607 c 0
 544 610 622 637 659 691 c 1
 647 579 l 2
 619 316 620 257 535 257 c 0
 461 257 467 311 480 437 c 1
 124 437 l 1
 121 406 l 1
 91 125 164 -27 501 -27 c 0
EndSplineSet
EndChar

StartChar: notequal
Encoding: 487 8800 359
Width: 952
VWidth: 0
Flags: HW
LayerCount: 2
UndoRedoHistory
Layer: 1
Undoes
EndUndoes
Redoes
EndRedoes
EndUndoRedoHistory
Fore
SplineSet
74 0 m 1
 248 0 l 1
 454 484 l 1
 819 484 l 1
 841 698 l 1
 544 698 l 1
 622 881 l 1
 861 881 l 1
 883 1095 l 1
 713 1095 l 1
 952 1658 l 1
 777 1658 l 1
 538 1095 l 1
 224 1095 l 1
 202 881 l 1
 448 881 l 1
 370 698 l 1
 182 698 l 1
 160 484 l 1
 279 484 l 1
 74 0 l 1
EndSplineSet
EndChar

StartChar: numbersign
Encoding: 35 35 361
Width: 1127
VWidth: 0
Flags: HW
LayerCount: 2
UndoRedoHistory
Layer: 1
Undoes
EndUndoes
Redoes
EndRedoes
EndUndoRedoHistory
Fore
SplineSet
500 758 m 1
 556 1011 l 1
 709 1011 l 1
 654 758 l 1
 500 758 l 1
121 -1 m 1
 331 -1 l 1
 446 537 l 1
 598 537 l 1
 485 -1 l 1
 694 -1 l 1
 810 537 l 1
 1008 537 l 1
 1039 758 l 1
 866 758 l 1
 919 1011 l 1
 1069 1011 l 1
 1100 1236 l 1
 984 1236 l 1
 1073 1658 l 1
 860 1658 l 1
 773 1236 l 1
 622 1236 l 1
 710 1658 l 1
 496 1658 l 1
 409 1236 l 1
 204 1236 l 1
 173 1011 l 1
 343 1011 l 1
 291 758 l 1
 144 758 l 1
 113 537 l 1
 235 537 l 1
 121 -1 l 1
EndSplineSet
EndChar

StartChar: o
Encoding: 111 111 362
Width: 1031
VWidth: 0
Flags: HW
HStem: -22 263 943 263
VStem: 22 366 527 366
AnchorPoint: "ogonek" 421 0 basechar 0
LayerCount: 2
UndoRedoHistory
Layer: 1
Undoes
EndUndoes
Redoes
EndRedoes
EndUndoRedoHistory
Fore
SplineSet
461 -22 m 0
 709 -22 913 94 940 349 c 2
 991 835 l 2
 1018 1090 838 1206 590 1206 c 0
 342 1206 142 1089 116 835 c 2
 65 349 l 2
 38 95 213 -22 461 -22 c 0
487 221 m 0
 443 221 420 249 428 323 c 2
 484 861 l 2
 492 935 521 963 565 963 c 0
 612 963 636 938 627 861 c 2
 571 323 l 2
 563 246 534 221 487 221 c 0
EndSplineSet
EndChar

StartChar: oe
Encoding: 489 339 367
Width: 1459
VWidth: 0
Flags: HW
HStem: -28 214<448 453> 1032 212<544.5 573 1069.5 1074>
VStem: 22 365 514 392 1011 339
LayerCount: 2
UndoRedoHistory
Layer: 1
Undoes
EndUndoes
Redoes
EndRedoes
EndUndoRedoHistory
Fore
SplineSet
986 760 m 1
 1007 961 l 2
 1013 1018 1049 1032 1065 1032 c 0
 1083 1032 1117 1011 1112 961 c 2
 1091 760 l 1
 986 760 l 1
464 186 m 0
 432 186 412 237 421 323 c 2
 485 930 l 2
 494 1016 531 1032 558 1032 c 0
 588 1032 620 1012 612 930 c 2
 548 322 l 2
 535 197 493 186 464 186 c 0
368 -28 m 0
 538 -28 642 34 701 120 c 1
 731 25 842 -30 993 -30 c 0
 1221 -30 1362 103 1383 302 c 2
 1402 484 l 1
 1057 484 l 1
 1038 301 l 2
 1030 228 1015 186 977 186 c 0
 945 186 930 229 938 302 c 2
 965 560 l 1
 1409 560 l 1
 1440 861 l 1
 1464 1081 1377 1244 1117 1244 c 0
 1022 1244 866 1196 812 1089 c 1
 787 1196 632 1244 531 1244 c 0
 323 1244 142 1145 118 909 c 1
 57 334 l 2
 30 78 198 -28 368 -28 c 0
EndSplineSet
EndChar

StartChar: ogonek
Encoding: 490 731 368
Width: 557
VWidth: 0
Flags: HW
HStem: -529 179<344 391>
VStem: -6 258
AnchorPoint: "ogonek" 271 0 mark 0
LayerCount: 2
UndoRedoHistory
Layer: 1
Undoes
EndUndoes
Redoes
EndRedoes
EndUndoRedoHistory
Fore
SplineSet
344 -529 m 1
 391 -350 l 1
 340 -350 215 -352 228 -230 c 0
 237 -142 274 -66 295 21 c 1
 131 21 l 1
 37 -68 -26 -194 -37 -295 c 0
 -61 -528 205 -534 344 -529 c 1
EndSplineSet
EndChar

StartChar: one
Encoding: 49 49 372
Width: 1128
VWidth: 0
Flags: HW
VStem: 159 565
LayerCount: 2
UndoRedoHistory
Layer: 1
Undoes
EndUndoes
Redoes
EndRedoes
EndUndoRedoHistory
Fore
SplineSet
363 0 m 1
 749 0 l 1
 923 1658 l 1
 619 1658 l 1
 570 1620 363 1505 313 1475 c 1
 283 1189 l 1
 500 1304 l 1
 363 0 l 1
EndSplineSet
EndChar

StartChar: onehalf
Encoding: 189 189 373
Width: 1306
VWidth: 0
Flags: HW
HStem: 729 161<984 1034.5>
VStem: 682 176 1003 183
LayerCount: 2
UndoRedoHistory
Layer: 1
Undoes
EndUndoes
Redoes
EndRedoes
EndUndoRedoHistory
Fore
SplineSet
28 0 m 1
 184 0 l 1
 1215 1658 l 1
 1058 1658 l 1
 28 0 l 1
186 827 m 1
 392 827 l 1
 479 1658 l 1
 350 1658 l 1
 306 1609 244 1552 133 1495 c 1
 115 1327 l 1
 247 1405 l 1
 186 827 l 1
709 0 m 1
 1164 0 l 1
 1181 160 l 1
 940 160 l 1
 1096 354 l 1
 1185 471 1244 552 1256 663 c 0
 1271 809 1180 890 1023 890 c 0
 860 890 765 788 751 652 c 0
 749 639 749 626 748 562 c 1
 925 562 l 1
 917 648 956 729 1012 729 c 0
 1057 729 1076 698 1072 659 c 0
 1065 591 1006 518 952 447 c 1
 726 160 l 1
 709 0 l 1
EndSplineSet
EndChar

StartChar: onequarter
Encoding: 188 188 374
Width: 1306
VWidth: 0
Flags: HW
LayerCount: 2
UndoRedoHistory
Layer: 1
Undoes
EndUndoes
Redoes
EndRedoes
EndUndoRedoHistory
Fore
SplineSet
782 391 m 1
 956 644 l 1
 929 391 l 1
 782 391 l 1
94 0 m 1
 250 0 l 1
 1281 1658 l 1
 1124 1658 l 1
 94 0 l 1
259 827 m 1
 465 827 l 1
 552 1658 l 1
 423 1658 l 1
 379 1609 317 1552 206 1495 c 1
 188 1327 l 1
 320 1405 l 1
 259 827 l 1
888 0 m 1
 1054 0 l 1
 1078 226 l 1
 1181 226 l 1
 1198 391 l 1
 1095 391 l 1
 1143 847 l 1
 993 847 l 1
 663 380 l 1
 647 226 l 1
 912 226 l 1
 888 0 l 1
EndSplineSet
EndChar

StartChar: onesuperior
Encoding: 185 185 375
Width: 878
VWidth: 0
Flags: HW
VStem: 98 481
LayerCount: 2
UndoRedoHistory
Layer: 1
Undoes
EndUndoes
Redoes
EndRedoes
EndUndoRedoHistory
Fore
SplineSet
364 624 m 1
 645 624 l 1
 770 1818 l 1
 549 1818 l 1
 499 1761 318 1703 275 1685 c 1
 253 1476 l 1
 459 1531 l 1
 364 624 l 1
EndSplineSet
EndChar

StartChar: ordfeminine
Encoding: 170 170 376
Width: 1016
VWidth: 0
Flags: HW
HStem: 637 204<393 548> 1447 235<600.5 640>
VStem: 51 313
LayerCount: 2
UndoRedoHistory
Layer: 1
Undoes
EndUndoes
Redoes
EndRedoes
EndUndoRedoHistory
Fore
SplineSet
536 841 m 0
 491 841 456 878 463 941 c 0
 469 1000 531 1108 641 1152 c 1
 612 878 l 1
 589 852 560 841 536 841 c 0
393 637 m 1
 506 637 584 710 621 795 c 1
 631 656 l 1
 923 656 l 1
 999 1384 l 2
 1017 1551 910 1682 681 1682 c 0
 423 1682 248 1581 221 1318 c 1
 543 1307 l 1
 568 1419 580 1447 621 1447 c 0
 659 1447 669 1418 666 1388 c 2
 654 1278 l 1
 492 1220 173 1160 144 886 c 0
 132 769 208 641 393 637 c 1
EndSplineSet
EndChar

StartChar: ordmasculine
Encoding: 186 186 377
Width: 1016
VWidth: 0
Flags: HW
HStem: 637 213<528 565 528 624.5> 1469 214<593 630>
VStem: 92 300 525 299
LayerCount: 2
UndoRedoHistory
Layer: 1
Undoes
EndUndoes
Redoes
EndRedoes
EndUndoRedoHistory
Fore
SplineSet
546 850 m 0
 510 850 484 873 490 933 c 2
 538 1387 l 2
 544 1447 575 1469 611 1469 c 0
 649 1469 677 1449 671 1387 c 2
 623 933 l 2
 617 871 584 850 546 850 c 0
523 637 m 0
 726 637 901 731 923 938 c 2
 969 1382 l 2
 991 1589 836 1683 633 1683 c 0
 430 1683 259 1588 237 1382 c 2
 191 938 l 2
 169 732 320 637 523 637 c 0
EndSplineSet
EndChar

StartChar: oslash
Encoding: 248 248 378
Width: 1015
VWidth: 0
Flags: HW
HStem: -22 263 943 263
VStem: 22 366
LayerCount: 2
UndoRedoHistory
Layer: 1
Undoes
EndUndoes
Redoes
EndRedoes
EndUndoRedoHistory
Fore
SplineSet
150 -177 m 1
 948 1346 l 1
 873 1381 l 1
 75 -142 l 1
 150 -177 l 1
EndSplineSet
Refer: 362 111 N 1 0 0 1 133 0 2
EndChar

StartChar: p
Encoding: 112 112 380
Width: 1075
VWidth: 0
Flags: HW
LayerCount: 2
UndoRedoHistory
Layer: 1
Undoes
EndUndoes
Redoes
EndRedoes
EndUndoRedoHistory
Fore
SplineSet
512 207 m 0
 493 208 471 217 448 231 c 1
 525 963 l 1
 553 981 577 993 595 996 c 0
 640 1003 668 966 663 925 c 2
 595 279 l 2
 591 238 557 206 512 207 c 0
11 -390 m 1
 383 -390 l 1
 433 90 l 1
 513 18 604 -22 691 -22 c 0
 836 -22 949 93 971 303 c 2
 1033 890 l 2
 1055 1100 973 1199 820 1206 c 0
 742 1210 641 1177 540 1100 c 1
 548 1184 l 1
 176 1184 l 1
 11 -390 l 1
EndSplineSet
EndChar

StartChar: paragraph
Encoding: 182 182 381
Width: 1089
VWidth: 0
Flags: HW
VStem: 23 510
LayerCount: 2
UndoRedoHistory
Layer: 1
Undoes
EndUndoes
Redoes
EndRedoes
EndUndoRedoHistory
Fore
SplineSet
307 -196 m 1
 512 -196 l 1
 684 1439 l 1
 857 1439 l 1
 685 -196 l 1
 874 -196 l 1
 1069 1658 l 1
 604 1658 l 2
 399 1658 190 1588 162 1321 c 0
 140 1112 251 993 432 987 c 1
 307 -196 l 1
EndSplineSet
EndChar

StartChar: parenleft
Encoding: 40 40 382
Width: 720
VWidth: 0
Flags: HW
VStem: 70 341
LayerCount: 2
UndoRedoHistory
Layer: 1
Undoes
EndUndoes
Redoes
EndRedoes
EndUndoRedoHistory
Fore
SplineSet
557 -354 m 1
 585 -90 l 1
 455 -90 421 99 480 652 c 1
 537 1196 601 1415 743 1415 c 1
 770 1678 l 1
 300 1681 200 1239 139 652 c 1
 82 116 85 -358 557 -354 c 1
EndSplineSet
EndChar

StartChar: parenright
Encoding: 41 41 383
Width: 720
VWidth: 0
Flags: HW
VStem: 209 341
LayerCount: 2
UndoRedoHistory
Layer: 1
Undoes
EndUndoes
Redoes
EndRedoes
EndUndoRedoHistory
Fore
SplineSet
-11 -354 m 1
 459 -358 562 116 619 652 c 1
 680 1239 674 1681 202 1678 c 1
 175 1415 l 1
 317 1415 335 1196 278 652 c 1
 219 99 147 -90 17 -90 c 1
 -11 -354 l 1
EndSplineSet
EndChar

StartChar: partialdiff
Encoding: 493 8706 384
Width: 1115
VWidth: 0
Flags: HW
HStem: -26 229<456.5 491.5 456.5 564> 895 220<394 639.5> 1419 259<401 640>
VStem: 23 361 640 358
LayerCount: 2
UndoRedoHistory
Layer: 1
Undoes
EndUndoes
Redoes
EndRedoes
EndUndoRedoHistory
Fore
SplineSet
480 203 m 0
 433 203 409 235 413 273 c 1
 413 280 l 1
 522 805 l 1
 532 859 569 895 627 895 c 0
 652 895 679 887 707 874 c 1
 585 279 l 1
 572 207 503 203 480 203 c 0
450 -26 m 0
 678 -26 905 -24 1002 480 c 1
 1002 480 1106 1023 1109 1055 c 0
 1166 1595 766 1678 514 1678 c 1
 401 1419 l 1
 709 1393 774 1272 755 1098 c 0
 753 1071 748 1043 742 1014 c 1
 680 1077 567 1115 475 1115 c 0
 313 1115 184 991 149 790 c 1
 56 302 l 2
 54 292 53 282 52 272 c 0
 28 48 251 -26 450 -26 c 0
EndSplineSet
EndChar

StartChar: percent
Encoding: 37 37 385
Width: 2136
VWidth: 0
Flags: HW
HStem: 0 229<1546 1652 1546 1726> 695 229<502 608 502 682> 732 231<1597.5 1707.5> 1427 231<553.5 663.5>
VStem: 49 299 568 303 1166 299 1685 303
LayerCount: 2
UndoRedoHistory
Layer: 1
Undoes
EndUndoes
Redoes
EndRedoes
EndUndoRedoHistory
Fore
SplineSet
659 0 m 1
 842 0 l 1
 1546 1658 l 1
 1362 1658 l 1
 659 0 l 1
1575 0 m 0
 1877 0 2003 146 2036 459 c 2
 2042 517 l 2
 2076 837 1980 963 1676 963 c 0
 1370 963 1254 836 1220 516 c 2
 1214 459 l 2
 1181 146 1273 0 1575 0 c 0
1599 229 m 0
 1493 229 1497 308 1515 478 c 1
 1518 502 l 1
 1536 672 1543 732 1652 732 c 0
 1763 732 1756 671 1738 500 c 1
 1735 478 l 1
 1717 308 1705 229 1599 229 c 0
531 695 m 0
 833 695 959 841 992 1154 c 2
 998 1212 l 2
 1032 1532 936 1658 632 1658 c 0
 326 1658 210 1531 176 1211 c 2
 170 1154 l 2
 137 841 229 695 531 695 c 0
555 924 m 0
 449 924 453 1003 471 1173 c 1
 474 1197 l 1
 492 1367 499 1427 608 1427 c 0
 719 1427 712 1366 694 1195 c 1
 691 1173 l 1
 673 1003 661 924 555 924 c 0
EndSplineSet
EndChar

StartChar: period
Encoding: 46 46 386
Width: 539
VWidth: 0
Flags: HW
HStem: 0 340<79 391 391 391>
VStem: 33 348
LayerCount: 2
UndoRedoHistory
Layer: 1
Undoes
EndUndoes
Redoes
EndRedoes
EndUndoRedoHistory
Fore
SplineSet
43 0 m 1
 391 0 l 1
 427 340 l 1
 79 340 l 1
 43 0 l 1
EndSplineSet
EndChar

StartChar: periodcentered
Encoding: 183 183 387
Width: 497
VWidth: 0
Flags: HW
HStem: 601 338<125 435 435 435>
VStem: 26 346
LayerCount: 2
UndoRedoHistory
Layer: 1
Undoes
EndUndoes
Redoes
EndRedoes
EndUndoRedoHistory
Fore
SplineSet
89 601 m 1
 435 601 l 1
 471 939 l 1
 125 939 l 1
 89 601 l 1
EndSplineSet
EndChar

StartChar: perthousand
Encoding: 494 8240 388
Width: 3069
VWidth: 0
Flags: HW
HStem: 0 229<1546 1652 1546 1726 2470 2576> 695 229<502 608 502 682> 732 231<1597.5 1707.5 2521.5 2631.5> 1427 231<553.5 663.5>
VStem: 49 299 568 303 1166 299 1685 303 2090 299 2609 303
LayerCount: 2
UndoRedoHistory
Layer: 1
Undoes
EndUndoes
Redoes
EndRedoes
EndUndoRedoHistory
Fore
SplineSet
659 0 m 1
 842 0 l 1
 1546 1658 l 1
 1362 1658 l 1
 659 0 l 1
2499 0 m 0
 2801 0 2927 146 2960 459 c 2
 2966 517 l 2
 3000 837 2904 963 2600 963 c 0
 2294 963 2178 836 2144 516 c 2
 2138 459 l 2
 2105 146 2197 0 2499 0 c 0
2523 229 m 0
 2417 229 2421 308 2439 478 c 1
 2442 502 l 1
 2460 672 2467 732 2576 732 c 0
 2687 732 2680 671 2662 500 c 1
 2659 478 l 1
 2641 308 2629 229 2523 229 c 0
1575 0 m 0
 1877 0 2003 146 2036 459 c 2
 2042 517 l 2
 2076 837 1980 963 1676 963 c 0
 1370 963 1254 836 1220 516 c 2
 1214 459 l 2
 1181 146 1273 0 1575 0 c 0
1599 229 m 0
 1493 229 1497 308 1515 478 c 1
 1518 502 l 1
 1536 672 1543 732 1652 732 c 0
 1763 732 1756 671 1738 500 c 1
 1735 478 l 1
 1717 308 1705 229 1599 229 c 0
531 695 m 0
 833 695 959 841 992 1154 c 2
 998 1212 l 2
 1032 1532 936 1658 632 1658 c 0
 326 1658 210 1531 176 1211 c 2
 170 1154 l 2
 137 841 229 695 531 695 c 0
555 924 m 0
 449 924 453 1003 471 1173 c 1
 474 1197 l 1
 492 1367 499 1427 608 1427 c 0
 719 1427 712 1366 694 1195 c 1
 691 1173 l 1
 673 1003 661 924 555 924 c 0
EndSplineSet
EndChar

StartChar: pi
Encoding: 495 960 389
Width: 1250
VWidth: 0
Flags: HW
LayerCount: 2
UndoRedoHistory
Layer: 1
Undoes
EndUndoes
Redoes
EndRedoes
EndUndoRedoHistory
Fore
SplineSet
587 948 m 1
 739 948 l 1
 669 288 l 2
 648 81 717 -20 1115 -20 c 1
 1156 235 l 1
 1035 235 1039 268 1058 443 c 2
 1111 948 l 1
 1242 948 l 1
 1266 1184 l 1
 115 1184 l 1
 91 948 l 1
 215 948 l 1
 115 0 l 1
 487 0 l 1
 587 948 l 1
EndSplineSet
EndChar

StartChar: plus
Encoding: 43 43 390
Width: 942
VWidth: 0
Flags: HW
LayerCount: 2
UndoRedoHistory
Layer: 1
Undoes
EndUndoes
Redoes
EndRedoes
EndUndoRedoHistory
Fore
SplineSet
345 422 m 1
 584 422 l 1
 619 747 l 1
 917 747 l 1
 938 951 l 1
 640 951 l 1
 673 1266 l 1
 434 1266 l 1
 401 951 l 1
 104 951 l 1
 83 747 l 1
 380 747 l 1
 345 422 l 1
EndSplineSet
EndChar

StartChar: plusminus
Encoding: 177 177 391
Width: 1068
VWidth: 0
Flags: HW
LayerCount: 2
UndoRedoHistory
Layer: 1
Undoes
EndUndoes
Redoes
EndRedoes
EndUndoRedoHistory
Fore
SplineSet
88 0 m 1
 880 0 l 1
 902 213 l 1
 110 213 l 1
 88 0 l 1
414 386 m 1
 637 386 l 1
 668 683 l 1
 952 683 l 1
 973 887 l 1
 689 887 l 1
 720 1184 l 1
 497 1184 l 1
 466 887 l 1
 181 887 l 1
 160 683 l 1
 445 683 l 1
 414 386 l 1
EndSplineSet
EndChar

StartChar: product
Encoding: 496 8719 392
Width: 1289
VWidth: 0
Flags: HW
LayerCount: 2
UndoRedoHistory
Layer: 1
Undoes
EndUndoes
Redoes
EndRedoes
EndUndoRedoHistory
Fore
SplineSet
7 -390 m 1
 366 -390 l 1
 550 1362 l 1
 925 1362 l 1
 741 -390 l 1
 1100 -390 l 1
 1315 1658 l 1
 222 1658 l 1
 7 -390 l 1
EndSplineSet
EndChar

StartChar: q
Encoding: 113 113 393
Width: 1076
VWidth: 0
Flags: HW
HStem: -22 226<214.5 509.5> 986 220<349 598>
LayerCount: 2
UndoRedoHistory
Layer: 1
Undoes
EndUndoes
Redoes
EndRedoes
EndUndoRedoHistory
Fore
SplineSet
500 204 m 0
 458 204 433 240 438 281 c 2
 502 896 l 2
 508 950 539 986 587 986 c 0
 609 986 632 977 656 964 c 1
 580 235 l 1
 548 216 519 204 500 204 c 0
514 -390 m 1
 886 -390 l 1
 1051 1184 l 1
 679 1184 l 1
 671 1103 l 1
 604 1167 523 1206 430 1206 c 0
 268 1206 148 1082 127 881 c 2
 66 303 l 2
 44 97 131 -22 298 -22 c 0
 383 -22 476 24 566 105 c 1
 514 -390 l 1
EndSplineSet
EndChar

StartChar: question
Encoding: 63 63 394
Width: 989
VWidth: 0
Flags: HW
HStem: 1368 319<544 577.5>
VStem: 1 345
LayerCount: 2
UndoRedoHistory
Layer: 1
Undoes
EndUndoes
Redoes
EndRedoes
EndUndoRedoHistory
Fore
SplineSet
183 0 m 1
 543 0 l 1
 580 348 l 1
 220 348 l 1
 183 0 l 1
239 443 m 1
 579 443 l 1
 600 644 l 1
 798 748 981 1033 1005 1269 c 1
 1033 1531 886 1687 583 1687 c 0
 267 1687 159 1505 138 1300 c 0
 129 1214 138 1179 152 1085 c 1
 494 1164 l 1
 483 1217 474 1222 481 1282 c 0
 487 1338 527 1368 561 1368 c 0
 594 1368 638 1365 637 1285 c 0
 634 1068 458 850 267 711 c 1
 239 443 l 1
EndSplineSet
EndChar

StartChar: questiondown
Encoding: 191 191 395
Width: 1068
VWidth: 0
Flags: HW
HStem: -363 319<467.5 501 467.5 620>
VStem: 560 345
LayerCount: 2
UndoRedoHistory
Layer: 1
Undoes
EndUndoes
Redoes
EndRedoes
EndUndoRedoHistory
Fore
SplineSet
466 976 m 1
 826 976 l 1
 862 1324 l 1
 502 1324 l 1
 466 976 l 1
462 -363 m 0
 778 -363 886 -181 908 24 c 0
 917 110 907 145 893 239 c 1
 551 160 l 1
 562 107 571 102 564 42 c 1
 559 -14 518 -44 484 -44 c 0
 451 -44 407 -41 408 39 c 0
 411 256 587 474 778 613 c 1
 807 881 l 1
 467 881 l 1
 445 680 l 1
 248 576 65 291 40 55 c 0
 12 -207 159 -363 462 -363 c 0
EndSplineSet
EndChar

StartChar: quotedbl
Encoding: 34 34 396
Width: 707
VWidth: 0
Flags: HW
HStem: 1005 653<136 232 232 232 136 544 544 640 640 640>
VStem: -38 164 370 164
LayerCount: 2
UndoRedoHistory
Layer: 1
Undoes
EndUndoes
Redoes
EndRedoes
EndUndoRedoHistory
Fore
SplineSet
476 1005 m 1
 640 1005 l 1
 858 1658 l 1
 544 1658 l 1
 476 1005 l 1
68 1005 m 1
 232 1005 l 1
 450 1658 l 1
 136 1658 l 1
 68 1005 l 1
EndSplineSet
EndChar

StartChar: quotedblbase
Encoding: 497 8222 397
Width: 974
VWidth: 0
Flags: HW
HStem: -203 113<95 145 88 196 536 586>
VStem: 226 154 667 154
LayerCount: 2
UndoRedoHistory
Layer: 1
Undoes
EndUndoes
Redoes
EndRedoes
EndUndoRedoHistory
Fore
SplineSet
536 -203 m 1
 738 -203 800 -88 838 156 c 0
 848 224 857 303 866 391 c 1
 554 391 l 1
 521 77 l 1
 675 77 l 1
 666 -11 643 -90 529 -90 c 1
 536 -203 l 1
95 -203 m 1
 297 -203 359 -88 397 156 c 0
 407 224 416 303 425 391 c 1
 113 391 l 1
 80 77 l 1
 234 77 l 1
 225 -11 202 -90 88 -90 c 1
 95 -203 l 1
EndSplineSet
EndChar

StartChar: quotedblleft
Encoding: 498 8220 398
Width: 970
VWidth: 0
Flags: HW
HStem: 1545 113<464 514 413 521 905 955>
VStem: 76 154 517 154
LayerCount: 2
UndoRedoHistory
Layer: 1
Undoes
EndUndoes
Redoes
EndRedoes
EndUndoRedoHistory
Fore
SplineSet
625 1064 m 1
 937 1064 l 1
 970 1378 l 1
 816 1378 l 1
 825 1466 848 1545 962 1545 c 1
 955 1658 l 1
 753 1658 691 1543 653 1299 c 0
 643 1231 634 1152 625 1064 c 1
184 1064 m 1
 496 1064 l 1
 529 1378 l 1
 375 1378 l 1
 384 1466 407 1545 521 1545 c 1
 514 1658 l 1
 312 1658 250 1543 212 1299 c 0
 202 1231 193 1152 184 1064 c 1
EndSplineSet
EndChar

StartChar: quotedblright
Encoding: 499 8221 399
Width: 970
VWidth: 0
Flags: HW
HStem: 1064 113<228 278 221 329 669 719>
VStem: 226 154 667 154
LayerCount: 2
UndoRedoHistory
Layer: 1
Undoes
EndUndoes
Redoes
EndRedoes
EndUndoRedoHistory
Fore
SplineSet
669 1064 m 1
 871 1064 933 1179 971 1423 c 0
 981 1491 990 1570 999 1658 c 1
 687 1658 l 1
 654 1344 l 1
 808 1344 l 1
 799 1256 776 1177 662 1177 c 1
 669 1064 l 1
228 1064 m 1
 430 1064 492 1179 530 1423 c 0
 540 1491 549 1570 558 1658 c 1
 246 1658 l 1
 213 1344 l 1
 367 1344 l 1
 358 1256 335 1177 221 1177 c 1
 228 1064 l 1
EndSplineSet
EndChar

StartChar: quoteleft
Encoding: 500 8216 400
Width: 568
VWidth: 0
Flags: HW
HStem: 1545 113<464 514 413 521>
VStem: 76 154
LayerCount: 2
UndoRedoHistory
Layer: 1
Undoes
EndUndoes
Redoes
EndRedoes
EndUndoRedoHistory
Fore
SplineSet
184 1064 m 1
 496 1064 l 1
 529 1378 l 1
 375 1378 l 1
 384 1466 407 1545 521 1545 c 1
 514 1658 l 1
 312 1658 250 1543 212 1299 c 0
 202 1231 193 1152 184 1064 c 1
EndSplineSet
EndChar

StartChar: quoteright
Encoding: 501 8217 401
Width: 482
VWidth: 0
Flags: HW
HStem: 1064 113<232 282 225 333>
VStem: 242 154
LayerCount: 2
UndoRedoHistory
Layer: 1
Undoes
EndUndoes
Redoes
EndRedoes
EndUndoRedoHistory
Fore
SplineSet
232 1064 m 1
 434 1064 496 1179 534 1423 c 0
 544 1491 553 1570 562 1658 c 1
 250 1658 l 1
 217 1344 l 1
 371 1344 l 1
 362 1256 339 1177 225 1177 c 1
 232 1064 l 1
EndSplineSet
EndChar

StartChar: quotesinglbase
Encoding: 502 8218 402
Width: 572
VWidth: 0
Flags: HW
HStem: -205 113<100 150 93 201.5>
VStem: 232 154
LayerCount: 2
UndoRedoHistory
Layer: 1
Undoes
EndUndoes
Redoes
EndRedoes
EndUndoRedoHistory
Fore
SplineSet
100 -205 m 1
 303 -205 365 -90 402 154 c 0
 413 222 422 301 431 389 c 1
 119 389 l 1
 86 75 l 1
 240 75 l 1
 231 -13 207 -92 93 -92 c 1
 100 -205 l 1
EndSplineSet
EndChar

StartChar: quotesingle
Encoding: 39 39 403
Width: 359
VWidth: 0
Flags: HW
HStem: 1005 653<179 287 287 287>
VStem: -40 176
LayerCount: 2
UndoRedoHistory
Layer: 1
Undoes
EndUndoes
Redoes
EndRedoes
EndUndoRedoHistory
Fore
SplineSet
111 1005 m 1
 287 1005 l 1
 477 1658 l 1
 179 1658 l 1
 111 1005 l 1
EndSplineSet
EndChar

StartChar: r
Encoding: 114 114 404
Width: 795
VWidth: 0
Flags: HW
HStem: 880 318<738 799>
VStem: 36 651
LayerCount: 2
UndoRedoHistory
Layer: 1
Undoes
EndUndoes
Redoes
EndRedoes
EndUndoRedoHistory
Fore
SplineSet
56 0 m 1
 428 0 l 1
 504 722 l 1
 580 817 665 872 774 879 c 0
 782 880 791 880 799 880 c 1
 832 1188 l 1
 815 1195 798 1198 782 1198 c 0
 694 1198 608 1110 531 977 c 1
 552 1184 l 1
 180 1184 l 1
 56 0 l 1
EndSplineSet
EndChar

StartChar: radical
Encoding: 504 8730 406
Width: 1233
VWidth: 0
Flags: HW
LayerCount: 2
UndoRedoHistory
Layer: 1
Undoes
EndUndoes
Redoes
EndRedoes
EndUndoRedoHistory
Fore
SplineSet
449 0 m 1
 899 0 l 1
 1334 1658 l 1
 961 1658 l 1
 837 1022 l 1
 729 495 l 1
 718 1022 l 1
 712 1184 l 1
 144 1184 l 1
 119 946 l 1
 386 946 l 1
 449 0 l 1
EndSplineSet
EndChar

StartChar: registered
Encoding: 174 174 409
Width: 1824
VWidth: 0
Flags: HW
HStem: -28 109<630 1110 630 1150> 1174 168<925 977 977 997 647 1017.5> 1571 113<786 1266>
VStem: 48 123 969 270 1550 126
LayerCount: 2
UndoRedoHistory
Layer: 1
Undoes
EndUndoes
Redoes
EndRedoes
EndUndoRedoHistory
Fore
SplineSet
860 -28 m 0
 1440 -28 1720 415 1763 828 c 0
 1806 1241 1618 1684 1040 1684 c 0
 460 1684 178 1241 135 828 c 0
 92 417 280 -28 860 -28 c 0
871 81 m 0
 389 81 219 454 258 827 c 0
 297 1202 545 1571 1027 1571 c 0
 1505 1571 1676 1202 1637 827 c 0
 1598 454 1349 81 871 81 c 0
897 904 m 1
 925 1174 l 1
 977 1174 l 2
 1058 1174 1087 1121 1079 1044 c 0
 1071 969 1034 904 936 904 c 2
 897 904 l 1
540 319 m 1
 836 319 l 1
 882 757 l 1
 916 757 l 1
 998 319 l 1
 1309 319 l 1
 1186 814 l 1
 1308 869 1338 945 1352 1072 c 0
 1375 1293 1229 1342 997 1342 c 2
 647 1342 l 1
 540 319 l 1
EndSplineSet
EndChar

StartChar: ring
Encoding: 507 730 410
Width: 0
VWidth: 0
Flags: HW
HStem: 1237 119<51.5 116 51.5 134.5> 1565 119<72.5 137>
VStem: -300 144 36 148
LayerCount: 2
UndoRedoHistory
Layer: 1
Undoes
EndUndoes
Redoes
EndRedoes
EndUndoRedoHistory
Fore
SplineSet
84 1356 m 0
 19 1356 -8 1408 -2 1461 c 0
 3 1513 40 1565 105 1565 c 0
 169 1565 195 1513 190 1461 c 0
 184 1408 148 1356 84 1356 c 0
71 1237 m 0
 198 1237 322 1310 338 1461 c 0
 353 1611 244 1684 118 1684 c 0
 -8 1684 -131 1612 -146 1461 c 0
 -162 1310 -55 1237 71 1237 c 0
EndSplineSet
EndChar

StartChar: s
Encoding: 115 115 411
Width: 902
VWidth: 0
Flags: HW
HStem: -22 249
VStem: 446 353
AnchorPoint: "cedilla" 370 0 basechar 0
LayerCount: 2
UndoRedoHistory
Layer: 1
Undoes
EndUndoes
Redoes
EndRedoes
EndUndoRedoHistory
Fore
SplineSet
425 -22 m 0
 621 -22 832 97 854 306 c 0
 870 458 757 555 659 648 c 1
 624 680 l 1
 537 762 433 840 444 899 c 0
 449 924 474 953 521 949 c 0
 581 944 632 851 650 788 c 1
 901 905 l 1
 855 1106 723 1206 525 1206 c 0
 327 1206 125 1063 104 867 c 0
 90 740 193 603 291 513 c 2
 332 475 l 2
 404 408 503 335 499 287 c 0
 496 251 469 228 440 224 c 0
 375 215 312 287 270 379 c 1
 13 262 l 1
 98 48 224 -22 425 -22 c 0
EndSplineSet
EndChar

StartChar: section
Encoding: 167 167 417
Width: 1001
VWidth: 0
Flags: HW
HStem: -13 251<435.5 508.5 435.5 569.5> 1485 245
VStem: 558 283
LayerCount: 2
UndoRedoHistory
Layer: 1
Undoes
EndUndoes
Redoes
EndRedoes
EndUndoRedoHistory
Fore
SplineSet
568 764 m 1
 442 836 l 2
 416 850 412 879 414 898 c 0
 418 934 451 963 510 976 c 1
 598 921 l 2
 644 892 651 861 650 845 c 0
 646 805 603 784 568 764 c 1
440 -13 m 0
 699 -13 856 139 876 336 c 0
 889 458 837 542 727 638 c 1
 832 704 908 765 920 874 c 0
 934 1002 851 1094 747 1162 c 2
 639 1232 l 2
 591 1263 492 1306 502 1400 c 0
 508 1457 554 1483 612 1485 c 0
 708 1488 741 1407 754 1325 c 1
 993 1377 l 1
 966 1580 845 1730 625 1730 c 0
 405 1730 191 1603 184 1380 c 0
 180 1269 268 1160 349 1114 c 1
 264 1091 171 1009 148 893 c 0
 124 774 187 690 274 632 c 1
 426 533 l 2
 551 451 601 406 592 327 c 0
 587 275 543 238 474 238 c 0
 397 238 348 331 332 391 c 1
 85 332 l 1
 114 137 219 -13 440 -13 c 0
EndSplineSet
EndChar

StartChar: semicolon
Encoding: 59 59 418
Width: 631
VWidth: 0
Flags: HW
HStem: -291 111<114 117>
VStem: 218 151
LayerCount: 2
UndoRedoHistory
Layer: 1
Undoes
EndUndoes
Redoes
EndRedoes
EndUndoRedoHistory
Fore
SplineSet
181 846 m 1
 525 846 l 1
 560 1184 l 1
 216 1184 l 1
 181 846 l 1
117 -291 m 1
 311 -289 420 -167 444 55 c 2
 475 341 l 1
 130 341 l 1
 94 0 l 1
 288 0 l 1
 274 -130 188 -164 114 -180 c 1
 117 -291 l 1
EndSplineSet
EndChar

StartChar: seven
Encoding: 55 55 419
Width: 1128
VWidth: 0
Flags: HW
LayerCount: 2
UndoRedoHistory
Layer: 1
Undoes
EndUndoes
Redoes
EndRedoes
EndUndoRedoHistory
Fore
SplineSet
190 0 m 1
 566 0 l 1
 1091 1379 l 1
 1120 1658 l 1
 291 1658 l 1
 261 1370 l 1
 717 1370 l 1
 190 0 l 1
EndSplineSet
EndChar

StartChar: six
Encoding: 54 54 420
Width: 1128
VWidth: 0
Flags: HW
HStem: -27 276<523 597.5 523 708.5> 757 293 1400 284<633.5 713>
VStem: 37 391 595 384
LayerCount: 2
UndoRedoHistory
Layer: 1
Undoes
EndUndoes
Redoes
EndRedoes
EndUndoRedoHistory
Fore
SplineSet
561 249 m 0
 485 249 479 333 489 428 c 2
 518 706 l 1
 530 725 571 757 610 757 c 0
 689 757 681 670 666 522 c 1
 645 328 634 249 561 249 c 0
525 -27 m 0
 892 -27 1017 210 1055 573 c 0
 1083 839 1008 1059 745 1050 c 0
 664 1047 582 1020 546 966 c 1
 557 1078 l 1
 585 1341 591 1400 676 1400 c 0
 750 1400 740 1346 727 1220 c 1
 1083 1220 l 1
 1086 1251 l 1
 1116 1532 1040 1684 703 1684 c 0
 317 1684 206 1458 172 1133 c 2
 107 518 l 2
 74 197 186 -27 525 -27 c 0
EndSplineSet
EndChar

StartChar: slash
Encoding: 47 47 421
Width: 902
VWidth: 0
Flags: HW
LayerCount: 2
UndoRedoHistory
Layer: 1
Undoes
EndUndoes
Redoes
EndRedoes
EndUndoRedoHistory
Fore
SplineSet
49 0 m 1
 223 0 l 1
 927 1658 l 1
 752 1658 l 1
 49 0 l 1
EndSplineSet
EndChar

StartChar: sterling
Encoding: 163 163 423
Width: 1068
VWidth: 0
Flags: HW
VStem: 131 355 620 336
LayerCount: 2
UndoRedoHistory
Layer: 1
Undoes
EndUndoes
Redoes
EndRedoes
EndUndoRedoHistory
Fore
SplineSet
7 0 m 1
 943 0 l 1
 977 322 l 1
 520 322 l 1
 553 635 l 1
 796 635 l 1
 826 925 l 1
 583 925 l 1
 602 1100 l 2
 621 1281 630 1371 696 1371 c 0
 764 1371 755 1283 742 1159 c 1
 1078 1159 l 1
 1082 1201 l 1
 1111 1479 1070 1684 726 1684 c 0
 348 1684 282 1434 248 1114 c 1
 229 928 l 1
 105 928 l 1
 74 635 l 1
 198 635 l 1
 160 272 l 1
 30 215 l 1
 7 0 l 1
EndSplineSet
EndChar

StartChar: summation
Encoding: 513 8721 424
Width: 894
VWidth: 0
Flags: HW
LayerCount: 2
UndoRedoHistory
Layer: 1
Undoes
EndUndoes
Redoes
EndRedoes
EndUndoRedoHistory
Fore
SplineSet
-36 -390 m 1
 772 -390 l 1
 801 -115 l 1
 416 -115 l 1
 723 693 l 1
 581 1382 l 1
 954 1382 l 1
 983 1658 l 1
 179 1658 l 1
 310 685 l 1
 -36 -390 l 1
EndSplineSet
EndChar

StartChar: t
Encoding: 116 116 425
Width: 755
VWidth: 0
Flags: W
HStem: -13 307<501.855 652.225>
AnchorPoint: "cedilla" 340 0 basechar 0
LayerCount: 2
UndoRedoHistory
Layer: 1
Undoes
EndUndoes
Redoes
EndRedoes
EndUndoRedoHistory
Fore
SplineSet
392 -13 m 0
 524 -19 617 0 654 6 c 1
 685 304 l 1
 685 304 639 291 591 294 c 0
 538 297 489 321 495 381 c 2
 554 942 l 1
 716 942 l 1
 741 1184 l 1
 579 1184 l 1
 618 1550 l 1
 241 1550 l 1
 202 1184 l 1
 92 1184 l 1
 67 942 l 1
 177 942 l 1
 127 469 l 2
 103 234 101 0 392 -13 c 0
EndSplineSet
EndChar

StartChar: tbar
Encoding: 514 359 426
Width: 755
VWidth: 0
Flags: HW
HStem: -13 313
LayerCount: 2
UndoRedoHistory
Layer: 1
Undoes
EndUndoes
Redoes
EndRedoes
EndUndoRedoHistory
Fore
SplineSet
674 595 m 1
 690 750 l 1
 47 750 l 1
 31 595 l 1
 674 595 l 1
EndSplineSet
Refer: 425 116 S 1 0 0 1 -45 0 2
EndChar

StartChar: thorn
Encoding: 254 254 429
Width: 1044
VWidth: 0
Flags: HW
LayerCount: 2
UndoRedoHistory
Layer: 1
Undoes
EndUndoes
Redoes
EndRedoes
EndUndoRedoHistory
Fore
SplineSet
498 207 m 0
 479 208 457 217 434 231 c 1
 511 963 l 1
 539 981 563 993 581 996 c 0
 626 1003 651 966 646 925 c 2
 578 279 l 2
 574 238 543 206 498 207 c 0
-3 -390 m 1
 369 -390 l 1
 419 90 l 1
 499 18 587 -22 674 -22 c 0
 819 -22 932 93 954 303 c 2
 1016 890 l 2
 1038 1100 956 1199 803 1206 c 0
 725 1210 626 1177 526 1100 c 1
 584 1658 l 1
 212 1658 l 1
 -3 -390 l 1
EndSplineSet
EndChar

StartChar: three
Encoding: 51 51 430
Width: 1128
VWidth: 0
Flags: HW
HStem: -35 324<530.5 602 530.5 699> 718 240<490 536 536 555 490 604> 1382 306<635.5 707>
VStem: 35 384 601 378
LayerCount: 2
UndoRedoHistory
Layer: 1
Undoes
EndUndoes
Redoes
EndRedoes
EndUndoRedoHistory
Fore
SplineSet
527 -35 m 0
 871 -35 1020 187 1052 494 c 0
 1077 735 999 824 900 865 c 1
 1006 891 1109 1038 1129 1230 c 0
 1161 1536 994 1688 701 1688 c 0
 415 1688 216 1521 183 1211 c 2
 171 1095 l 1
 555 1095 l 1
 566 1200 l 2
 578 1309 600 1382 671 1382 c 0
 743 1382 761 1322 748 1200 c 0
 731 1037 697 958 555 958 c 2
 490 958 l 1
 464 718 l 1
 536 718 l 2
 672 718 690 643 673 481 c 0
 658 343 637 289 567 289 c 0
 494 289 476 339 494 511 c 2
 501 577 l 1
 117 577 l 1
 110 518 l 1
 76 192 152 -35 527 -35 c 0
EndSplineSet
EndChar

StartChar: threequarters
Encoding: 190 190 431
Width: 1306
VWidth: 0
Flags: HW
HStem: 905 145<347 383.5 347 427> 1217 122<321 355> 1513 145<386.5 432.5>
VStem: 47 140 309 157
LayerCount: 2
UndoRedoHistory
Layer: 1
Undoes
EndUndoes
Redoes
EndRedoes
EndUndoRedoHistory
Fore
SplineSet
788 391 m 1
 962 644 l 1
 935 391 l 1
 788 391 l 1
87 0 m 1
 243 0 l 1
 1274 1658 l 1
 1117 1658 l 1
 87 0 l 1
894 0 m 1
 1060 0 l 1
 1084 226 l 1
 1187 226 l 1
 1204 391 l 1
 1101 391 l 1
 1149 847 l 1
 999 847 l 1
 669 380 l 1
 653 226 l 1
 918 226 l 1
 894 0 l 1
360 905 m 0
 494 905 570 987 585 1132 c 0
 594 1220 568 1275 488 1292 c 1
 539 1300 603 1362 612 1447 c 0
 626 1583 580 1658 444 1658 c 0
 308 1658 215 1595 198 1433 c 1
 338 1433 l 1
 343 1481 361 1513 412 1513 c 0
 453 1513 468 1484 462 1426 c 0
 454 1355 414 1339 321 1339 c 1
 308 1217 l 1
 402 1217 436 1207 428 1129 c 0
 423 1082 402 1050 365 1050 c 0
 329 1050 300 1074 306 1130 c 1
 166 1130 l 1
 152 996 221 905 360 905 c 0
EndSplineSet
EndChar

StartChar: threesuperior
Encoding: 179 179 432
Width: 877
VWidth: 0
Flags: HW
HStem: 602 232<469 520 469 589> 1142 172<439 472 472 485 439 521> 1618 220<543.5 595>
VStem: 62 275 468 271
LayerCount: 2
UndoRedoHistory
Layer: 1
Undoes
EndUndoes
Redoes
EndRedoes
EndUndoRedoHistory
Fore
SplineSet
466 602 m 0
 712 602 819 761 842 981 c 0
 860 1154 804 1218 733 1247 c 1
 809 1266 883 1371 898 1509 c 0
 921 1729 801 1838 591 1838 c 0
 386 1838 243 1718 219 1495 c 2
 210 1412 l 1
 485 1412 l 1
 493 1488 l 2
 502 1566 518 1618 569 1618 c 0
 621 1618 634 1575 624 1488 c 1
 612 1371 587 1314 485 1314 c 2
 439 1314 l 1
 421 1142 l 1
 472 1142 l 2
 570 1142 582 1088 570 972 c 0
 560 873 545 834 495 834 c 0
 443 834 428 870 441 993 c 2
 446 1041 l 1
 171 1041 l 1
 167 998 l 1
 142 765 197 602 466 602 c 0
EndSplineSet
EndChar

StartChar: tilde
Encoding: 517 732 433
Width: 867
VWidth: 0
Flags: HW
VStem: 66 171 568 155
LayerCount: 2
UndoRedoHistory
Layer: 1
Undoes
EndUndoes
Redoes
EndRedoes
EndUndoRedoHistory
Fore
SplineSet
742 1347 m 0
 856 1358 884 1522 897 1658 c 1
 742 1658 l 1
 738 1619 720 1576 671 1585 c 0
 622 1594 538 1683 408 1670 c 0
 265 1656 226 1536 209 1357 c 1
 380 1357 l 1
 383 1392 398 1441 448 1441 c 0
 520 1441 642 1337 742 1347 c 0
EndSplineSet
EndChar

StartChar: tildecomb
Encoding: 518 771 434
Width: 867
VWidth: 0
Flags: HW
VStem: 66 171 568 155
LayerCount: 2
UndoRedoHistory
Layer: 1
Undoes
EndUndoes
Redoes
EndRedoes
EndUndoRedoHistory
Fore
SplineSet
742 1347 m 0
 856 1358 884 1522 897 1658 c 1
 742 1658 l 1
 738 1619 720 1576 671 1585 c 0
 622 1594 538 1683 408 1670 c 0
 265 1656 226 1536 209 1357 c 1
 380 1357 l 1
 383 1392 398 1441 448 1441 c 0
 520 1441 642 1337 742 1347 c 0
EndSplineSet
EndChar

StartChar: trademark
Encoding: 519 8482 435
Width: 1874
VWidth: 0
Flags: HW
VStem: 1145 153
LayerCount: 2
UndoRedoHistory
Layer: 1
Undoes
EndUndoes
Redoes
EndRedoes
EndUndoRedoHistory
Fore
SplineSet
340 618 m 1
 582 618 l 1
 669 1448 l 1
 867 1448 l 1
 889 1658 l 1
 245 1658 l 1
 223 1448 l 1
 427 1448 l 1
 340 618 l 1
852 618 m 1
 1060 618 l 1
 1121 1201 l 1
 1232 618 l 1
 1345 618 l 1
 1574 1195 l 1
 1513 618 l 1
 1723 618 l 1
 1832 1658 l 1
 1552 1658 l 1
 1330 1049 l 1
 1233 1658 l 1
 961 1658 l 1
 852 618 l 1
EndSplineSet
EndChar

StartChar: two
Encoding: 50 50 436
Width: 1128
VWidth: 0
Flags: HW
VStem: 608 378
LayerCount: 2
UndoRedoHistory
Layer: 1
Undoes
EndUndoes
Redoes
EndRedoes
EndUndoRedoHistory
Fore
SplineSet
74 0 m 1
 969 0 l 1
 1000 296 l 1
 530 296 l 1
 850 704 l 1
 981 869 1126 1034 1148 1244 c 0
 1177 1521 1034 1688 725 1688 c 0
 379 1688 217 1455 186 1163 c 2
 176 1066 l 1
 545 1066 l 1
 554 1155 l 1
 570 1301 609 1342 664 1357 c 0
 726 1374 780 1341 770 1250 c 0
 757 1120 630 974 549 866 c 2
 102 271 l 1
 74 0 l 1
EndSplineSet
EndChar

StartChar: twosuperior
Encoding: 178 178 437
Width: 878
VWidth: 0
Flags: HW
VStem: 73 270 483 269
LayerCount: 2
UndoRedoHistory
Layer: 1
Undoes
EndUndoes
Redoes
EndRedoes
EndUndoRedoHistory
Fore
SplineSet
146 624 m 1
 784 624 l 1
 806 842 l 1
 485 842 l 1
 699 1130 l 2
 789 1252 896 1368 912 1519 c 0
 933 1718 816 1838 605 1838 c 0
 364 1838 249 1670 226 1460 c 1
 219 1391 l 1
 489 1391 l 1
 506 1548 521 1587 567 1600 c 0
 611 1612 650 1588 643 1523 c 0
 633 1429 545 1338 487 1261 c 2
 168 842 l 1
 146 624 l 1
EndSplineSet
EndChar

StartChar: u
Encoding: 117 117 438
Width: 1075
VWidth: 0
Flags: HW
HStem: -22 244<272 496>
AnchorPoint: "ogonek" 750 0 basechar 0
LayerCount: 2
UndoRedoHistory
Layer: 1
Undoes
EndUndoes
Redoes
EndRedoes
EndUndoRedoHistory
Fore
SplineSet
272 -22 m 0
 369 -22 465 23 562 107 c 1
 551 0 l 1
 923 0 l 1
 1047 1184 l 1
 675 1184 l 1
 577 247 l 1
 544 230 516 223 496 222 c 0
 453 220 438 246 443 294 c 2
 536 1184 l 1
 164 1184 l 1
 68 267 l 2
 50 93 127 -22 272 -22 c 0
EndSplineSet
EndChar

StartChar: underscore
Encoding: 95 95 446
Width: 769
VWidth: 0
Flags: HW
HStem: -278 243
LayerCount: 2
UndoRedoHistory
Layer: 1
Undoes
EndUndoes
Redoes
EndRedoes
EndUndoRedoHistory
Fore
SplineSet
-88 -363 m 1
 681 -363 l 1
 706 -120 l 1
 -63 -120 l 1
 -88 -363 l 1
EndSplineSet
EndChar

StartChar: uni00AD
Encoding: 173 173 449
Width: 781
VWidth: 0
Flags: HW
HStem: 383 286
VStem: 88 526
LayerCount: 2
UndoRedoHistory
Layer: 1
Undoes
EndUndoes
Redoes
EndRedoes
EndUndoRedoHistory
Fore
SplineSet
128 383 m 1
 654 383 l 1
 678 612 l 1
 152 612 l 1
 128 383 l 1
EndSplineSet
EndChar

StartChar: uni0237
Encoding: 563 567 490
Width: 579
VWidth: 0
Flags: HW
HStem: -393 289<-79.0189 196.5>
LayerCount: 2
UndoRedoHistory
Layer: 1
Undoes
EndUndoes
Redoes
EndRedoes
EndUndoRedoHistory
Fore
SplineSet
-105 -362 m 1
 -44 -379 20 -393 92 -393 c 0
 301 -393 417 -253 437 -65 c 2
 568 1184 l 1
 196 1184 l 1
 70 -19 l 2
 63 -86 24 -104 -19 -104 c 0
 -38 -104 -57 -99 -77 -95 c 1
 -105 -362 l 1
EndSplineSet
EndChar

StartChar: uni0302
Encoding: 565 770 492
Width: 876
VWidth: 0
Flags: HW
HStem: 1253 405<425 454 454 454 609 715 425 880 425 880>
AnchorPoint: "circumflexcomb" 328 1225 mark 0
LayerCount: 2
UndoRedoHistory
Layer: 1
Undoes
EndUndoes
Redoes
EndRedoes
EndUndoRedoHistory
Fore
SplineSet
184 1253 m 1
 454 1253 l 1
 556 1497 l 1
 609 1253 l 1
 880 1253 l 1
 715 1658 l 1
 425 1658 l 1
 184 1253 l 1
EndSplineSet
EndChar

StartChar: uni0304
Encoding: 566 772 493
Width: 278
VWidth: 0
Flags: HW
HStem: 1495 163<-41 564 564 564>
VStem: -188 562
LayerCount: 2
UndoRedoHistory
Layer: 1
Undoes
EndUndoes
Redoes
EndRedoes
EndUndoRedoHistory
Fore
SplineSet
-58 1495 m 1
 564 1495 l 1
 581 1658 l 1
 -41 1658 l 1
 -58 1495 l 1
EndSplineSet
EndChar

StartChar: uni0306
Encoding: 567 774 494
Width: 650
VWidth: 0
Flags: HW
HStem: 1423 138<369 469 369 488>
VStem: -4 150 365 149
LayerCount: 2
UndoRedoHistory
Layer: 1
Undoes
EndUndoes
Redoes
EndRedoes
EndUndoRedoHistory
Fore
SplineSet
405 1423 m 0
 571 1423 702 1501 718 1658 c 1
 569 1658 l 1
 563 1594 519 1561 419 1561 c 0
 319 1561 283 1593 290 1658 c 1
 140 1658 l 1
 124 1500 239 1423 405 1423 c 0
EndSplineSet
EndChar

StartChar: uni0307
Encoding: 568 775 495
Width: 519
VWidth: 0
Flags: HW
HStem: 1318 340<207 520 520 520>
VStem: 33 348
LayerCount: 2
UndoRedoHistory
Layer: 1
Undoes
EndUndoes
Redoes
EndRedoes
EndUndoRedoHistory
Fore
SplineSet
172 1318 m 1
 520 1318 l 1
 555 1658 l 1
 207 1658 l 1
 172 1318 l 1
EndSplineSet
EndChar

StartChar: uni0308
Encoding: 569 776 496
Width: 886
VWidth: 0
Flags: HW
HStem: 1330 328<189 436 436 436 189 664 664 911 911 911>
LayerCount: 2
UndoRedoHistory
Layer: 1
Undoes
EndUndoes
Redoes
EndRedoes
EndUndoRedoHistory
Fore
SplineSet
630 1330 m 1
 911 1330 l 1
 945 1658 l 1
 664 1658 l 1
 630 1330 l 1
155 1330 m 1
 436 1330 l 1
 470 1658 l 1
 189 1658 l 1
 155 1330 l 1
EndSplineSet
EndChar

StartChar: uni030A
Encoding: 570 778 497
Width: 0
VWidth: 0
Flags: HW
HStem: 1237 119<51.5 116 51.5 134.5> 1565 119<72.5 137>
VStem: -300 144 36 148
LayerCount: 2
UndoRedoHistory
Layer: 1
Undoes
EndUndoes
Redoes
EndRedoes
EndUndoRedoHistory
Fore
SplineSet
84 1356 m 0
 19 1356 -8 1408 -2 1461 c 0
 3 1513 40 1565 105 1565 c 0
 169 1565 195 1513 190 1461 c 0
 184 1408 148 1356 84 1356 c 0
71 1237 m 0
 198 1237 322 1310 338 1461 c 0
 353 1611 244 1684 118 1684 c 0
 -8 1684 -131 1612 -146 1461 c 0
 -162 1310 -55 1237 71 1237 c 0
EndSplineSet
EndChar

StartChar: uni030C
Encoding: 571 780 498
Width: 868
VWidth: 0
Flags: HW
HStem: 1269 389<335 458 654 689 689 689>
LayerCount: 2
UndoRedoHistory
Layer: 1
Undoes
EndUndoes
Redoes
EndRedoes
EndUndoRedoHistory
Fore
SplineSet
335 1269 m 1
 689 1269 l 1
 914 1658 l 1
 654 1658 l 1
 531 1441 l 1
 458 1658 l 1
 199 1658 l 1
 335 1269 l 1
EndSplineSet
EndChar

StartChar: uni030F
Encoding: 572 783 499
Width: 1011
VWidth: 0
Flags: HW
HStem: 1264 448<371 488 222 576 222 576 760 873 222 962>
LayerCount: 2
UndoRedoHistory
Layer: 1
Undoes
EndUndoes
Redoes
EndRedoes
EndUndoRedoHistory
Fore
SplineSet
760 1264 m 1
 962 1264 l 1
 873 1712 l 1
 610 1712 l 1
 760 1264 l 1
371 1264 m 1
 576 1264 l 1
 488 1712 l 1
 222 1712 l 1
 371 1264 l 1
EndSplineSet
EndChar

StartChar: uni0311
Encoding: 573 785 500
Width: 650
VWidth: 0
Flags: HW
HStem: 1520 138<375 455>
VStem: -4 149 364 150
LayerCount: 2
UndoRedoHistory
Layer: 1
Undoes
EndUndoes
Redoes
EndRedoes
EndUndoRedoHistory
Fore
SplineSet
146 1423 m 1
 295 1423 l 1
 301 1487 335 1520 415 1520 c 0
 495 1520 520 1488 514 1423 c 1
 664 1423 l 1
 680 1581 575 1658 429 1658 c 0
 283 1658 162 1580 146 1423 c 1
EndSplineSet
EndChar

StartChar: uni0326
Encoding: 574 806 501
Width: 457
VWidth: 0
Flags: HW
HStem: -699 111<-26 -22>
VStem: 191 151
LayerCount: 2
UndoRedoHistory
Layer: 1
Undoes
EndUndoes
Redoes
EndRedoes
EndUndoRedoHistory
Fore
SplineSet
-22 -699 m 1
 171 -697 281 -575 305 -353 c 2
 335 -67 l 1
 -10 -67 l 1
 -46 -408 l 1
 148 -408 l 1
 134 -538 48 -572 -26 -588 c 1
 -22 -699 l 1
EndSplineSet
EndChar

StartChar: uni0490
Encoding: 578 1168 505
Width: 1002
VWidth: 0
Flags: HW
LayerCount: 2
UndoRedoHistory
Layer: 1
Undoes
EndUndoes
Redoes
EndRedoes
EndUndoRedoHistory
Fore
SplineSet
80 0 m 1
 492 0 l 1
 634 1353 l 1
 1034 1353 l 1
 1096 1943 l 1
 858 1943 l 1
 828 1658 l 1
 254 1658 l 1
 80 0 l 1
EndSplineSet
EndChar

StartChar: uni04AE
Encoding: 579 -1 506
Width: 1015
VWidth: 0
Flags: HW
LayerCount: 2
UndoRedoHistory
Layer: 1
Undoes
EndUndoes
Redoes
EndRedoes
EndUndoRedoHistory
Fore
SplineSet
262 0 m 1
 658 0 l 1
 733 710 l 1
 1127 1658 l 1
 755 1658 l 1
 643 1287 l 1
 591 1087 l 1
 573 1289 l 1
 525 1658 l 1
 136 1658 l 1
 337 710 l 1
 262 0 l 1
EndSplineSet
EndChar

StartChar: uni04AF
Encoding: 580 1199 507
Width: 957
VWidth: 0
Flags: HW
LayerCount: 2
UndoRedoHistory
Layer: 1
Undoes
EndUndoes
Redoes
EndRedoes
EndUndoRedoHistory
Fore
SplineSet
241 -361 m 1
 564 -361 l 1
 623 196 l 1
 1009 1184 l 1
 684 1184 l 1
 501 628 l 1
 398 1184 l 1
 73 1184 l 1
 299 195 l 1
 241 -361 l 1
EndSplineSet
EndChar

StartChar: uni04B0
Encoding: 581 1200 508
Width: 1045
VWidth: 0
Flags: HW
LayerCount: 2
UndoRedoHistory
Layer: 1
Undoes
EndUndoes
Redoes
EndRedoes
EndUndoRedoHistory
Fore
SplineSet
51 573 m 1
 1035 573 l 1
 1061 822 l 1
 77 822 l 1
 51 573 l 1
EndSplineSet
Refer: 506 -1 S 1 0 0 1 -20 0 2
EndChar

StartChar: uni04B1
Encoding: 582 1201 509
Width: 957
VWidth: 0
Flags: HW
LayerCount: 2
UndoRedoHistory
Layer: 1
Undoes
EndUndoes
Redoes
EndRedoes
EndUndoRedoHistory
Fore
SplineSet
36 0 m 1
 836 0 l 1
 858 206 l 1
 58 206 l 1
 36 0 l 1
EndSplineSet
Refer: 507 1199 S 1 0 0 1 -49 0 2
EndChar

StartChar: uni04C0
Encoding: 583 1216 510
Width: 608
VWidth: 0
Flags: HW
VStem: 48 412<0 0>
LayerCount: 2
UndoRedoHistory
Layer: 1
Undoes
EndUndoes
Redoes
EndRedoes
EndUndoRedoHistory
Fore
SplineSet
48 0 m 1
 460 0 l 1
 634 1658 l 1
 222 1658 l 1
 48 0 l 1
EndSplineSet
EndChar

StartChar: uni04E8
Encoding: 584 1256 511
Width: 1232
VWidth: 0
Flags: HW
HStem: -26 284 1400 284
VStem: 30 424 638 424
LayerCount: 2
UndoRedoHistory
Layer: 1
Undoes
EndUndoes
Redoes
EndRedoes
EndUndoRedoHistory
Fore
SplineSet
337 743 m 1
 934 743 l 1
 960 992 l 1
 363 992 l 1
 337 743 l 1
EndSplineSet
Refer: 70 79 S 1 0 0 1 -65 0 2
EndChar

StartChar: uni04E9
Encoding: 585 1257 512
Width: 1031
VWidth: 0
Flags: HW
HStem: -22 263 943 263
VStem: 22 366 527 366
LayerCount: 2
UndoRedoHistory
Layer: 1
Undoes
EndUndoes
Redoes
EndRedoes
EndUndoRedoHistory
Fore
SplineSet
273 510 m 1
 780 510 l 1
 797 677 l 1
 290 677 l 1
 273 510 l 1
EndSplineSet
Refer: 362 111 S 1 0 0 1 -48 0 2
EndChar

StartChar: uni2074
Encoding: 600 8308 527
Width: 1011
VWidth: 0
Flags: HW
LayerCount: 2
UndoRedoHistory
Layer: 1
Undoes
EndUndoes
Redoes
EndRedoes
EndUndoRedoHistory
Fore
SplineSet
310 862 m 1
 549 1284 l 1
 505 862 l 1
 310 862 l 1
456 402 m 1
 797 402 l 1
 828 693 l 1
 959 693 l 1
 977 862 l 1
 846 862 l 1
 929 1658 l 1
 578 1658 l 1
 123 858 l 1
 106 693 l 1
 487 693 l 1
 456 402 l 1
EndSplineSet
EndChar

StartChar: uni2215
Encoding: 601 8725 528
Width: 901
VWidth: 0
Flags: HW
LayerCount: 2
UndoRedoHistory
Layer: 1
Undoes
EndUndoes
Redoes
EndRedoes
EndUndoRedoHistory
Fore
SplineSet
49 0 m 1
 223 0 l 1
 927 1658 l 1
 752 1658 l 1
 49 0 l 1
EndSplineSet
EndChar

StartChar: uni2219
Encoding: 602 8729 529
Width: 497
VWidth: 0
Flags: HW
HStem: 601 338<125 435 435 435>
VStem: 26 346
LayerCount: 2
UndoRedoHistory
Layer: 1
Undoes
EndUndoes
Redoes
EndRedoes
EndUndoRedoHistory
Fore
SplineSet
89 601 m 1
 435 601 l 1
 471 939 l 1
 125 939 l 1
 89 601 l 1
EndSplineSet
EndChar

StartChar: uniFB01
Encoding: 604 64257 531
Width: 1171
VWidth: 0
Flags: HW
HStem: 1303 277
VStem: 30 32
LayerCount: 2
UndoRedoHistory
Layer: 1
Undoes
EndUndoes
Redoes
EndRedoes
EndUndoRedoHistory
Fore
SplineSet
822 1391 m 1
 1169 1391 l 1
 1194 1626 l 1
 847 1626 l 1
 822 1391 l 1
79 0 m 1
 451 0 l 1
 550 938 l 1
 754 938 l 1
 655 0 l 1
 1023 0 l 1
 1147 1184 l 1
 575 1184 l 1
 586 1285 l 2
 593 1353 628 1368 664 1368 c 0
 677 1368 689 1366 700 1364 c 1
 727 1615 l 1
 672 1624 622 1628 577 1628 c 0
 320 1628 235 1483 214 1282 c 1
 203 1184 l 1
 100 1184 l 1
 75 938 l 1
 178 938 l 1
 79 0 l 1
EndSplineSet
EndChar

StartChar: uniFB02
Encoding: 605 64258 532
Width: 1154
VWidth: 0
Flags: HW
VStem: 30 32
LayerCount: 2
UndoRedoHistory
Layer: 1
Undoes
EndUndoes
Redoes
EndRedoes
EndUndoRedoHistory
Fore
SplineSet
538 926 m 1
 644 926 l 1
 671 1184 l 1
 565 1184 l 1
 575 1278 l 2
 583 1351 602 1413 747 1413 c 0
 763 1413 781 1413 799 1411 c 1
 651 0 l 1
 1023 0 l 1
 1193 1615 l 1
 1013 1645 866 1658 746 1658 c 0
 279 1658 222 1460 204 1282 c 1
 193 1184 l 1
 90 1184 l 1
 63 926 l 1
 166 926 l 1
 69 0 l 1
 441 0 l 1
 538 926 l 1
EndSplineSet
EndChar

StartChar: uniFB03
Encoding: 606 64259 533
Width: 1693
VWidth: 0
Flags: HW
HStem: 0 21<69 441 441 441 630 1002 1002 1002 1186 1558 1558 1558> 1007 177 1362 236 1421 177
VStem: 111 237 630 238 1184 237
LayerCount: 2
UndoRedoHistory
Layer: 1
Undoes
EndUndoes
Redoes
EndRedoes
EndUndoRedoHistory
Fore
SplineSet
69 0 m 1
 441 0 l 1
 540 941 l 1
 729 941 l 1
 630 0 l 1
 1002 0 l 1
 1101 941 l 1
 1285 941 l 1
 1186 0 l 1
 1558 0 l 1
 1682 1184 l 1
 1126 1184 l 1
 1136 1278 l 2
 1142 1334 1171 1347 1202 1347 c 0
 1221 1347 1241 1342 1259 1339 c 1
 1288 1615 l 1
 1226 1622 1197 1625 1149 1625 c 0
 839 1625 786 1486 765 1282 c 1
 754 1184 l 1
 565 1184 l 1
 575 1278 l 2
 581 1334 607 1347 637 1347 c 0
 655 1347 674 1342 692 1339 c 1
 721 1615 l 1
 659 1622 636 1625 588 1625 c 0
 278 1625 225 1486 204 1282 c 1
 193 1184 l 1
 90 1184 l 1
 65 941 l 1
 168 941 l 1
 69 0 l 1
1370 1391 m 1
 1704 1391 l 1
 1729 1626 l 1
 1395 1626 l 1
 1370 1391 l 1
EndSplineSet
EndChar

StartChar: v
Encoding: 118 118 538
Width: 888
VWidth: 0
Flags: HW
LayerCount: 2
UndoRedoHistory
Layer: 1
Undoes
EndUndoes
Redoes
EndRedoes
EndUndoRedoHistory
Fore
SplineSet
206 0 m 1
 578 0 l 1
 952 1184 l 1
 599 1184 l 1
 454 496 l 1
 444 1184 l 1
 92 1184 l 1
 206 0 l 1
EndSplineSet
EndChar

StartChar: w
Encoding: 119 119 539
Width: 1230
VWidth: 0
Flags: HW
VStem: 445 266
LayerCount: 2
UndoRedoHistory
Layer: 1
Undoes
EndUndoes
Redoes
EndRedoes
EndUndoRedoHistory
Fore
SplineSet
157 0 m 1
 470 0 l 1
 632 608 l 1
 650 0 l 1
 969 0 l 1
 1266 1184 l 1
 980 1184 l 1
 824 557 l 1
 835 1184 l 1
 569 1184 l 1
 434 578 l 1
 424 1184 l 1
 112 1184 l 1
 157 0 l 1
EndSplineSet
EndChar

StartChar: x
Encoding: 120 120 544
Width: 945
VWidth: 0
Flags: HW
LayerCount: 2
UndoRedoHistory
Layer: 1
Undoes
EndUndoes
Redoes
EndRedoes
EndUndoRedoHistory
Fore
SplineSet
-28 0 m 1
 273 0 l 1
 410 300 l 1
 510 0 l 1
 891 0 l 1
 688 601 l 1
 972 1184 l 1
 702 1184 l 1
 578 929 l 1
 491 1184 l 1
 113 1184 l 1
 289 659 l 1
 -28 0 l 1
EndSplineSet
EndChar

StartChar: y
Encoding: 121 121 545
Width: 957
VWidth: 0
Flags: HW
HStem: -361 252<91 119 119 119>
LayerCount: 2
UndoRedoHistory
Layer: 1
Undoes
EndUndoes
Redoes
EndRedoes
EndUndoRedoHistory
Fore
SplineSet
64 -361 m 1
 119 -361 l 1
 315 -364 523 -303 600 -65 c 2
 1009 1184 l 1
 664 1184 l 1
 501 568 l 1
 418 1184 l 1
 73 1184 l 1
 261 190 l 2
 268 153 289 26 285 -5 c 1
 276 -99 202 -109 91 -109 c 1
 64 -361 l 1
EndSplineSet
EndChar

StartChar: yen
Encoding: 165 165 549
Width: 986
VWidth: 0
Flags: HW
LayerCount: 2
UndoRedoHistory
Layer: 1
Undoes
EndUndoes
Redoes
EndRedoes
EndUndoRedoHistory
Fore
SplineSet
245 0 m 1
 641 0 l 1
 667 247 l 1
 835 247 l 1
 853 418 l 1
 685 418 l 1
 700 558 l 1
 868 558 l 1
 886 737 l 1
 766 737 l 1
 1110 1658 l 1
 738 1658 l 1
 573 1077 l 1
 508 1658 l 1
 119 1658 l 1
 274 737 l 1
 156 737 l 1
 138 558 l 1
 304 558 l 1
 289 418 l 1
 123 418 l 1
 105 247 l 1
 271 247 l 1
 245 0 l 1
EndSplineSet
EndChar

StartChar: z
Encoding: 122 122 551
Width: 834
VWidth: 0
Flags: HW
VStem: 6 676
LayerCount: 2
UndoRedoHistory
Layer: 1
Undoes
EndUndoes
Redoes
EndRedoes
EndUndoRedoHistory
Fore
SplineSet
23 0 m 1
 731 0 l 1
 759 271 l 1
 435 271 l 1
 821 952 l 1
 845 1184 l 1
 168 1184 l 1
 140 914 l 1
 435 914 l 1
 48 238 l 1
 23 0 l 1
EndSplineSet
EndChar

StartChar: zero
Encoding: 48 48 555
Width: 1128
VWidth: 0
Flags: HW
VStem: 12 395 552 392
LayerCount: 2
UndoRedoHistory
Layer: 1
Undoes
EndUndoes
Redoes
EndRedoes
EndUndoRedoHistory
Fore
SplineSet
511 -35 m 0
 810 -35 997 158 1026 434 c 2
 1106 1202 l 1
 1137 1489 1010 1686 692 1686 c 0
 372 1686 205 1491 174 1202 c 2
 94 434 l 2
 64 154 205 -35 511 -35 c 0
548 312 m 0
 473 312 487 415 490 447 c 2
 568 1188 l 2
 572 1225 570 1337 656 1337 c 0
 740 1337 717 1225 713 1188 c 2
 635 447 l 2
 632 414 624 312 548 312 c 0
EndSplineSet
EndChar
